<mxfile host="65bd71144e">
    <diagram id="HIP3nbAZw_EuaXWnEj3U" name="Page-1">
        <mxGraphModel dx="702" dy="478" grid="1" gridSize="10" guides="1" tooltips="1" connect="1" arrows="1" fold="1" page="1" pageScale="1" pageWidth="850" pageHeight="1100" math="0" shadow="0">
            <root>
                <mxCell id="0"/>
                <mxCell id="1" parent="0"/>
                <mxCell id="7" value="http://ics2o.mths.ca" style="swimlane;whiteSpace=wrap;html=1;" parent="1" vertex="1">
                    <mxGeometry x="40" y="40" width="760" height="635.27" as="geometry"/>
                </mxCell>
                <mxCell id="8" value="total hits:" style="whiteSpace=wrap;html=1;" vertex="1" parent="7">
                    <mxGeometry x="10" y="570" width="110" height="50" as="geometry"/>
                </mxCell>
                <mxCell id="9" value="cookie clicker" style="whiteSpace=wrap;html=1;" vertex="1" parent="7">
                    <mxGeometry x="20" y="30" width="620" height="60" as="geometry"/>
                </mxCell>
                <mxCell id="10" value="" style="shape=image;verticalLabelPosition=bottom;labelBackgroundColor=default;verticalAlign=top;aspect=fixed;imageAspect=0;image=data:image/png,iVBORw0KGgoAAAANSUhEUgAAA1wAAAO9CAYAAACW/WbjAACAAElEQVR42uyd93tWdba333/gHbHrzJwpzrHMjDojHaT3HtILoYSE3iEKil0cCyqKiiAoXQXSQUgghQQQu4CCINJ7Lyl7+55zXevd3/2QSEgIKc9uz3P/cF+e40DAZD97f++91vqs/6NpmgAAAAAAAID/+T98EwAAAAAAABAuAAAAAAAAhAsAAAAAAAAQLgAAAAAAAIQLAAAAAAAA4QIAAAAAAACECwAAAAAAAOECAAAAAABAuAAAAAAAAADhAgAAAAAAQLgAAAAAAAAQLgAAAAAAAEC4AAAAAAAAEC4AAAAAAACECwAAAAAAABAuAAAAAAAAhAsAAAAAAADhAgAAAAAAAIQLAAAAAAAA4QIAAAAAAEC4AAAAAAAAAOECAAAAAABAuAAAAAAAABAuAAAAAAAAQLgAAAAAAAAQLgAAAAAAAIQLAAAAAAAAEC4AAAAAAACECwAAAAAAAOECAAAAAAAAhAsAAAAAAADhAgAAAAAAQLgAAAAAAAAA4QIAAAAAAEC4AAAAAAAAEC4AAAAAAABAuAAAAAAAABAuAAAAAAAAhAsAAAAAAAAQLgAAqImyUtEvnxXt/BHRTv0s2rFtoh3cIvovuaL9lCX6jytF+36haF/PFf3L2aJtfkW0opdEL3hK9LxpouVMFC17guhrhvnIGiJaepyPtFjRV/UXfWVIw0kJ++3rGugZ8b/9mQbq72D+XXIm+f5uiqIXRdv0smhbZpp/d/2rd0X77kPzv0f/YYXoO1NF271GtL3rRd9fINqhraId+Vr0k7t834uz+0W7cFy0S6dFK75gfL/KuF4AAADhAgAAg9JiQxROiXZ6r2iHvxRtz1rRty83pUMvmiH6hsdE/2yET17Sog2hifCfHAUC6nthSJ6eGmkQZXyPYnzfq6wE4/s20pQ7Pe8J0QufNyXUlNFvFxjf42WGyKUY3+/PfBKnvvfHd/h+DkpqL54UvficaCWXuEYBABAuAABwd3WqTLTi82Y1Rt+/0SdUn79uyFSyTwyUSK1EotwjcaHmz8QnbkMqKnN6/pOiKQneOku0b+aZ0qbtShdt7waz2qgd324I2y+GrJ0Q7bKStYs+oabiBgCAcAEAgP8wKyNHvvFVUFSbXM540dNjEZlgQlXcytsp1c/flLWXfBW27z4S/cdVZjVTO1Dkaw9VoqYqnWWlfIYAABAuAAD4rSWwxDdHpFrTvnhL9HVjaPmDBtDfV1lbO9JXAS16wVdRU22QStJ+zr5STdsh2pn9Pkkzq2h8FgEAEC4AgECZuVKCpVrJNr0keuZgQ7DCvDHrZM47hYqeavx908JFT48QPSPSRMuIEi3zCsb/bf779Ejfr1G/Vv0eNSulfr9quSv/esilgz/TMN/cmqqerk70zattfFb0z98wBG3+b4J2aKsvYETNpqlgEebSAAAQLgAA91BmVhH0fQVmpcFsEVPC4fYQibQIn0RlRYu2Ola0NXGifTbAv6ivWYlYH6uvIiumMpnR1yGq7qj/PlMWG4ZPLG9EhPk9rUp4VZScXk25qF7L1dJqh8Cq61bJmZpLWzfal16pgkS+mSv6jk8MOVvnS75UcnbhmG8OrfQyM2gAgHABAIAFnD1gzmCZCXdqHse1s0JhpgyY0qIEx99SBfZRncBWK6/XSKoSx3QfFRXJq8XvasGr07UVJfrqob4ZtIKnzaAXFdev70oTfV++aMe+90XyE8UPAAgXAADUqpKlUgRVXHj2OHemBqoDc2q4r7KzOgZBgQbK3dUi55M4vaKdtLyVNPw3aaupApcWI/ra0b4XFJ/P9M2cmWJW4AsFMcTM3COHmAEAwgUAEGSSdeYX0XcsNyRrvPtmsUzBCvNVMEzBikMUwB1VOLPqVi5q10paNYKWcmXeLGOg77OmZs1UYuO2pb60xoOf+2YjVaQ+FTMAQLgAADzOxZOi/ZTlWyqc4kLJSrvSIrgGwYJAqaRdkTNVQVOtj9eKWaU4fUPK1o4SPX+66FvfFO37xaLtXvOblF0+49txVoaUAQDCBQDgHtR+o8Nfirb55SuLhl0kWerQqeawsmgThCAWM1U1yyyXsghfO2N1s2eqEp05SPTssaIXPif6l+/4Qj/2rvfNlZ077FvXQJUMABAuAAAbOH/E1zKo0gVdJllm0AFBFwC1FDJfymVFhUxVp683U6YSGVcnip471Vw+rn2/yNyVpx3+ytdGrJaTc38EAIQLAKCeqLfbR74WbdPL7koYNCtZSBaA32XMXDlQXhkLqzmRUVXIVJU7K8EUMnNvmZolUzvLVMCH2ldWfJ77KADCBQAAVVB7g9RsloqxdstC3vKZLNoFAZwRMdWimFYLEat4MWL8uox40deNEb3oRdG+nmvcVzJ9LcnnDvlCPVSLMvdcAIQLACBoUEtav1vom+twzX6scN88CgdfAHdxZVbMbE2srYRdhZYWa8jYWNGUjH33oW9h9PEdvhc+zI0BIFwAAAHFyd1mipmeEuGeuSy1I4t0QQCPSljEleTSelbIVZvixmdE+2aeKWL6yZ1XRIz7NQDCBQDgpbTBo9+JXvi8OyLdy1sGWUQMEHDtiOZ+sXpUwX6jv29eTCUqfv66aDtTfXNil05TDQNAuAAA3CZaJaId2ip63hPumM9S1axMqlkAQVUFU/NgKq6+ofeg9FjfrOlX7/rCOs7uF630Mvd5AIQLAMChitaBTb4lxStdIFpUswBAoSpgag7ML5V24962JsncE2gGdJz5hQoYAMIFAGB9RUvfXyh69nhmswDA/S2IagYsLdx/FXg1D6ZmVH/JFe3iCZ4JAAgXAIAfWwcPbBYte4LzFa3UMNGySBoEgPpUvyJ8u/f8ci+KFH1Dsug/fCraqd2++yTPCwCECwCgzq2DBz/3HSqcnNGqCMFgOTEA+GP2y8/ypRY3rxsj2vcLRVfyVYp8ASBcAAA1UuZLHcx/0tmK1iraBgHApsqX314q9ffJ17alop3Zx9wXAMIFAFAZtaNG3/iss6KVEsaCYgBwQL6ifYmHfruf9Tc7BLTda0S7fIZnDADCBQBBzem9om1+1dk9WsZBR71t5uAHAE4Hbpj7vvzVclgeO7/1TdGO7/C1a/PcAUC4ACBIuHDM3Dujp0Y5N5+VznwWALi56hXm11Zpff0U366v4gs8gwAQLgAIWC6fE23bYtHSYh0UrUjmswDAM0uWVXiPX++DKmZ++zLRLp3mmQSAcAFAwFBySbRd6aJnDiIIAwCgPu2Gfg3ZUMvbo0X/+n3Rzh3iGQWAcAGAl3dp6fs3ir5utHOLignCAADEq+bdXltn+WZqeW4BIFwA4LGI99ypzuzSSmFRMQAEuHj5u9XQFK83RTt7kGcYAMIFAK5G7YDZ9B/fkLbtiYNhJA4CQHDNePk1Uj7EF2b0zVzRLp7geQYIFwCAqzAezmoeQE8JdybafXWQida6gaJlDxE9Z6joG4aJnjtC9PxRoheMEX3jONELJ8ivRRPl102TDCbLr5un1Iz6NerXG7/P/P3q66ivp76u+vrrE80/T1s3WLS1AznoArgt1TDFzy+5VKS8CtdQYUc84wDhAgBwNnlQ/+FT0dLj7BettPDAjXZfG2/KjSlUucMN+RltitCvRZN8grQl2eAxZ9ic7ENJ2tWCljfS93c15EzPSfhNztR/C4diAMvbDLX0SP/fZ1cP9cXJlxbzvAOECwDAVtTD13gI62uGOSBagbRDS4nVoCtiNcIUF7PSZErVY97HlLMpvkqbkrOCsT55NCtnSeZ/t5aNmAH4tc3Q78vk+xuf2cdFO7bNN6PLMxAQLgAAiwMxDn8pWs5ERKterYCDfBWgvFGibxzvqxIFglj5Rc6m+Cp4FWI26krFLOlKxWyQT1A5VAPcEN2KapcSuS/eEu3SKZ6FgHABAFiBfnKXIQnPOLCsOMKbO7RUxcYQBbOao9oBkSv/sGmKWQU0WxlVtSzvypzZ1dUyDtwAZoiQJQFGGca9bfcac/UHz0ZAuAAA/IGKCd7ymr2BGF4ULeOgX169UlUas50OQXKujdGUsvG/zZdVkTKqZRAkEfKpVty7jXt03jTRTu3hGQkIFwBAQ5IHtW8+ED0t2mbRivSGaJULVv6oK3NXCJanpOxKMuNvlbKrpIzAD6DFsJat3sbzYcdy0Uou8cwEhAsAoNYUnzceoJ+YbSOI1jUBF6pFUB3MqWAFp5RVhH0wUwYeJNO6l2fmXO/JXTw/AeECAKgR9YbypyzRsxJsFS3NzaKlQi5U1WPj2MBJDgQ/z5TVJGWDqZKBC+e6+ltzP0+JEG3bYtFKL/M8BYQLAKBKxPveHNHXjkK0yoMu8q60CW6higX+qJRNuYGUMVMGdkfHh1pX7Vo/WbSTu3m2AsIFAKCVloh+oEi07AnB3TpYPouldmCRJAiOty+OrzpTlj2EmTLwSJhG+WxXjOi70kgyBIQLAIJ4l9bBLYZkTPElTdklWhkuEi0lWWar4DhmscBbu8rKl0hvrGGJNEIBtQ7TiLDw3m/c9zc+K9qF4zx3AeECgCChzLe0WM+dGpytg2oeK3e4cVgdz8EdgqBiVi5m16Qwrk80xOzqVkakI+jJiLL2OZBpXGsHNvMMBoQLAAJZtEpFO/SFT7RW2VfR0txQ0TIOlaoCwDwWQA07y66Ws/K9ZbnDr6qcDfGlMiJohGnUO1AjTLRv5olWcpFnMiBcABBYM1rqraK+IdlW0XJ8RsusZCnJmoBkAfi9pfHqVMZRV+bMiMknTKOWGM8j7dwhns+AcAFAAIRh7Mv37UUJlhmtinZBJAvAyYh8vXC8T8TWJ12RMETGe2EaYdY+L9SORxXYpOaJeWYDwgUA3lpYfEG03auDJ969PPiCmSwAd0uYqobljvDNjlEF80aYRlq4xc+OUNG+nc/OLkC4AMAjXDwp+o7lomcNsVe0nKhorY33RbiTLgjg2bZEn4AN96UqIjcuTjCMtP5ZkjdNtAvHeI4DwgUALo12P71X9K/niJYWa+8eLdtF68oy4oLRvhkSDq0AgUPRJF+KogrnYM+Y+8iMtv65sjpRtKPf8VwHhAsAXJQ4qKLdC583U58CuqKlEgbzRpoHMg6mAEHSfqhSElV0PfIVPAmGilTj+bIrnbkuQLgAwEEunxFtZ6roa0fbJ1lOiNaVuSxf+AUHUICgbj1U8qUqX8x9BUeCoQp52jpLtJJLPPMB4QIAu6pZJaId22Y+gPS0GAdEK8om0VItg0ONw9VYWgYBoPrKV/4o3z4w5CewEwzN6PjHRDt/hDMAIFwAYGUIxgmzmqVlTzCTnOwWLd0u0SpvGdxEyyAA1Hbma6IvcIMlzIGbYFg+13VsG+cBQLgAwI+oFooDm0Tb9JLxMIu2V7LsrGiZKYNJV6LcSRkEgIa1HFL1cgg7EgyNZ6G2N4fzASBcANDQlsHvRf/qPdEzBtovWeW7UDKjrH84G4ci1RJEyyAA+L/qNUH0DUkEbQRiguHK/qJ9v9D3vOTcAAgXANSK0mLRjm8X7eu5oq9Jsj756XqkhJoPSwIwACCgZr3yRoq2bhAyFEgJhgbappdFu3yOMwQgXABwHYoviHb4K9G/fl/0z4Y7J1l2iZZZzWJnFgA41W6YfKXdkMXKgZNgaLB+CmEagHABwFVLiVXwxd71om15VfTMQc4JVsWOkzDRsqKtnc2imgUArsIQr43jDPFKQIrsSDC0Yzfk6kTRT/3EOQMQLoBglSz91G7Rdyw338LZni54XdEKN1s+qGYBQDCjbxx/ZacXcmQdcfYkGKbHinZwC+cOQLgAgoZzh0T/4RPR141xj2SZ6U7hZpuHddWsJKpZAOA98Socb+79Q44sjI1Pj7ChPT5CtF0ZopWVcQ4BhAsgMIMvSkQ79IXx4H5e9NRI90iWmg0zHnSWiZbam6WSBjdN5uAGAAEgXrQaWkZGlD0pu98uIMEQEC6AQBMtfV++8ZCe6B7JqtihFWnRDi21NyvRbMdhbxYABF6r4Th2eVkZG29HSNTnM0UrucgZBRAuAM/PZx3YJHr2OHeJlpWJg+sGiZ43gmoWAASHeKlUQ+LkLUgwtCc2Xs+fLtrlM5xXAOEC8CSnfxF94zPm8kXXiJaVQRg5CcbBY6wZq8whDACCLk4+f5S5QxBZ8l5svJY9XrRzhzm3AMIF4KUFxfrOFDMNKeDns8oj3YsmcuACAFALlDcMN1uqESY/xsan2hAbvyZJtFM/c4YBhAvA9Vw8KXrB0+6oapltg1HWzGeVh2AQ6Q4AUJWiiUTJezE2PsMQ5aPfcZYBhAvAregnd/oWKzoqWv19se4WtQ3q64eag+IcqAAAahOsMZb5Lq/FxqdFm7PXnGsA4QJwGwe3ONtCqKpZGRZVs9YOFD13uPxaNIkDFABAfea78kaaLdhIk0di49Wurt1rONsAwgXgmsrW/o3O7NRaZW01S8Ud6/mjaRsEAPBLm+Ek2gy9FBu/KlT0H1eyIBkQLgDHOfK1/bKlFjZatjtrgG93VuF4DkcAAFbFyJNm6I3YeLWr0lyQXMp5BxAuALspLS2V7/PSpCwtzsZI9zDrdmeZbYNqdxZtgwAA1rcZThF9QxLS5InYeEPqvnjLTCDm/AMIF4BNHDl4UJKHDJAfZ3W1R7RU26AVke7lbYMFY9idBQDgSKjGOEI1PBIbr236j2jFFzgHAcIFYDWFG3Klzf0PyCfjW3h7d9b6JNoGASAg0DYlS/HGyXIxf5Kc2zCxEhfyJsnlgslSWpTs8mrXMMSpodJlR2z8xmdFv3yW8xAgXABWtRB+9O578s/b75SkNvdI2af9rOsXt2o+S7UN5o0wF3NySAMAT0nV5mQ5nztRdiwfJutmxcmip/rLzDE95In4DjIu7FEZ1rulJHRvLgM6N63EoG7NJLFnCxkd0lqSo9vJC4ld5L0pfWTljEgpmjtI9qWNNmTNEJ7NVLsCIjY+zYbY+Nypol06zdkIEC4Af8vWS088KffddLP889abZd+c7haJlkWx7rQNAoAHOZQ1RnLeipO3xveS8WFtJKp9Y4lo+4jfGdCpqTwe217mPtZX8t8bKEdWj2W2y8vSlWF9kJWWPUG0C8c4IwHCBeAv2XpuSrLc+7tG8t//9yZ5Oeohj1S04s20wV9pGwQAD7UG7vxkuFm9slKwbkS08eeqqtn8qf3km0WJcqnA/q4AvWAsSYYNjY23utK1dqRo549wVgKEC6ChsvXy9KdM0VI0vutWOfFhL/+lHqVbIFpqPoslxQDgIU6sHS8pL0XKxIg2EtnOGcmqCdWS+M6k3vLt4kQpKbRxL+GmyeztaghZNsTGrxkm2plfODMBwgVQXxbNed9sIywXrhkRD7o3ddCczxrJfBYAeIb96aPl7Ym9JL5LU9dJ1vUY2/9R+eSFcEMSx9n0fUo27+2qawGJqmdsvNXStXqo6Kd+4twECBdAXdmUly8P3nFnhWz985abZc873Rp2U04JNd+4+fVhsm6Q6PmjzL5/DnAA4AUOGKI1a1xPs3XPK6J1LbEdm8is8T1lz6qR9rQYFk4gUMPNu7oyjWfxiR85PwHCBVBbjh89Ku3+8WCFbCmGPnpPw27Gqn3wszgLRIsgDADwBiplcMETIaaseFW0rkXNmc1I6io/fjzcnkCN9YkIlFt3daXHinZ8O+coQLgAasPEhMRKsqVIT25V/6qWP9sHqWgBgNeW+25+TD6fP0RG9msVMKJVJWijQ2N5bVR3OZAxmhZDV8fGW7urS0sznveHvuAshXDxTQCoifzs7IpEwnL+fcetcmph73q87YrwXyhG+YwWogUAHuJi3iQzcMKJxEEVwPGf0d1k5oSephDZ8WfGdWoqi54KNRcuW7uzazwphvWVrnSLd3WlxRjStZUzFcIFANVx6eJF6d2yVZXqVmKbe+oe9Z4Z7cfUwRGIFgB4MhRjYkRbRypOTw7pKN+tGiYl3z1usmv1KHllbHfbUhBVNU9V9axOMVR7FpGoemD1rq7UKNH3b+RshXABwLV8/OFHVWRLsXBkU0daCPX1ScYDlXh3APAeX300VIZ0b267aI2PaCNFixPk8jePVchWOcUGO9JHGDLWyaYK2yPy9oRecnb9RAvnupJZlOzWXV0p4YZ0FXK+QrgAoJwL5y9ItybNqhWunW91qeUbrTD/tBBmD2FhMQB4ltx34s3WOnvbBx+RNycbcrN1chXRupYLXyXLiyO72vZ3Gx3SWrYtTbK2xdCc60Ki6r6rK9ra2PjUSNH25hjnjDLOWggXAGStXFWtbDW7+zbRVtRyt1ZDZUvNaeWPNoeiObQBgBdZ//YAienQxHbZWvRCWLVVreuxYmaU7THyqS9HmQEi1s11jTXb0BGpusbGW7wgOcU4H+xZy1kL4QKAuJ69qhWuhNZ/rZ1sNbR9cEMSS4sBwNMUvj/IkXCM5f+JkOJvH6+1bKlf+1RCJ0dmy9TurssFFt7ri9jX5cpdXavCkC6ECyC42bl9uzxwy23VCtfMuIetlS0V875xHIc1APA0qmVuQOemtgvM/Kf710m2FKoS9uq4Ho5FyD8Z31FOZVvYNr5pEmEa9d3VlWLhrq5VoaLtXkN7IcIFEJzMenFGtbKlWDO1dc0zWw2qag0jfRAAPM+R1WNlWO+WtovLsD4t5dwXU+okW1dL1wdPhTgmXRPC25jfN0uXJOckIFH1WpAcbql06TtTkS6ECyD4qC4KXnH/TY3kx+sFZqg0wvrObKlZrY1jOagBgOcpKZwi0wd2dERaVs2MqpdslbP7s9GOLkse0beVHMocY22C4fpEJMptC5KRLoQLINjY9/PP161u/ev2W+T80j7V79mqp2ypN47MagFAoPDx8+GOyMrArs3keOHEBgnXl58kOipc5dJ1MMNC6dqSbHZTIFH1WZBs4a4uFdKxM4VzGMIFEBwsmffBdYWr83/fVe2NUiUa1evmrRYYk0AIAAHC3pRRticSlvPetL4Nki3F3On9HBcuxbiwR+XYZ+Osla7c4UhUvRYkR1m4q6s/lS6ECyA4GDdoyHWFa+ij91SVrcwoWggBIOgp25QsTw92JulPzW4dyZ9Qo0yVbntayna9bvzzqWr/94tfJ8vo0NauEC5FcnQ7OZ870dKfmXrph0TVc0GyVbHxtBciXACBzuVLl6TDgw9fV7ieCvnHNYmEEfVKIfy1aCIHNAAIKIrmDnZETEb2by07MkZWI1FTpXTHC6LvWyj/73iO/O+5b+R/L2yX/zldVK10qbCNwd2bu0a4FC8kdpHSoikWSxeVrvotSI5BugDhAqgPB37ZJ/fddPN1hev9oY0rh2R8Vse5rewhzGsBQEAGZaiUPSek5PPlQyvL0/dPiLZ3nvy/E7mGYG0zJeta9P1LqgjX6S2TZWjPFq4SLsWHT4RYuhwZ6Wrgri7LpIuZLoQLIEBZm55xXdlSZD7e+reQDONGW+dwDCLfASAAKZgz0DEheW5YF7MdUEmTtuc9+Z8zW6uVrKtRVS5VASuXrW2pw2V06KOuky1FZLtHJO+deIt/hgRp1D823soFycx0IVwAAchbM16qUbi+eqXjlbmtaGQLAEBVRzY/JtPiOjgqJU8M7iifpzx93YpWFc5/J6XbnzVla2/2GEno0dyVslXOoK7N5JfUUdb+LImMb+CurjAL2wtTkC6ECyCQAjMGVyta9xpM7HqfXFret+5zW6qNENkCgABl16fDJap9Y8el5LXHk+R/ztdSuAzKfnxZir99XJ5O7Oxq2Srn8dj2UrxxiuXSpWWzHNl1C5KVdG1finQhXAABsvC4Vetqlx3PSXhEylb0q/ty43WDmdkCgIBm3uP9XNJ611henzZcju5cXzvh2vW65H842BOyVc6Sp0Ot/5kazywV7oRE1XdBcoRl7YXatsWc1RAuAG9z9swZafaXeyrJVtO7b5Ps6W3qN7e1diBphAAQ0Gibkl0XNBHdoanMmDhYNmbMlbMHiq4rXCc+f1ZG9GvlKeFSlcSfVoyw/mdrPLvUMwyBctuCZOMc8v1C0cpKObchXADeZN/evfLALbdVyFa3++6WHW92+W3fVkbd9m2xZwsAAp1ty5JcLSjxXVvKs2PiJP3DV+Tg9rXyP+e+N2XrwsECeTqxm6dk6+rWQpUKaflsXsFY5MmVC5IN6fp6riFdJZzdEC4A77FlY2GFbA1q+Vc5/mGv325wqeF1k60NwziMAUDAs/jpUM+ISnSHJjJtaH9ZMmu6PDYk1JOyVU7WzBh7AlGIi2/4guSV/a1JL/xytmilSBfCBeAxUpYtk3t/d5NM7/t3Kf64X6VdGHWa21KthIRkAEDApxMmy1SH0wmDlaE9Wsip7AnW/5xViMa6wYiTSxcka5tfMaSrmDMcwgXgHd6f+aosGN5EtBXX3NCMm2WdqlsFYziMAUDAc27DRInr1BQBcoj50/rZ87MunGA82+IRJ7cuSC58XrTi85zjEC4A96NfPisnMyZWfXuUEVm3m6pKJdySzGEMAAKebxclIj4OMqBzUzmcNYbWQi/Fxlu1IDlvmmiXTnOeQ7gAXMz5I6JlT6h6A6vj3JZZ3cofxUEMAIKCFS9GID4OM2dKH3t+3punEBXv8gXJ6hyjnT/KmQ7hAnBhZevEj6JnJVS9edV135Y5uxXPzi0AcBdqnrRoktkW9uvG8WZ6qmp71vNHXx/1vxeMNX79ON/vU7+/mrnUV0d2R3ocJqZDEzmxdrw9VS7j2kCa/CRdaRYtSF4zTLQz+zjfIVwA7qH45zzR0mOrf1NUl31b5WQP4XAHADaR7HvBUzTRkKhxPlHKHSH6+kTzXuSrRvh57mZtvPl19ZwEKVufJOP6t0J6XMDC6f1tkvdkqlx+3dVl0YLkjIGiHdvGOQ/hAnCW0tISOblloZStqr6XWsuMqt/Nkyh4APDj4dYUqsIJZrVJtSurORqfUA32LaVd61yQwemUGBnYpQnC45LEwvO5k6hyeVG6MixakKxeJh8o5MyHcAE4w8Xz5+TgmhlStqLfdW5SEfW/ceaO4JAIALWrTplCpVr9xvta+PJGmi9t9JyhvhhuJVQuPij+spj5LTeR89YA+6pcLr82vbery6IFySnGeWZXunH2KeP8h3AB2MfJI4dkz7Ix1785pYY17E0VwgUAlWanrm33S7Ku3c9mvpgdgui4iCfjO4q+2ab9a8a1jCj5e1dXtHW7ur75QLQyFiQjXAA2sH/n97J7QVwNb4LqEZJBQiFA8MrUpkm/tftdXZ0y2/0Cf2dRzsu9ER0XEd2+sexLs+kZVDQRQbJkV5eFC5KLZohefI7zIMIFYB3fFKyVvR/UsPvCuMHVKySj0jD5wGpTvADAg7NT16tO5ST4qlNrWQKb8kwPRMdlfPx8uG2fEy07AUGyakGyRbu6tPWTRTt3iHMhwgXgX8rKyqQgZaEcmNen5ptQZnTDB19zh3NQBfBSGEXRBF9EeqUwisBo97ODpVO7IjkuY3JUW9s+R4RnWL0g2ZpdXWoNjnZ8B2dEhAvAT5Hvly9L2pwZcnR+rxvEp0b65QZp7qnhMAvgnrj06tr9PBBG4RUWPYZwua6tsENjOZQ5xp7P2aZJvJiwfEGyRbu6UqNE+3kdYRoIF0DDOHf2rCyZMVbOLOp9g9jUCP/EuhoHOQ65AHZWqMrnp65N96M6hXAFN2vfjLWxrXAInwWrY+PTLNrVpWbFvpkrWsklzo0IF0DdOXrosCx4Il4uLutzgzc84f67IW4cxyEYwKr9U9cKFRUqV7D8iW4Ijgt5bXR3+9oK80grtIV0i3Z1KfKni3bhOOdHhAug9uzZuVPmTQqRS8v73mA3RViDEwkrWDfY18LEQRmgbjuoKoVSXLPQl0OW68l4vieC40ISe7Ww77NcOJ7Pgl1kRFknXauNe++x7zlHIlwAtUgi/OILmTumi5R80u8GshXqP9lS1a08ouABatxDdVWVqiLlj7Y/z7Px9b4Ijks5tmacbdVoEjsDY1eXnhop+s4U0cqY60K4AK5D3rp18sGoNlL2ab8b9iw3OP69UhR8vK/1icM1BCubrpWqJF9cNFWqgGfXh+HIjUvZNG+wfW2FqtWXz0NA7OrSVxpnpKIXRbt0mrMlwgVQOfY9ffkymT+ylWgrQuyVLVXdWp/EgRuCZsmvr/1v1JV5KvZRBTtnUmJkYJcmCI4L+fSFCBvnuEbyeQigXV0ma4aJdvRbzpkIFwQtZaWilV4WreSiaMUXJH3hXFkypmXt3tpkxfj9pqf61zmQQ0CFVVxdrSrfS0W1CqqhzODxqNYIjguZNa4nc1xBERsfZp10pUaKtm2J78zF+RPhggBGlbSPfC36zlTRv5xtJuno68aInjHQ12tcl+3qflhsTFgGBKZYjfCJldpPxVwV1JHFRMO7kifjO9p6P+Gz4GRsfLh10qXIfVy0swc4kyJcEEiCpe8vFP2rd31itco/5XJLZIuwDPDMjNVkXytg3qgr81WIFfhzjitMItshOG5jdEhrKS2awj6uYJGu9AhrpSstRrSfskQrK+GsinCBZ6tYP68zDoTPGh/oaL/fJLTMKMtucIRlgPuqVpN8VavcEVd2Vg1ErsBSSlbHyWORtBW6jSHdm8vlAvueUfqG4XweAjk2/spohr7xGapdCBd4ag7r2DbRP58pWlqsZTcHdfOx7G2ScZjlkA+O7rGqkKvhvqh15qzAIXJf64PkuIyYDk3kQt4k+4SrYAyfhUCPjS8/WxnnNrPaVUq1C+ECd2J8OPV9+aKvn+J7U2LlDcFC2TKFyzjocugHO6PXfW2BVypXyBW4iNLVcTIprCWi4zLO50607x5VNInPgpsSDC2WLpO8aaKd/pmzLcIFbhItbe8G0deOtP4GoMiItPZmZhx2zfYtRACsDLTIH+2buTLDLDhEgLv5fm6oxHRojOgEq3CpOS5zoTmfBdckGFoZG391kuH3i8zUaM67CBc41jpYJtrBz0XLnmB5Rcs22VLVrQ3DkALwr2AVTvCFWqi0QKpX4FGWTiWxMJiFy7x/8TlwWWx8uD1nr7UjjfPeFt/ICOdfhAts5OwB0YtetKesbaNsmcLF7i1ocAXrimDRHggBRHFWnLw2rD2y4xrhmmSvcOWP4nMQjAmG5ahk6aIZop3ZzxkY4QLr2weLRf9hhRkhapto2ShbqmWCdkKo+wzWJF+LIBUsCHAuZsTKjCFtER6HGdilmVzKtzlJt2gin4GgTTC8ts1woWiXz3EmRrjAEk7tvhKIEWIrVgdkVHpTlDsceYBaVLGuhFyoBEHmGiAIo+LfG9eJ/VwOMqJvKykpnGJ79Z77nYvJjLa36ygrwVz7o17Ec0ZGuMAvs1olou1Ms2SPlptky9y9VTgBmYCaq1i0CQJI2ZoBkvNybxnSrSkC5ABTotuJvtn++6C+Ponr3/UJhqE2ntP6i7Z+smhHv/PN9SNcSAM0YHGxmtWyWbSckC2znXAL7YRQuYVGzxspWvYQFgwDVMPhj6Nk5vD2EtWeBEM7eXVUd0fuiezj8kqCYZi9Z7ZVYaJtfjXolyYjXFAv9JM7Rf9suCOyZdvMFu2EcF3JIq4doLZsnxcqLw5pS5uhTSx9JsyxnYG8fPIChnSlhdt/dkuLDuoYeYQL6kiZb69WaqQzspUe6cgNinTCYJasST7JYicWQIPYtyRC5k/qLEk9myFGFlI0d5Bj90uzrZpr3RsJhhkOneNWJ4q+vyDo2gwRLqjbEuPvF9ncA3y1bEU4c2NSy45pJwyymazJ5kyWlp3AG1sAC9IMv3wnRN6f0EnG9Gsh0bQc+pVja8Y5J1zqvsk17q0wDSfOcyrAo/D5oGozRLigdpRcFG3LTPuWGFcpRYc79xZoQxICEhQki75xvG/wey2SBWBXquH+JRFmyIZKN5wS0UriOzeh/bCejOrX2vGUVq5rj5Flc4Lh1fP4abGi7V7tC2BDuCDouXxO9IKnnBEtRUqYOejpmHAVjEFGAr2aZbYMEmkM4JYK2J6F4VL4Rl9Z8VR3eWdMR3kmvo2MDWkhAwwZQ6yuz5zkPo7fU82dg1zHHpOuGMeky6TwOdEuHEO4IIi5eMKR/Vq/yVaoo7Kl2snUgRwxCTzUXJ7vYEA1C8ArcfOlBufSYs2q2La5obJ5Vj/Jfrm3pD7TQ5ZO7SofTOwss0d3lFeT2svzg9rK9LhHzarZ+P4tzfZFNT82tHszs4oW1zHw5O2LDxOcv7duHMf16snYeIelK3OQaIe/RLgg+Lh86qDoOeOd+/AZH3y1N8LRG1D2EOQk0JYSq+hiM8qdByxAsKBETbUvXsqMNSto5w1pO5caI6dTYuTYp1FyYFmk7P4oXH6YHyZfvRsim97sJxte7SOrX+xlVtkWPdZV5ozrJDOHtZdn49vIpPBWMrxXcxnSrZlEd3DHDFpizxZyucAFLwhZguzxXV0OSldKuOg7UwIyUAPhgmrZ+WWhnFg+wLkPnertzYx2PsUnbwSSQtsgALigulVmCFNJVqxcSo+RCylRcm5FpJz+OFxOLQ+TE0tD5fji/nLM4MhHITfk2CLfrz2xJNT4vWHm1znzSbicNb7mhVVRciktWoozYqTU+DPVn1tWTaeF+t/OZw6UY2vGyO6VI2TLB4Ml89Vo+WBqP3kxqYuMDmktcZ2a2jaPNu/xfu7pIMgbxXXr5fZCB89+ZlbA13NEK72McEHgUlZWJplL5sue93o6K1sZka648RAHHwCilTucEAwAr1SiDIm5mBptyo8SqEML+sm+93vLz+/0lJ/e6i473+xmO+rP3WP8+Xvf6yX75/Y2/k595ejCEFPWTht/z/OpcVK8YaxohVWrS+dzJ8nOT4fLullx8t6UPjIpUu0j839FTCU97lk10lXdBCrhl2ua9MJ6nwM3vSxaySWECwKPSxcvyqxnpsmONzs7+0FzMJGwShy88dBAXLwoWpNE3zCM+SwAN7NmgFlJUhUqJVY/v9tTds7q5ohU+U3O3u4he+f2kwMfRcjR5XFyMmWwnFs9TC6vHyOlBRNF35wsZ9dPlM3zBsv7yX1kTP/WfhGuFxK7GF/bZXOyuSO4xr28pys90nHp0oteCBjpQrjA5PSpUzJlyADZ+p8Ozn64HA/JuIqcBMTFq6JFRQvA9S2Cv8zp7XnBqgu73uohu9/pJfs+6C+HF0fLiZWD5GR6ouxYOlQ+fDJERvZtVS/ZGtilmexYPsyVHQbciz0uXanhzle6Nr8cEO2FCBfIiWPHJK57V1n/VBtnP1huCMm4+kaTy/yWd0RrCq2DAB5Dtef5R2S6m9Wx/XP7mO1+hz/sJ0cXXZnTuoJqAVT/XnFwfl/ZP6+P/KJaFY3ft/vtHmbb4K5Z3R0RwMOLo8z7mAq8UJWvpwZ1kqhaLoNWkuZK2aLKFSBV6DhnQzTKUTNdHg/SQLiCnCMHD0qvli1lxYQWzr/FcEFIRiXh2jgOkXF96mCyLwyDWQEAz3FuZWS95ErNdCmBUnNeat5LzX01vOIWJyWZsXL5SiDH2U8j5OSyMFPWlMSpP3PPOz2skS5D9M5mJlW6t/348XCZPbG3DO7WrFrRGtK9uSx5JlTObZjo+mRY7s/Mc/klSOPHVQgXeJOff/pJOj38L3l70L+d/zClRbjuJsP+LZfv0VLx7qQOAnhbulZEyi9zelWpLO0y/n8lOKoKpuRKpQiqeS/ViuhsK2ScKWXq762ETCUeqr/jntkNkzFVXTv+SbyUXRO8UVaULD+tGCG578TL2jdiJeftAfLDx8OktNA788V6/miudVoL/RIZrx3ainCBF2Xr35Lc434pW9HP+bmtz+LcdYMxDvK/bklGbNxI0URzvo6HIEDgzHOp6pISKlWxuqzi2LOqj2J373+Dr0J2fmWkmV6o2hZVsuKuOrYo7p7dUw4vjZEzGYlyKWe0lOSNl5L8CeY/L2WPlnNZw8zZr0OLDFGdGyI/z+kr+xeEmYEc7r1vJ7P7MBD2c610QWthRrxo548gXOAN9u3dKx0f+pfENPmzXFjax/EysZvmtire5uQMRWzcuLRYzWmRPAgAHhHJ4sw4OZsxVI4sizXlyJwT83cYh/E1i3Nd3gJfOIF7t9erXGkRLmgtNMib5skQDYQrGGe2WrSUtn+5Uw5/0MP5ua2MKHfeWAjMcFdLysaxtA8CgDfJHlKxYkSJkYqK/2VeiN+E6+Sqwd64j5svzLgevF3lCnEH25chXODuNMJ+j7aVB2+9Wb59rZPzH5jUcPe+ySkYg+i4ZXHx+iQedADgcelKqLLX8fKGsXJ0WawZF18f0VLth2ezkjwVcqStG8y14OlZrjB3CFdqpGjHdyBc4D7OnzsnA3r1lvt+10iWj2vu/IdFRcC7uD9ftT8gPC4IxSDdCgACBdWqvrnqbLCaz1KLkuvSQqj2eJXme/A5ZbYWci14lowo91S5sseLVnIR4QL3UFJcLGPiB8p//9+bZFrvB0RbEUIEPAmFLq9qJfJgA4DAqxAY97bqApl0Q8SOfxpf44yXqmgdWRpjVsY8/TJNrfLgWqCtMMhaCxGuAKesrExeeuJJU7b6PfhHOb+kjwsi4MNdflOJR3qcjA+mqgUAgSxdG66/qFjJlBKvgx9FmOmDKo1Q/f/nPxshWlGgvAhMNqt9XAsevX7dsAj56tbCM/sRLnCehe/NkXt/10geueNW2fV2V1oJax0Jj/zYHvWeTdQ7AATJoTXYg5k2TSYIyavXbkqYu6pcG58RrawU4QLnyF27Vh68406zurVyYgtXfDC0rGj330xyEhAgW6PeRxAXDADBd3DNHxXc9381z7WWe7/34uHD3SVcaj/YgUKEC5xh986d0vyvfzNla0LX+9zxoUiL8FCPPTJE1DsAAIm4locjcR0gXA1l7WjRii8gXGB/ImHvVq1N2epwz11y8qNetBLWqb8+CSGytJVkkrlYmgcXAEC8/Fo4Prily+xy4FpAuBrIj6sQLrAxkbCkRMYPTjBl6+833yxFL7SnldCPA81A+yAAgF9ZO9CcYw1q6drAvkV2cTWQDONscekUwgX2MP/t2WZIhhKulyIfdEkrYbi3biYIl98Tqcy2EdoHAQCuH9YUzOtINifT+UBKYcNf7n/zAcIF1rO1qEgeuuMuU7Z6/v33cn5pH1oJES7nh6JzSB8EALgh2UPMToBg7oIgrdblGOc5t8pWRUz8+aMIF1jHyePHpdPD/zZl6/6bGslXr3R0x9uGzKiA2pECdVheTIsIAAChTXWWriFcC24lM9rdwqX4cjbCBdYtNx4RE2vKluLlqIdc8qYhzKMPPEIzmNMCAHBqR9dwdnRlD+ZacGVgRoT7hculy5ARrgBgydx5FbLV7b675dySPu6obq2O9eYNJWco4lSf/vv80ebwNw8lAAB2dDVcuqh0ua6d0MXzW5X44i2EC/zLD99vk3///o+mbD3QqJEUPNfOHRd7eqSHh5cHI1B1CsQYa37PeCABAPgvLl7fOA7pYqaLdsJ6VbmiRDuzD+EC/3DxwgUJ69Cporr1eK8HRFsR4o6gDK/vRUGmarG4eBxvIAEAiIu3dqaL4CV3VF1TwrwjXC6c5UK4PMxrzz5XIVut/ni7HP+wl0uCMqI9f2NRy3mRquuJ1nhECwDArrj4YE4uJDLeHWTFeEu2yqtc5w4jXNAwvti0Sf55+50VwrViQguXXODhgfEmp2AsclVdRYs3jQAANs8VJ5jSEfTStT6R68GpazA1zHvCpfhmLsIF9efC+QvSo1nzCtmKafJnKVvRzwUXd3/PBmVUjYYfjmRdXdFCtAAAWFeCdAVhdSvam7KlSIsW7dJphAvq2Ur4zLMVsvWPm2+W71/vTFCGJcEZyVS0aB0EACC50FXSxY5He2e3Qr0rXGrMZdtShAvqztdbt8o/brujQrieDf2nOy5qFZSxJi6gbjK/Fk4IzodZwRhSBwEA3Hj4DfbkQipd9l5vGZGeli2TzEGiXT6HcEHdUglD23f8LSjjvwjKoIXDjwuL80aZA9o8ZAAA3JxcSKgT0mXH3q1Y7+zdutEZdVcGwgW15/033qyQLcXi0c1cEpQRFqAPtnhzD0hAP7SMB7eeO5yFxQAAXmp5D/bkQtILbQjKCA8I2TJZN1q0kksIF9yYn3/6SR75w39VyFbfB/8gxR/3dcebg9UxDCp7cD5LXz/U3DnGgwUAwGPPJuP+HexzxuXSRaiTBWRGB45slXOgCOGCG5MYHlkhW/f+7ibZ+Hw7lyTARAT8jSdgZrk2TTaHrpnPAgAIAOnKJU23YjkyAU9+bCWMC5hWwkrkTjXO02UIF1yfz9LSDclqVCFcSW3uISiD9o3at1wUjvelOq2lmgUAEFDSVTAG4bryQpEZZD9dU2nhgSdb5pk1VLQTPyBcUD1nz5yRzv965LcY+Ftulh1vuiQGPiMyeG5AOUO9tXhSzWbljeABBAAQ0CEa8cGZqFvtc28i88jBvHOrNnw+E+GC6nn9+RcqBWVM6/0A1S3HeuYT3S1d5S2DtFYAAARRiMagwA94qsv+SK4JWgmvR0oEwgVV+emHH+Thu35fIVuP3HmrHHi/OzHwTmLIjKsieVUly5QshoYBAIKWnARvdWFYKV35o7ke6tVKGBHYslV+fkW44GrKyspkRHRMperWazEPu+QNQWjQt3AoyXHk4ab2ZamZrNwRhmQFdvhF2ZoBcikzTi6kx8rZ1BiTc2kx5r8rWR3HAxIAIAhSdeslXcb3gmuiLq2EMUEhWwgXVCE/O1vub3RLhWy1+MPtcuIjlyw5zorh5nSljcMnXlMsFSzVn6+WEpv7RgKkP13JlBKpA8siZevbIZLxfE9ZMLmLvD68vTwV96hMDGspI/s0l6SezWRo92YyuGtTkyHdmpr/bniv5jKmXwuZFt1aZiS0k/fGdZJPnuwmua/2kR/nh8nplBgpzkLKACDIpCt/NMJFcmHdWwlTQhEuhCv4KCkpkd6tWleqbr2X8IhLlhyHc3OqruK1PtGXFrVpUsPlqmC06BuG+x4WAZIsWGZwYGmkZL/cW94f30kej2ptClRE20csIaZDYxndt4W8ZMjY8ie6yVfvhpjVMa5XAAhs4s0uCKSrPESDdN4bSnp6RNDIlv7ZcIQLfmPZ/AWVZKvlH2+Xi8v6uGTJcSw3qBsK2EBzpkrfkGS2/ul5I81KmBIy85+qWpU3wmx5UKLmE6vAS1Y6uTJa8l7rI7NGdZBhvZpZJle1Jap9Y3nMEL3Fj3eV797vL5czqYABQGA+gxr08i+QWguN5y7XRA0YZ7qgEK3s8aL/kitaaQnCBT5Onzolj97/QCXh+mhEU5Ycgyc4viJaPnuplzwT30biOjZxXLKuR2S7R8xWxVkjO8jmWf3M9kZ+fgAQUAFPXt0f6W/pUi82uSaqr26lhgW2aK0dKdreHEO0ih0/3yNcLuPNF16sJFvt/3qnXFjaxyUx8BxKoSpqVuqLd0Lk5cR2Et/ZvZJVE4k9msmccZ3khw/CCOQAgMBZZYJw+ZYis5+rKplRAStaR+f3lC+XTBet+IJrzvcIl4s4tP+ANP7jnyoJ16JRLqlupVPdgsqcS42RtGd7yNiQFp6UrGorXwbJEa1k7Uu9qHoBgPelK28kwmVGxY/iegiCnVvFH/eV94c2lqZ33yY9m7eQkuJihAuq8tSEiZVkq8M9d7mousVbf/BxalW0OQdlZeiFG0jo1lSWTO1qxtHzcwcAz0pXwVika3MyqYUBHJShrQiR9U+1ka733V1xhr7vppsld+1ahAuqLjl+8I47KwnX4lHN3HExZ0RygwI5kxIjS6cGvmhdy4jezc05LxVlz3UAAF5M0v21aAJVro3juBYCMChj35zuMrrjfxuC1ajSGVqRGB6JcEFlxg0a4uLZLapbwT6jtWZGLxnWs1lQiValhMN2j8jM4e3l2KdRXBMA4D3WDTJnmYJbuqhymdWttPDAaB/8pJ9ZmGhy121VRKsctc/2lz17EC7wsf3b7yotOVbMS2rsjjJtBgfMYEYtEVY7s4JVtK5FJRvmvtaHawMAvEdOgtlaR0w81S2vs+edbjKg+V+uK1pX89ITTyJcoElZWZkMj4qudHG0+IPau9XXBdWtUB5QQYoKjFgwuYtEt2+MaFWDqnapWTauFQDwVnJhErNcQbwMWU8N9/ys1sKRTeVft99yQ9H6191/kCfGjJUft21DuECTr7dulftvvrXSRfLO4H+748LOpLoVrFWtCaEtEatazHZ9+W4I1wwAkFzopSrXhiSqWx7kyAc9ZVjbv8m9NxCtpn/+q7z69DNy+MBBV533ES4HKS0tlYT+YZUvlLtvkxMf9XL+4k5xQXVLvYVid4ZtqP1TKubdzQuL3UZMh8ZmkqGac+MaAgDvJBeOCeK2wrFBOrvl3WTC/GfbSts/31GjaDX5019k5nPPy/GjR1155ke4HGTLxsIq1a3/RD3kkuqWc+1S5rLGwvHy6+Ypvn7zwgkMulq9UystRl4b1h6JqifPDmwjJ1fSYggA3kku1NVzNigXIU8yvgdB1lbo0b1bZStC5M0B/5K/N2p0XdFSCd8zpk6TI4cOufrMj3A5OLs1uF//yv2mt98iB+f2CN7q1tqBZmwrOzTs5eCySJkYRguhP1oMf5gfxjUFAB6RroHya9HE4EwrDLLuGbXex2uydeLDXjL00Xuun0B4860yaWiS7Nu71xPnfoTLIb7YtKlKdWta7wfcUd3KcuBNvSFT6q1TjTdJ48EQdG+lLGbHB6GSFMRx7/4mvnMTyZ9JiiEAEBfvZtR/d1AJV0qop2Rr2xudpcu9d19XtqK6dJUvN282ixdeOfcjXA5xbTLhA40ayY9vdQnO6lZ2gq99sDa91+uTeED6ia2zQ2RQl6aIkp9RyY6pz/ZgUTIAeAP1wrOWz+DAEa7BwfPzzYrxlGx9Nu1RaXznrdWKVsu/3SufLlosxZcve+7cj3A5wPdffS333XRzpYtoeLu/mXGXQVfdquONXvWc84BsOJvf6idxnQjHsIrIdo/I4se7Il0A4I0KSM7QoNrRFUwthV5ZdKzOwAuGNzELENUtMH5sxEg5duSIZ8/+CJcDs1tjBw6qcjF9/lIHF1S3bJ4/WTe47q0MapYryFoB/M0WQ7ZUuh5iZD1zJ3Qy0x+57gDAGzu6gkC6jHNHMO3i8kJYRskn/eS50H9WW9Xq9PC/pSA7x/Pnf4TLZnZu3y4P3HJbpYsp9OE/ihZss1sNGNalrbD+fPlOCLHvNjN/chcqXQDgjcP5hmGBHwu/cVwQtRNGu162LiztI2M73Vtlv5Y6K08fP0FOnzoVEOd/hMtmVEn0WntPndwy6Kpb100jrM3NMn8UD8Z6oBYaD+7KzJYTLH+iG9IFAN6QrtzhgS1c6xPZveUSzi7uLQNb/KXKubjd3/8pOVlZngrFQLhcxL6ff5aH7/p95YvqL3fKxWV9g6q6peeOaNgNkzmuOnPkkygZ3qs58uMQUe0ekXX/6cW1CAAeka4RgSlcRZOC6+fo4nbCEx/1kugmf6oiWyOiY+To4cMB5wAIl428+PjUKhfWu0MeCapkQj0noeE94pum8ECsAxczYiU5ohXi4zCxHRvLt3P6c00CANLl0P4tFQ5COqHzHF/QU0Ie+mOl8/BDd9wl89+eHVBVLYTLAU4cOyaN/+vPlS6uf99xqxyZ3zN4qltqbstP+z6CaeC1IZSuGSBvjeqA8LiEYb2ay7FPo7g2AYD2QrtbCfNGBtfPLj3CM7LV+V+PyFdbtgS0ByBcNvHeazOrVLce7/VAcFW3Csb6L9I1ezAPw1rw2Uu9zIhyZMc9vDC4rSnCXJ8A4J0gDW+nF+r5o4Pv5+bCdsLTi3pLvwcry9bQ0PCAbCFEuBxALWhrfd/9lS6w+37XSL6f2Tloqlv6hiT/3jyDqS2gnuxdFCEDu5BI6EY+m8E8FwB4KTI+0bN7uvS8EcH3M3NhO6EKyIht+lunl9pH+3zyY55cYoxwuRS1Ffva6pa66MpW9AuO6pZqJfTzFnslcDwEr09xVpxMjW6N3LgUlRZ59BNaCwHAQ6gZbD+NBdi1bytYX866LZ3w0vK+ktjmnkrzWssXfBhULoBwWUxJcbGEtGlXRbgyHmvlfHUr06bq1sax/n9jlTuch18NrHiqO2LjcmaP7si1CgDeYt2geu/QtI3Nyb71MWsHBufPaE2cq9oJ1VLjSd3uqzj/NvvLPbJx/Yag8wGEy2IKctbLvb9rVEm2Wv3X7VL8cd+gqG6ZbQi0CNjKwWWREteJVkK3E9OhsexZGM41CwDeYm286AVj3ClaBWOZ8XbRsmPN4OXohyqWGqv9Wju++z4ofQDhsphhkVFVqlszYx92QXXLhnYmP6YSsvy4dqjlui8ltENoPMKskR24bgHAu2Eabpjr2jzFdyZYR5iWr50w3DXCtXxs8wrZ6tWipbmPNlh9AOGykJ3bt8s/brujkmz985abZd+c7s5+CFbZVN3KH03ikM1snR0ikYiMZ4jr2IRZLgDwdIuhXjjemWrWxnG+eW7WxFRuJ3SJbBU8107+cfPN5tk3vGPnoEgiRLgc4rkpyVWqW8Pb/c356laGDQe87ARLY2RVOwM318pczoyTKSw49hxq3o7rFwC8Xe1Kkl83TbK+kmVK1rDgnc+6Ecb5zg2ytXt2V2nxh9t9IXE9esrJ48eD3gkQLos4dfKkNP3zXyvJliqrbni6rcPVrf62fOh/LZpgbczrxrHcWK8h97U+CIwHmRjWkusXAAJjtkstSvbXKIFKNy6cYC4s1nMSqGTVRnxTwlwR/16+ayu+dx85d/YsXoBwWcfC9+ZUqW51+ttdZjSmox8GG6pbviWJFrcTGDdhbq6VY+AnhLZEYDzK4eW0FQJAAInX+iSzGlWnGa9Nk8yXqXruCDOCnipWHVkd64rqVnkiYXS37nLm9GmcAOGyjrKyMunauGkV4Xp70L+dr26tifNsUEYliiZxc72KPKpbnib7P725jgEgMOUrZ6iZLGwmGyoJ2zje1xqYP9qsiJm7spCrhr/sTnd+99aS0c3M825Epy5y6sQJnADhsj4K/lrZ+sctN8uB9x0Oy8iI9HRQxrWtBrQX/EZyJLNbXua9cZ24jgEAwLO7t76b2Ukeuu0W6d2qddAHZCBcNlW3RsbGVRGuYW3vEW1FgFe3sofYGhGr0pG40Q6QbfNCkRaP82Tso1zLAABQPzKjHZ/b6vX330u7fzwo+3/5BR9AuKxHXWj/vP3OKsK17slHna1updtQ3VKtAjbGwqqlytxoB8ibIzt4Si5iOzaR5xI6mowNbS1R7RsHvXCN7NPcnMPjegYAgDqfv1KdDct4qt/fzaC47d9+hwsgXPbw+vMvVJGtVv91u5R+0s/ZKHiLq1uqB9vuPRwquSjYb7InV0bLgE5NPCUX7yf3lKNrhlXw4yeDZf7U3jK4W7OgFa6BXZrIhfRYDg4AAOCpsIzs6W3kX3fdLRvXb8ADEC57OH/+vLT/50NVhOuV6IecrW6lRdgQAz/RfuHaOC7ob7SrX+zpapGIbNdYYjo2rfTvNsyOqiRc5exemSDvTOphVsBq87XHhz8q0we2DwhRU1W+c2kxHBwAAKBuL7zTnAvLOPlRL2nzl7vlk48W4gEIl32sSU2rIlsPNGokP87q4mx1a7W1b85tiYGvNkI2uIMzygymxz3qatla8tZ0OfxDtrz3wgRDvHxi9PFz/aoVrnK+XhgvzwzpUGOroRKzQ1lJ5q/fsypBXh3VRSI9Ll1nUxEuAADwRliGyiV4rOf9MmPaE2Z+AR6AcNnG0NDwKsIV+cifHK5uhVse+WpLDPz1gjOyE4L2Rnv44yiJ7eje+SclWb+e/V7+98J2kx1FK2REWBezIrVpXmyN0nVk9TD5fH6cvDG2m8R3qVwhG9S1mexPT6z06w8b8vVkfHvPypZqCz1PSyEAANSFjCjHzpf5z7Y1zr2hUnz5Mg6AcNnHnl275O+33l5FuD4e1zywq1u5IxyTrWCf43JzO+FTI6Kl7NQ3FbJVzok9eTImsrtEtWssM4Z1kq8WxtcoXopfUodK1sxwmTOlp8yf1lsWP9232l+nBC2ynTeFK7FHM7mUSWgGAADU4QyWEurI2fLckj6S0LWlHD96FAdAuOzltWeerSJbje+6VU581Ms54UoNs7i6NdDch+WkcKnZsWC90c4Y0taV8jCoe2s5sTu3imyVs/ebrIr2wvjOTeWbRTeWrmurX9X9e9Vi+PKIzjKsdwtJ6tXC/KdXBGxSWCspW8PhAQAA3B8F/25iS/lqyxbO/wiXvZQUF0ubB/5eRbgmdLnP2epWlrUzIXreKGdlq6KtcEhQzm8l9XRnWETGR69cV7bKmfefKRW/fsETveskXDfiYGaSHMhIlIMGU6LbeEK4Xklsx+EBAABcHwX/0+xusnzeHM7/CJf95GRlVZEthepvdUy4Uiyubq0bZOuS4xrbCvNHBd2N9kxKjCvj4If37yTFx7+8oXDt/jJdIq+EYqhUwm8XD/SrdJWz9Jl+nhCuj5/oxgECAABqR1aMY+fLT14eKyUlJZz/ES77GREdU0W22v/1Trn8cV/nqluZ0da+Wckf7QrZMtk8xfg7BVda4b4lEa5cGLx41vQbypai9ORXMrBbq4rf99qoLpYI15rXIzwhXF+/158DBAAA1DIKPtyRs+XOuVFy4tgxzv4Il/0c2n9AHrzjzirC9XKUg7u3UkKtr25tSXaPcKkq14ZhQXWz3fFBqCvFYXvhp7USLsXgnm2uWvzbVH5OGep34VLtim6XrbiOjeVSBgmFAABQCxxadFy2MlQOb9/I2R/hcob333izimzda7DjTed2b6mYUEvfrBSMcZVs/RaeETxVrq/f7e/C5b1N5MTuvFrJln7mWzNc4+rfr5II/SlbWxcM8MRS5JcS2nKAAACAWla3nFl0XLblDfZtIVzOoHYP9G7Vuopw9f7HH5yrbq3qby7Cs+zDnj3YddWtiirX+sSgueEWvtHXncK1p3bCdXTneonuUHm/1hPx7a6bQFhX9qUlSmKv5p5oJ9zwam8OEQAAcGPUomNHdrpGi3Z2P2d/hMsZvti0Se676eYqwjU3sbFzwpURae2blY1jXSlbFVWutd6pcpWujpPjS0Ll6MKQgBAucxZpw5JaCVfOp29X+b0qwn3921F+Ea5tSwdJdPvGrpetYb2aybk02gkBAKAWZ7B0Z6pb+jdzOfcjXM4xffyEKrL1j1tuln1zugdodWuIa6tbXpvlupwRI3vf6yU73+wmu2Z1k+LMuh26t7zlzvS916cNv6Fs/c/5bTJ1aFi1v39E35by08qEBgvX9uWGcHVwt3Apwcyb2YdDBAAA1K66ZZzzHKlunT/CuR/hcoazZ85I87/+rYpwxTX7s3PVrfSI4K1ulbNpsrmQ2dU7tNYMkF/m+GSrnGOL6pZS982c/q6UiKgOTaQwY16NwrVm6es1fo3HY9vKz6tuLF0qSn7ljP5SNDfW3L1VvhT5l7ShMn+a+8My5k3szLJj8CyXMmPl+Ipo2TEvVPJn9pHUZ3rIose6yvvjO8nboztW8IFxnS+b1k0+m9FLvnwnRA4tjyQkBqBe1a1IZ86WX7/PuR/hco6slauq3b21fGxz58IyVscGdXWrospVMNrVN82zn0ZUki3F7rd7SElW7X9+uz8Kl0iXikRMp2aycu6LUnzsi0qiVXL8S/l0zvMS07HpDb/G6JBWsmF2lBxenVRJspRQbV82SGaN72Z8nd/2kA3r3UImR7WRMf1beSIo452xHaU4K45DBHgC9WJAyVXhm33lo+Qu8kx8G7MdNqpd/Sq7w3o2kxcGt5UUQ9LUigtePAC4tLqVEi7auUOc+xEu50gMj6wiW/+6/RY5tqCnQwON4VS3rpaunKGuvXEeWtCvinApTiytfZz/kY+jJMblLXODejwqMyYOlneeGyevJA+VhF5t6/w1lHi9PqarvDOphylZydFtXbl/rC4R8OqQWcYBAlzOhfRY+WJ2iHwwqbNMCG1p6Que5MhWkvlCT3OhO997ABfNbn0+kzM/wuUcRw8flgduua2KcA1v9zcHq1sxFle3HvMWmya5trXw2nbCcvbM7iGltax6XM6Mk0FdmnpWPIKNqHaNZcaQtvLzoggOD+BazqXFyMY3+sprSe1lUFf77y+DjT9z6dRuchrxAnC+urUqTPSTOzn3I1zOMf/t2dW2E6Ynt3JGuFLDqG5V21o41oU3zgHy87s9qxUus8q1pPZVrklhLZEZl6MOrW+O7CA/zA+jbQpcScnqONk2N1TeGdNRErq74yVOYo9msvY/vWi7BXCyupU/3TjzsncL4XKIkpISCevQqYpsPXLnrXJ6YW9nqluZ0UG5d8urqYXXq3DVdZZLHeSRGvclDw41DotvjOggBa/34U09uHeWNDVGMp7vKZPDW7n28/TcoDZy9JMofl4QxNWtWOeC2A5s4tyPcDnHzu3bq929Na7zvc58IFJCrX2zUjDGs7JlsjlZtJwEV91AD37Q97rCpThay8TCTOOwhOQ4z4jezWXm8PbmDIoKMymlkgUu5uCySHMuyystyeoFxrdz+vOzg+CsbqWFO3O2/GyEaCWXOPcjXM7x2rPPVdtOuGZqa2eqWxkWvv1bN9gUFk8LV3lU/LpBrrmBHlvcv0bh2jWru1xOv3Fl5KcPw82KCtJjc/BFpyby9IBHzfCLvYsizJYsDgbgdnZ9GGZWXt0etlMdsR0by4ZXe/NzhOBitYPVrR3LOfMjXM5x+dIl6dakWbXphBeX9Qm4Rceer25dTdFE14RonFsRWaNwKVQVrDbBGSP7NEeC7JjF6tJU/jO0nax/pbcc/zSalEHwDD99FC6vJLXzpGhVWjdh/P2zX0a6IIiqW6lhDuUCRIp27jDnfoTLOb7YtKnadsJJ3e5zaNFxpIXVrUGBUd26ep6rcLwhXfGO30RLV8fJrlndbihd51be+Oer9jkhRNYwoFMTeSWxnbnUlbhq8GLr4KyRHTwvWtdKl5qN5OcLAU9WtHPVrcLnCMtAuJzluSnJ1bYTZk9v40w7oZXVrfzRASVbFdK1cZzx3+e8dO2f1+eGwqXSDEtv0K6mZhuQIz+2LhkHOrWQdcOrfcxQAR784DXUy4EFkzubbXgB2dLbsYns+CCMnzUEdnUrJdQ54dpfwJkf4XKOSxcvSuv77q8iW03uuk3OLXGgnTDNwn0+awcGXHWrsnSNdVy6Tn8cfkPhUhy7QYCGik0e3594+IYQ3b6xPBH7qGS90FNOrKhdu2BpVqxcTI2SM5+Ey/EloXLkoxA5/GG/Co4uDJGTy8LkQkqUlDHjBTZw2bgXrJnRS4Z2bxYUQTUnV0bzc4fAJCPKuZ2uabGEZSBczlKQnSP3/q6Ra9IJ1TClZW9W8kYGrGxVki4H2wvVgf2nt7vfULhUgIY6tNf0tTJIK6xXfPvYkBay/Ilusm9JxA13ZKmF1Gr2TomUivX/6a3utRJmVaU8uyKSAwRYyvZ5ofJ4VOug+gwvmNyFnz2w5NjfbJ3FmR/hcpapo0ZX20642ol0QisXHZvVrSkBL1wV7YUOSpeqhNTm0L73vV6GEFy/SnIhPVYSguCttr/akd4d21G+nxsqJTdYqqraOc98GiEH5/etlRxfjZKys59G1PhzA/DHLq15EzubVdpg+ywP6daUPXfAkmO/0l+0Q1s58yNczqYTNvnTX6rIVtO7b5Mzi+xfdqxlWfeQ0XNHBIVsVVA4wbH0woup0bUKzzB3cy0MqfFrqXY4hKpmnolvI78sjqjVz0W1CNZVshT73u9tVsI4OIDVfDE7REYFeUpp1os9uRYCiXWDRd+QJHr+KLMLRT2ffYw3U5P13OGuWvESUDHwioyBtBMiXM6SnZlZbXVrdMf/DqxFx2vjzZ1VQSVc5p6uSeaN3pHwjLl9an2Yr+kgryLikyNbIVbVkNSzmRnnXlMAiapEqYqUEqa6SpZC/RxrkyoJ0OC1Eqkx8s6YjhIVhFWta3nMuOexosHLxIuek+AL6arD2cPsTskeHHjVLadi4Mv5/HXO/AiXs0xOTKpWuNKTW9lf3cq0btGxvmFY8MlWOZunGDf+obbfYM+vjKz1oX737B5SnHH96uaP88PMljkk67dlqXMndJZTq6JrFC0VYLL33Z71FK3ecn5VFAcnsIVtc0PN2UM+378F3qgZTK4Nr1WyBomeN8J82Vn/Z3ayeWYhKMOf6YQbOfMjXM5x7uxZafaXe6rI1sO33SKnFvYKoEXH8fJr0aTgFa7yG7hqWbDxJqvCGn6Z07tOLWs1pd6lPtODQIx2j8jzg9rK7o/CbyhaPyNa4AFKjM/8J092C9io94aw6unuXCNeahksGOPXFGR9w3Dvf1+cDsow97rGinbpNOd+hMt97YSJbe4JqEXH+vrE4Jatq2/gxgPBzjAN1SpYl8O+Ctu4btCDIXBvjw7eZcjJEa1k6+wQRAsCBhV//vygNsjVdVArHbhOvCBaY43nqxXrZpJFyx7i7VbCtHDnq1v50znzI1zOMmlo9e2EH49rbn96jIWJZ+ZgKrL1G0UTbZ3rquvs0ImloTXu5no5sV1QHbomhLaU/Jl9zErA9URL7cyqv2j1QbTAkbh3tXMKsaq5rVAltXK9uLR1UM1nbUm2/nnt8G7NepMV7bxsKX5cyZkf4XKOM6dPS4t7/ruKbN1/UyM5/qHN7YRp4da9XclJQLCuN9e1IcmeWS7jMF8XAVDphkogrvf1LmXGyesjOgR266DBpLBWkvNybzM05HotmyraXUXrU9ECr6Cu23X/6S0DOjGTWRu+fCeE68ZNrI33JR7buGLGrmd1wLUSlnPqJ879CJf72gmjm/wpsBYdbxyHXLmgxfDAB33qKF3da0zGU9WeZdO6BdyOHjWjNTW6tRS+0VcuX2+XlnFgPbsiwtyHhWiBlyg1DmGLHusqUe0QqdqydGpXrh23oF7gFk10ZsWL51oJI9whW5mDiYNHuJxlyrDh1QrXB0mNA2fRcfZgpKpWLQuTzAeJlTffS2nRpkTVRQx+equ7mXRY09f9dk5/Gd3X+8lmMR0ay8zh7c2lxTUug0W0wKOoSu2sUR2QqDqiQnK4flxQ1TLbB516Tic7tt7F062E6oV+0QzO/AiXc5w/f77adsIHGjWS3bO72rzoONq6NywqMQihqvUNXc8bZWm1Sy04rqsk7Hqr+w13QKkZh4+f7CZDujX13GFqXEgL+XR6dzn2aVSNLVhqj1b9RYsZLXCWS5mx8tqw9ghUPRjeq/l124rBjlmtgfJrkfNz4HanDAdEK6FiZwrnfoTLOXLXrpV7f9eoinD1+vvvRVsRIIuO1w3yazxrUAVqWJSKVJIVK7vf7lF36ZrVXc58cuN9NKdWRpsxymqXT6SLW5bUsuJ3x3aS797vb4aA1JQ6qP676zujpcJKWFgMzstWHLLVwDbjEyuiuZYcqWwNdKaFsNqFyGNJJawPJ37k3I9wOcf08ROqbSd8LfZhez8IGRYuOs4biTy5sNp1anlYveRBBWnUlF54bZKhWqK6YHJnMwXNaflSf756Sz1nXCf56t0QuZhR88xi6eo4ObksTH5+p2fDRGsNByZwfmbrjZG0ETaUbXNDuZ5sJ96QnPHueS5vmuT+71lmlLtkKyWC+S2EyzlKS0ul5d/urSJb9/7uJvnqlY6BsejYEIVfN01BnPww26XnDPVzu8GAerfGKQ4t6FfjcuTqdnep+OnFj3eVx6Na2xaykdCtqcwY0lZSn+1hLikurYX8XE6PMdsuf3q7e72+N+r7qvaecVACt6QRfjilC8LkB7Jf7s01ZXelJm+Ey5KFk23doVlnVse6q5VQjaysn8y5H+Fyji0bC6utbrX7651yeXlfGxcdR1h3o9wwDFnye5LhQL/9fC6kRJkVq/pKl2qxUyEc9TkAnkmJMZcHf/xEN/nP0HbmDFV85/rHU6toaxXa8ezANrJgchfZ8Gof2bckosZWwWurWWo+a/+8PvX+nijRUmEaVLTATXw2o5e53sALQqPuAW5OPF0+rRvXlJ2owC0XjiS4OThDTwlzV3VL8dV7nPsRLueYMXVatcI1rfcDARMFryoziJK/2xkmmyLrr5/RkY/61Vu4yhMMVYthWQOrpKbwpMbIgaWRZuJhwet9JfOFnvLpk91NKVuY3EUWPdbF/L9XPNVdsoz/Tf2ab4xfu39JpClwJVlxdRS/OLloSOeRhSGyZ3aP+n0PDDnbN9fXOliGaIHLUC1wXtqzNSXyUdn8XoSser6PPB79qES1c5d8zR7TkevKTnlw6ToZLTvBnd+v9Aj3SNaqUNHXTxFtz2eiXT7HuR/hcobiy5elyyNNqhWudU88amMUvIWLjtcnIkdW7wPxQ6iGCtCot2xcU91RFTP3t1f5JOvoov7y87s96/3fq6pgB+f39cR/MwQnp1fFyKi+zT3Xtjeqb0v5+eM4ObRqoGx4I1RG9HHPuokXBhMNb191a4h7u0383eLvl7ktd0TAX1zWV76bO0i04ztEKyvlzI9wOcu2b76tNp3w33fcKmcW97YxCj7GOuEqHI8U2RGqkT+6wW2GKoGvocJVMdtlSEh92gytpDgz1vxvPLygX4PlUqU7HjNk7XJGDAcicDVeTSSM69REfloWJ4dTBprsXBIrY0JauuLvlhzZimvLrmpNwVj3Ctf6ROa2ruHYgp4yK/5f8uif7pA3X3iRsz7C5Q7emvFStdWtxDb3BEYUvIvfTNFmWH2AxoF5ffwmXWb15wO1c8r+NjsV5KGE7/Qn4Wa75N53ezZoTu3qxMHTH4fXKSgEwCnyXuvj2WCKUX1bVMhWOZ/PiXBFe6GqGNI6bFMM/JZkFwtXkrv2bRnnOadE66e3u8r0vn+Xh2+75UrwWyMpyFnPWR/hckc6YUibdtUK16JRzeyrbmWy6Dgg2wxz6tdbrpL51HJjf0lXOaptT1WELqZG+VVW1MxXcUaMKXUq4v7IRyGmFNVnv9j1UNUwlVbotoodQI0rH1ZFy7CezTwrXMN6N5d9nw6oIl3TB7R1xe4+lh/bUN3KHeHuACsXCZcT+7bUntjvZnaScZ3vlX/ecnOlc+zDd/1eTp04wXkf4XKevbt3yz9uu6Na4Towt4f3o+BZdOx8m6FKMzR+DnX92anwC38LV6V2PENgDnzQR44v7m+2+KlZKtWaV5IZawqU+qeSKCU4ajZKRauf+STc3IWlpE1F0e+f29uUOH+KVaXqnCGdajZLpQ1SzQIv8v6ETp6PX38qvq3sWhpbSbiWTu/p+N9LrZk4nxbLdWYxblly7PYZLj0j0hHRGtn+b3J/o0bVnmP7tm7DWR/hcgeL5rxf7UXa8++/tzEK3rodQSw6ds+uEPWWsC77QlSgREN2c3mVXbO6my2VqmWwNIvDFHiXPQvDJbZjY88L16CuTSV9Rt9KwrXhzTAZE9ldoto7l7o42Ph7qTRVrjULWTfY/StaclyQUmhzSMaONzvLiHZ/k/tuql60ynlmIju3EC6XMLhf/2ov0pejHgqQRceTkR1XzXdNqtOA70VzN1f3gJcsFWdfLlklSBYECGqnXSAsGP7s1ZAqLYXnv50r/+/c9/LLt1ny2OD+CBfthA7Gwg9x9vu0OsY20do9u6tM7Hqf3H8D0Srn04WLOOsjXM5z8vhx+dfdf6hygd77u5tky4z29nyA0iyMgmfRsXvfyBWOr/VDQrXvBaJkqZks1ZaoFhwjWRBo7FwQ5uqlwXVB7eG6WrZO5EyR/zn/nfzvhe0ml45ulSeHRSJcgdhOWDjB9W379WnZ91oi4dH5PeXZ0H/KQ1fCMGqDCszY9vU3nPcRLufJWrmq2ou0+e//P3vn/RfFvf3//yBRE+NNvcnNNaaaKzbUSFGkSm8LoohSBJEimGiasSWxxN57b/SiYkEFTTWJpllij72h1N187vfxON99jxcV2V1mZmdmZ2ZfPzwfN/FGxGV35jznfc7rPE21mwJ1sOg4C3Kj9jZDHjHyrLVQytRCR7YKsiCNq+tDuZmwpnLMZAH9MivZXReyxdjwod8D2bpUMJyaLux6IFvN3DxzkJKCPSFceksnVPsMuPn7E9Kqr7VEQrZHa+lIF+rx7NO8RYvxVsdONGZYPNXU1KDeh3A5npzEJItv1NED/q3QouMw+S4EuxMgNJoRrxwy7U1uU7ourgzUmGB50+lF/lyyIAvcwCkWcBaubI3SzekWY/eskAfCdfubma1kq5n9BYsVF647EC75umT2jNTEGhaHyZa5hpPtYbyZHeP7kVfnZwWJltsbb9G8aZ/ThbPnUOdDuNQTB9/rlVct97xm9tZ+FPzBdIiM1qjObHP4l6UJ/rnAT5WCxZIKWWrhlXUhnGA1luIECzgnmyZ460K0hgzoTgk+Peng/HBOti6XJNHf1w9bFa7Gaz8oesrFYuFrEQsvXx2xP00D61cyHPPayChbx+cNovg+r3DjLXwkq0u7DhQXMJjK8wuorrYWogPhUhffHTpk8Y37Zof2dG6JjwJhGTIuOkYUvPZj5G20GbLIdhYuwRIMpVgiLObkikXKnzXLFTu9Yt8Li45vRGw7AFRfGkvpQb01L1vZEX3plzUGOrPl4Q6umiPzrcpWM5+mxSj2PaYE9MJ1x4nj4Ll5aHa/1MmurTvrB9PMmK6857Te6fQsjR2ZSD9+9x13iIDaHsKlSmZ8OtHiGzjo7Re43Qayn24VR8kYBZ8KcdFFm2ESrwXJbC/WheWBnARJJWDs67AdWOw07dyywdwiY/bn1GyP5HZzYf4KAMv8sixUF6dbVQvCWwRlsNmtv69W25Qt482faEy0cvu5MkNd8Z5z8ge33LoVjcsWqzn3T+xPg17j1z74n+deoKkfjOf2yKKeh3CpmoaGBgrq199yHHz0O4iCB5pMM2SwZcUskIK1HrLFySzh8K9VQVwa4IXlgx+yIpD7dSZS7L9h/y07qWKtgPcKoiFVAIhkda6XLoTr4LywFsJ1fe94s1Qds9lOuHRatrILmWP74T3nzPNbCi89lkO2rq3yp3F+r/NqH+z58r9o1qTJdO3KFcgMhEsbnD19mut5tfSGPqxEHHxhBKLggbA0w8pRjktiAgDwgrW3ZYW6al62ciL70vntcS2E6863syyK1n9rjtLvB9dRepSP4t/njCR3vO9km99K1UQLvlKR8KaCcMlPtco/6Et9X3qmTdHq/a9/08LpM+jmjRuQGAiXttiwfIXFNzWL3azZMBhR8ECloRpZXPokigEA1Mlfm6PI4KHtdMLJCe50alNsq0XHNw5MNMvVwxMu4/XvqO74JrpSkUMTYvs75HtdkT0Q7zun3b/VnFAo84NIGdII2akWn+XFPf75Cs38bBK3MxbyAuHSJMlR0Rbf3En9X0UUPFB/qAZOuwBQJQdmBWpatliU/b7ZoXQhL4474Tq5MZbmpnvRpOHuNGe0F32ePZyWf5FDkzOG0pwMf7qYN5TWjvejSAd9vwUTffG+k4U4bcxvHRyjKdliUe/7Pu1Pbq90sh2G8cw/aMr7H9ClCxcgLRAu7XLr5k2uD9bSm3xtag/5T7dK5dsZgih4JzvtqohHYQCAiliVo/35rSizdI0OdqXkgN7cP1tNCBzcmz4Z6uYw2WJUzw7E+04OKrTx8JZ7+CjXa1AWI+lSY7bA+LPQt2yearFRl4z4BPrzxAnICoRL+xzYvcfqm/30Qm95hStf5ij4rxEF73SzXTySDAEAyjBx6Hu6WXasBU6tCcf7To6Ht/tSnDswo9TAhZtJVfv9NseLAt583uapVoyvH/3w9dfU1NQEUYFw6QN2TGvpze7xr39oPAp+FATEWZMMub1daDEEwNEk+/eCCClEjKcL3Skw4H0nS7fMGE08cLS1r1I0JVGS1XxNW4No05he1O2Zp6yKlvtb71DBpk3UUF8PQYFw6Qf25MCvV2+Lb/oPA99AFDzQdouhQmlNAIDWsOJ/yIDukCGFSA/uTQ1YeizP/JYW6omqTOlFsyhC0iXGub5d6DUrce9vP9OJvvjoYyQPQrj0yanjx+mNpzpafPOzeE5ZhatIxij4PYkQDnA/sQkphgA4hAsbI7nQCciQMnw+wg3vO1nGE+Kdb36rnM1rSReOcXL+IPJ/43mb7YO/HT0GIYFw6Zf1y5ZbftLwVHu6stJPu1HwWohvBcrNdZkFHIUDAMpyfFU4REhBNk/wxvvOiXd5SvZwUeJ5rfLx/cjlH09Z3ae1aeUqamxshIxAuPRNiiHG4ocg9N0XZV50LONgb8VwSAZoHR2PMA0AFOXHxSEQIQX5dn4w3ndyCNeB0Rp4sJgjzd+3WLp5rYYtQTR7yLv0RrvWKYSvPdmexgyLp4vnzkNCIFz6p76ujro9/6JF4ZoZ01W7UfD70yAYwHLLBaQLAMU4sgjCpRQsiv5mXuv7an1xDDWUxOD9aE/HTHW2BvZvpdv/dy2KlHReK83z39TZQn3p+mpnKty8BemDEC7n4ZuqKqv9tNWT3WWMgpdx0fHOodyTHsgFsC5daC8EAMKlL8aEuFr8GdzcEk51xUgu1Pt6GXsfJpoKpQvHOLfEh4LefsFibZk2JA7LiyFczveXnjHxM4sfiO7/eJpurQ2Q73SrJFrGXRnJkArQdnSuXLtKAAAQLgewOGOA5eCS5YFUD+HSdwAXu6fZkcjLRjykqu9++NKT+r30TKu6knVTbV+/HrNawPmEi73pIwZ4WRSueNdXtBkFr5Gjf6CS9EJExgMgb2jGyjDIkEIcnBXY6vVvKI2hk/N80VKo8/ktU1WGKmSrfHxf+o+F/VpRg7zpxO+/QzaAcwrXlUuX6K2OnSwK1+KEbvKdbhVFyndx3J0AkQAO3VkCAHjI+Q2IhVeCWM/udG1b686RG5vC6PgcHwiXPQ9xD2lgfmtfskNly7gtmNal9aQ32rcMx3i9w9M0/ZNP6d7duxAN4LzCVbo9z+r81s8zB8gnXDKebpkOpEMigMAbVQqKCgBk4lY+Fh8rwYSYfhZf/9OL/OnEXB9qLIVw6Xb/lsh2Qqlmtpq2BtFXQ96l155o1yruvXLXLggGgHBNGJ1uUbZcn+9I9zYGai8Kng22Hs6FRABFe98BANZpMpPo1xNSJDN5n/i0eu1rtkfSH7O9uZbCxrJYvB91OhMuqp1QojTC+s1B9HHQG63qyFg/f8S9AwgXo6G+nga+282icI1yf1WTi45NlSmQByDuhnVgNIoLAGTi4yH9IEUyEu3hQmfXR7Ru51w2mBOuU/N9qakc70NRdcXBMfpLJ5Roz1btpkDKHPRai/qxS7sONOX9D+huDVoIAYSL48Rvv1GX9pa3fq9K7i6PcBXIGAW/I04TfdZAzadc8SgwAJCBZVkDIUYyMi6yDzU+JlT3CqI42WL8udAP70NRK2bi1N81w5Yd7xzK/+9UEi1JPce6oEa5/7tF7dj1H89R4ebN2K0FIFyPsm7JUqvzW7/P8ZJp0bGMUfB7RkAagH1PCfenosAAQAb2Th8MMZKRwom+rU+3lg9+IFxnlwTgfSiqrhipr+6MMgOXEi3FQuPhfV5pUTd6vN2Vfv7hB8gEgHA9TmrsEIuy1fv5jjItOg51+mN/oIGY+B1xKDQAkDqpcCOSCuUixtOFrmyNavF6382PouNzvB8I14UVgXgf6jQOniUz8/r7lMdKJltxvV9uUTfG+PrRpYsXIRIAwvU4dbW1XHqMJeFKH9BZntOt4iiEZQD137wqElBoACAxDWWxNDqoNwRJBr4c6cYFkzz6ep9b+vB0i3F5TTDeh6LaCXPUfc+qzuYvW/lhdtdxNUy2erWUrXEpo6impgYSASBcljjy7bf02pPtLQrX2tSemlt0bKocBVkAiIgHQMUsyRgAQZKB7xe0lKk7/0smfJTrG8LwHtThmALf3VtS7Nqq3RhICX0fthGyDIA5U6ZSY2MjBAJAuKyxeOYsi7LV5cl29NtsGea3iiJkXko4FrIAJOqHT0exAYAM/LAwBIIkMWOCe7dIH2T/zPZuPS5ct7dG4D2ot3ZCvmEZEiQSsjRCll7dXCu+/Uwn2rJ6DcQBQLjaIj4oxKJw9X3xGWrcGiTDomMZo+A1MNQKtDTHlY1iAwAZqC2JpSTs45KUHdP8W7zGNzaFtZItxr2CaLwHBbUTDlV9OyGvkKdSgyR7trK8H0a/u7zwEu3buRPSACBcbVF77x690+lZ5ea3CsLlfQqFsAwg9RzXTgRnACAHK7IRDy8VSf496W7Rw4eZDaUxdHK+byvZYuEZjaVYeiyortibqP01JhKEZBi3BdMnwW8+qBFdX+3MjaRAGACEiwdfHzhoNQ5+nQzzW+wJi3xhGfHmiw/CMoDETw53IzgDADk4vS6CIiFLkpD/acsoeBaMYel069QCP2oqh3AJGlOoytB86zt72G2vbM0d+u6D+tD9rXfo92PHIAsAwsWXryZPsShbrz3RTvr9W3JHwSMsAzhwEBkAIJxP496DMNlJSkAvulNoeGTJcTQdn+NjUbhYYiHedwKoUP+DXGPF8DbmtiLtrt/Wp/Xk6kJWH/r06EWnT56EKAAIF1/Y9m+Dj69F4er/z05UtzlQ2tOtEhn7xllkK8IygCy98WkoOgCQie/mB1OkG6TJrtmtqf4tgjLYYmNLssW4sjYE7zshD3L3p6r7/nRwTNvLje2s3XZM6Edvtr+fZO3bsxddPHcekgAgXEK4eeMGvfvs8xaFK83j3xJHwbPTLRmj4BGWAeSiKhOFBwAy0WgWhPGGvhAnkeRE9KG6ktg2gzKaubUFCYV62r1lsnW6xe3bCrWrdjsy3ZO6PfMUVxcG9etPVy9fhiAACJdQDuzeY3V+a1VKD4kXHUciLANoNKlwrPk9huAMAOSC7Y6KwimXYNjJ4JFFD0+s6kti6MRcH5vCVVdkwHuOb12xL1nTs1umwgi76rYLy3yp30vPcDVh8HtudOXSJcgBgHCJYfonn1oVrqOzBmpm0bFx1zAupQdyAORLKhyKAgQAmWBtcF8mukOiBPJVikeL1/HCikCbsnVyni/eb7yJo7+rs7WbTFgabVfddmf9YArt+uKDNkLIFoBw2UHEAC+LsuX6Qke6tzFQM4uOEZYBkFQIgLa5sjWKRvhgLxdfEv160vXtD+eiWaugLdlinF+OwAy9RMHb3LtlZwQ827+a4dUZM1sAwiUF165cof8894JF4RrR71/SthOWxch6YURYBpD95ma++aIIAUBeDswKRIAGD6LcXahqduDDnVslMXTKws6tx7m+MQzvM96nW1nqbnO30XVhKrQvAn7h8G7U+Yn70e/nzpyBEAAIlz3sr6iw2k64KKGbdhYd7xkBIQDyC1flKBQhACjA0swBkKo2WDDak2vDbH7NLq4MbFO2GCwuHu8xHZxu7U2y/v2X2NdKuOfj9+iN9u2pT+fX6I9ffoEMAAiXvcz4dKJV4fr2cw9tLDrmwjLSIQQA0fAA6ASWuPfZUOzmskZ2uCvVFD7sGrm1NYKXbLETsEclDWhzdstUlSFbK+HZxT7U49mnyeXFf9KRb7+FCAAIlxREe/tYlK23n2ov3f6tfJnbFxCWARTbdZKOQgQAhbhdYKAPohAV/zjxg3rQ+Q2RLVoJWRAGH+H6a1UQ3ltaTyZsIyjDnlbCuxtYSMYL9M4z/6ADFbshAQDCJff+LUOPf2pj0TF3YUyBDADHP1UEAEjOjbxoeh/S9YBYTxf6fmFwi2RHFoLBR7YYd7ZH4n3V5t6toareu2WqTLGRSih+wbFxWzB9EvwmdWnXgfI3boQAAAiXVBzcs5c6P9HOonDNMHSV6HQr1LmHWoG+ML/XUJAAoCx3Cgw0Ee2FFO3uQnu+DGgppG0sOH48Dr6xLBbvqbYe4u5PVfc9aGecLAuOi3P70Ovt2tO8z79A8Q8gXFIye/IUq/NbbGBSmkXHUfJeHHcnQAIAhAsAJ5jpWpwxwGnTC9lC6NIpfi1ek9pCQ5sLjtFOKJCK4eZrvVpHFHK5mseqKBZFiq7VTi/y5ua2xqWMosbGRhT/AMIlJUP8A6zOb11Z6af+RcfsAnNgNCQAKChcmShIAHDUYmQze6cP5maYnO1kq3yq/2NLomPpzGJ/3rLFuJsXhfdRWx0zVZnaDG0qixFdqzVsCaKIbi9R3OBAunf3Lgp/AOGSkvq6Om4o0pJw+b/xvESLjiOdus8aYIYLACA9FzdF0qRh/Z3itGvIgO60f2brRcWX14YIkq3TC/2RTqjloIy2dm4VhImu1eYO/Q8NfLcbXf7rLxT9AMIlNd8dOmS1nfDDwDekaSeU+3RrbxIkACgrXAdGozABQAWwWSQmIqmBvXUrW0l+PenoktZz0DXbIwXJFpYd82kljFd12rFpz0hZdm798KUn9XrpRTr2408o+AGESw6WzPrKqnBtz3a1X7gKI2S/QLL2LkgAUE06FABAce4WxVDBRF8a4dNTV7L1cWw/urSldQsgi4Bnu7SEyBab82osRViGVusJm+tI7Ni5VbN+MA1++0Uq2rIVxT6AcMnFyPBIi7LV5cl2dGqBt/2nW2UxCgy2QgCAwje+3SNQnAAgIbWF0dRQav/94l5xDDfnlBXmqvHY9+609SMfarCQJshFwC8bLPh0i7Uf4r1mo1umUsWphIdzuF2j1oMyIkTXaZPD36LPP/wIhT6AcMnF3Zq75Prv1ywKV/+XO9m/8LgwXIHY1jQIAFD+xmejhx4AIPKUKi+Krm0I5eTL3q9VXxpLPy8JoXlpnpTgo61wjQmGfnRilfX759X1oYJli51u1ZfE4H1mrZbYM1LdD/n2JskSlPH1VA8aERyEkAwA4ZKTX38+arWdMMX9VftPt0oNModlxHEDpJAAoOz8VjoKFADkmskqjaHLa4LpwvJAbjmvFAEPdwoN9M28IFqYPoBGBfSiKHcXVYpWgncPKpviz8mi1b+L+TU5PscHp1tSsite3cFbbYQ0mQrCRdVotZsCabhndzp/5iyKfADhkpP1S5dZFa6lI13sE66CMKd/IgX0ia39JwAAiU678qPo9CJ/+nOhH3fq1SDR6UyjWeBOr42gHdP8aU6qB2WEuDo85TDW04VWjvWi69ttn+zdK4gWtG/r0UXHUrRr6hL24LY6S8UdFblckIfV77/UYEcqYTfaX1GBAh9AuOQmIz7BqnB9+7mHuk+3mHAdHAMBAAoPLY9BgQKAUvu2zHLEZItJBjvVubCi+dRL2uCHmsIY+mVZKDf7tSJ7IE0Z3p8yQ11puHcPipT5RGt1rhdd3dp2CyWTLSZOQmWLcWNTON5PGq0jTJWjbH//+aGiarTf5njRvCmTUNwDCJfcNNTX04Cu/7EoW+927EB31g8WL1z5CsTO7hqm6uhWoNPZrV3xKFIAUJj6YgNdXBlolq77AnFqgS9dWRvCSYhcO6XYSRgL4GCnTidWh9O384Np9xcBtCRjACdjMZ7i2hKHenWnKfH9ac+XAXSngN+DSRb/Lla2zi4NwN4tqzPgqeq+51Rnc0uYrcfAR4lecDw7I5pq791DcQ8gXHJz5tQpeuOpjhaFK+zdF8m4zY7TrZJo+S+UlSkQAKDw/pNEFCkAOJCavCg6s9i/5SLfRf50bX0o1RUZFPs+mIyxU6nvFwTT9o99aG6aJ30U24/GBPfmAjqGed0nyb8X5Ub0oemJ7rRpvDcnbTfzhX2fbG+WmJmt5qAMJV8XbS03Vn8NYTMN144Y+D2TfOjEb7+hsAcQLiUo2bbdajvhZ6Fv2XG6FarQroxsSABQ7sa3D3u3AFBLm+HNzeEWd1AxGWPyJUXKoRpO9c4vHyxKtNBK2IZs7U3SQDjTaNt/j+JIUTXazbUBtC9/A4p6AOFSioljc60KV/G4Pqo+3WKhBZAAANkCwInTDMtiObk6YaXV7s8FflzaIWvHayyL1dbf639za/bI1l+rgvA+sShbiebrusrHEQ6Ntb16xI7Tra9XjaOGhgYU9QDCpRRB/fpbFa7zS3zECVeeMqdb7MkPRAAokQ5lc/cJAMDhsPS9K+tCbArKiXk+3KJg1p53rzCamlQoYOzvcX1DmMWTO6GcWxqgKcmEbAnYuWXHkuNrG6Lo2uW/UNADCJdSXL96ld7p9KxF2erzQkfxp1vFUcpEuKp5XwbQB4fG2u6fBwCoqwWvJIYL0mBy1WZMullqWLseO0li8fONpY6RE5a2yJY9s9OoE/PsF63mmTZEwFtrI9RA0FZVpu2/i9jTLfPvufPbLhTzAMKlJFV791HnJ9pZXnjsJnLhsfnDbCyPVegJFYQAyHzD2zUMRQoAGj3xuro+VFCqHwulYKLy18og7hSMtSHWl8gjLSzEgs2gsT9LitOsFm2UC/0k21eGgAwH7XmsGC7L6ZZp/0dkbGpCMQ8gXEoyb9rnVtsJFyd0U+/pFrvYVGVACIBM5La58wQAoJFwjbJYurEpjBMpsQLD2hTZ72enYZfWBHMnYkyW7myL5E7GWCw9E6hHYYEd9wqiuH1hN7eEc3Nm7ATr7JIAu+eybMa/m78+TrYsRb+naWde2Py9tnm6JXZVzzWkEgIIl+KMDI+0KlzVk91Ve7rF7d76Gru3gBz7TrK4MBYUKADoL9WQnVhdWB4oOl7d9ulYS+QSqrYCMjCz1Xr8wHQwXVNt7DaDMuw43TIenm6u/XC6BSBcitLU1ETdX3rZomy983QHur7aX8TpVqQyT6oqR0EMgPSnWvtTuZszihQA9L9AmZ04sdY7R4iR1LATM3bihp+thYez1ZnaSsNtK6CJO90SMbtVYK7Pbp5BEQ8gXEpz/NdfrZ5u+b3xnHpPt7B7C+BUCwAgBeVDuJZA1iZ4UuI5KqVgbY51xVhq3HptzAjutEhzc8M74uSZ3fp2Dgp4AOFyBFvXrLUqXOMDXlft6RZ2bwFJ494rU9q8wQEAnES+8qK4nV1aOPlis1qsRRI/O0tdMCma7LIwViTIk0zITrdqLqOABxAuRzA+bbRV4dqY3ku1p1vYvQUkaduoyjDf3OJRnAAALM57sdALtg+L7e06Oc9XNa2DbAatJi+SE0T8rFq3EJoOjtHmPclc27RZ/4g93fphEYp3AOFyBI2NjTS4bz+LstX5iSfp2KyB6jzdwu4tYPepVg6WGDsANshfV3KfBvM/N6FYBBp7/7IkQhYVf3FlIP25wE+W4A2Lu8Lm3d8VdmNTuGwR9bo41dozUnsthI90W7S5gsSe063bF1C8AwiXI7hx7Rq91bGTReHq+dzTdGf9YHWebmH3FrD3CeKuoShO5A4kKI2lY0tDKf9TX5ozyoMmGPpRRogrJfn3pES/njQ6qDflRPShL0a60bpxg6h6diDdzMMMCtDeni82/8XCKtii5QsrAunMYn/Rs2BMrM4s8ue+Dvt6LEqenbI1lSN10PaD2KGa73zhtYakKBKzWwDCpcWFx9baCaNcXlLl3i1OuA5i9xYQE4qRTabdI1CYyHwC8P3CYJptFqyhXt0pon83QUS6daPxhr5UMtmPbmyPxmsKdCFkbB8XOxljs2GsDfBR2K/Xmv9/tqAYJ75iT7UStXuq1SIGvu05YlGnW/kRZLx5GoU7gHA5igVfTrcqXFPC3xZwuhWq2OnW/d1bkAcgNBRjFKLeZT7N2j9zMGWFuXLSJFS0LDHMLGxLMwfS5S1ReI0BALqa1RIcA88ojhK3d+vQNOzdAhAuR5IcFW1VuIpy+6jzdGtfCgQCCIvXrRiOwkRGTqwO59oFI/tLI1qPEz+oB+V94sPNfeH1BgBwS4xZAqFeZrnZShIeKbmm/FARwhVCxqu/omgHEC5HUVdbS25vvGVVuE4t8OY/u6XghZZdmCASgFcoxr5kRL3LnOBW9JkfxXi6yCJajzPB0JcubkL8NQBO3T7I9mrpbAcnr1b3kmhxs1v7PiBjUyOKdgDhchR/njhBXdo/ZVG2+r74DNVuClTd6RY7qYBMgDZvXgfHtJ30BOyCnTbNS/NURLQeZbh3Dzq6NBQ/AwCcsn0wXZ+rSfiIZkGYOOE6dxAFO4BwOZKSbdutnm4N7f2y6pIJuQvO/lQIBbA5dMwSLFGcyD+v9eVIN8Vlq5m4gd3pm3lB+FkA4Cztg/tSdLsKhlfLe5lBnGyVjSRjUwMKdgDhciRTx0+wKlzTDe/w+zAXRSp60dV8ChGQMeo9HadaCrURLhozwGGy9TBQowf9ujwMPxMAdN8+mKXvbgw+r0NhuDjh+m0LinUA4XI0UYO8rQpX+fh+/AYxy2OUvfBCLECrU60cbtElihNlqPg8wOGy1cyowb3oOqLjAcBOLU2Sy+90iy063i4iCr7QfG28exXFOoBwOZK7NXep2/MvWhWu80t9eXyYw5V90nUgHXIBWp9q7cQCY6VggRVidmvJyecj3PCzAUBPp1p7k3TbPtjq/sXn9SgWt+jY+PV0FOoAwuVojv5whLq062BRtno99zS/D3OpQdGnXc5wAQYCZrVwqqV4K+HMZHdVyVYzX8/FPBcAmoeFYlVlOsl9LJf3uhJRi45ZB9KlH1GoAwiXo9m0cpXV0634Pq/w2FoeqvwTL4gGQAKhwzi1JpwMHi6qFK5xkX2poQw7ugDQ7k6tUdyCeqfqzuDz2pSKjILflUbGxnoU6gDC5WgmpI+xKlwzYrqqKwqeCVdVBmTD6fdq5f5vrxYKFEewNHOAKmWrme8XBOPnBAB2amnkdCueZxS8yLCMXxGWASBcqiCgT1+rwrWjzcAMZaPg2WkGhMPJqc7i3X4B5Nm5lejXU9XCNSvZHT8rABCKoZtkQhZKJkq28sPJeOcvFOkAwqWGwIzXOzxtUbZeb9eO/lzora6wjH3JEA6nDsYYzbWcoEhxHCx+PdKtm6qFa4RPT7pbFIOfFwBqP9XaM9KpV7zwnt0SGZZhOvCJudZrQpEOIFyO5oevv7Z6uuX6Qkdq3BqknrAMM3rewQFstRDmcLN7KFAcT/EkP0HyE+nmQolBHjQq3IsMnsqdjP2xEnu5AFD3qZZzpw2z8QjeYpofKi6d8M9dKNABhEsNrFywwHpghmsbgRl5yoZlsD5nyIczthBmo4VQw/Nb25ZMJtPNn+j/3f2F/vq9gmZ+kMRJmNzCtfuLAPy8AMCplnqFa/cInmEZBnGnWwWRZKy7gwIdQLjUQE5iklXh+jL6Hdsf5qJIZS/SlamQD2fsb0cLoaqYkcQ/Dn5yxlBOtB7lvzXHqGz9LIr26CGrcG2e4I2fFwA41VLvLDLf2qdQXFiGsXoKinMA4VIDDQ0NNgMzSt/va/vDXKbkjEQc/X0oGxdpZ5KtylEoUFTIlOH9eUvPt7vWtBKu+9L1C+3YOJsi3eU76Vo7bhB+XgCo5lRrBE61Hr2/8W2RL48VuXvLzJl9KM4BhEsN3Lh2jd7q2MmibL32ZDs6OX+QanZvGXcn4CLtTJHvexJRpKiUmTxPuKI9unMthJaEq/mka9nnORAuAPS+V2t/Ghd/jvvb/zCLJ+/OjRKRu7dYaFDdLRTnAMKlBr4+cNBmYMbdjYPV007IXbBxoXaKG1FFAooUFbMsayDvsIw/j5RYFS5G4/UjlBbpLYtwbfvYBz8vABwJm7tG0JVd3RumgjBxwlU9GYU5gHCpheVz51kVLkOPf6qnnXBnHFoRnCUcY9cwFCkqp3QK/5TCFdPH2RQuRlXxMlmE68CsQPy8AHBUC+HeJK5bAfe21h0cvO9zrJ1QjGwhnRBAuNRF5vARVoVrUthbqmkn5BKNcKHWNywed+dQFCoa4PeV/PdwRbl3pz3b5nPtg+v8dQkAAIAASURBVLZOueL93pNUttj3d2ZdBH5eAGCJscqCoNL5v5bFUSLTCaPIePcKCnMA4VIDjY2N5NOjl1Xh2pbV20Y7obKFDC7eSCIE6qG+NJaS/Pjv04pyd6EZ7yfSie8K6e9bP7cSrvqr39PIQHdJhWtUQC+qK4nFzwsAtBBqMwrennbCvblYdgwgXGrh6uXL9O6zz1sVrl++GqiOZcesnRBtCfq9+RxI5xIoUazoc47r8ZmuMdF+NO+T0bRl0WeUv3warZ75AWUY/CRvJ1ySMQA/JwCU7kQ5nIP7WlszynxfUzvaCU2/bkJRDiBcauGbqiqrsvVuxw5Us95KYEZeiMIX8URcpHUrW2mQLY1yem0EGTzkX14shii3bnRiVTh+TgAodZ/el4J7mtSrTsS2EzKuH0dRDiBcamHlggVWhSv4nRfIuM3KB7lQ2UKGtZvhQq3DG8/+NBQqGmf2KA9VCtfUBDdqKsfPBwAl9mOi5Z8vuYJCoUS3E5YmkLGhFkU5gHCphZzEJKvCNc7vdevthCVRig7fop0QsgXUyV+bImmYVw9VyVa0uwudWoPTLQAUCcfAA1H+9z0WDCWonVDcsmPj4ekoyAGES00E9OlrVbhWJndXRRw8FyuLCzVkC6iWHdP8VSVc697HsmMAFHkYWpWJe5qQe5+5nuH9+opddsxqtFM7UJADCJdauHnjBnX9x3NWhevwVHd1xMFXZeBCDdkCKmdemqcqZOvjIf2orhTJhADILltIIhS4eytH0NoTNrohWrhuX0BBDiBcauHIN99Q5yfaWZStzk88SbfWBliZ31IwDn7XMLQT6iogYzQCMnRCXbGBGkofnnTXlsTQtAQ3h8rW2PA+dH17NH4+AEC2tL17iwlXnrh2QlPZCBTjAMKlJtYvW271dMvt5U425reUK2hM+5JxodbTni3Ilq64vjGMGssenibdLYqh6YnuDpOtq9sgWwCgjVCl98A9ifxf51KD+NOtr2eiGAcQLjXxUUamVeFK7P8v6x/mcuXmt3Bh1wncoDBkS3enXEUGurgykJrKY1ssRF47bhBFuiknW5Pj+9OtfAN+JgDInUaIgAyR7YS5wtoJiyLFC9eJEhTjAMKlJsI8BlgVrlmxXR0/v8XaCb9GO6H2ZSuTW1yNYkWf3NgURmeXBLRoL2R8vyCY0gJ7yypacQO7U8FE3xanbAAAmTpO9qfhfmZXh4eA19pca4kSLtaGeOMkinEA4VILDQ0N9M4z/7AqXKXv93X4/i0sUdQB1VmCnuoBDVI+hDvlOrXAj+7mt1wXUVMUQ5sneFOCT09JRYstW/4qxYMubIzE6w+AImnBibifKZVOyMXBizzdKorF/i0A4VITx3/91apsdXmyHf0xd5DlD3Oxcvu3/q5GO6GmOTRW0IJHoF3YCdOZxQF0fI4PXVkb0urE6WaegfI/9aXMUFeKcncRLVojzOK2OGNAix1bbLlxbWE0TrkAkK3bJB7hVXZi3CXgwaMdcfCm/R+iEAcQLjVRuHmLVeFy6fQU1W4KdOz+La6dEBdpTcffVsSjUHEiGkpizNLlT3/M9uZOu25tCedkqIWYlcfSiVXhtP1jH27uaoRvT4py62Zx3ov9WoynC42L7EPLsgbSt/ODqabw4fWHtTCydkYW3MH+bPwMAMBqFtV2egh5vQsjxJ9w/bQChTiAcKmJaRM+tCpcoV1fsNobbNyhzFNktBNqXLZ2J6BQccaTrtJYOr9sMCddjD/N4nVtQyjV2xAidvr159oI+nlJyAN+WxFGlzZHUcNjp1ZMsm5tiaALywM57hUglRAAeVsJk3BPs7edsDJVmfktxtlKFOIAwqUmhgUGWxWuD/xft/xBLghTsJ0QOz60msRk2jMShYoTwxILr64L4doLm8WL/fO5pQGcfLE5r8cDNqx9nfpiA93ZFklXzF+PBXOcmOtD582i9fisGABApgj4Q2NxX7O3nVDIA0g75re4h+K3zqIQBxAutVB77x71f/1Nq8K1Mrm75Q9zkUILj1m/OC7S+h8MBrqGnT6x067jc7wfiFczTJzY6ddZs4Sxk6q/VgVxXFwRSOfMv+f0In86Oc/3we89Nd+Xmw1jMfR4bQFAcJWmOj6EpPTaM79VPJSM9XdRiAMIl1r46/wFeu3J9laFq2qSm5WFx8o8VTZV4iKvSdky35xRpIBW4pUfxckUE6jHxcsWfy70o8trgqkmL6rFni8AgDI7t/4+lI17m733RW4HpYD6p0j8/JZpTw6KcADhUhP7du60Kltvtm9Pfy3zdWhgBtoJNXhT2Z+KAgW00SJ4/9SLBV0wkWKnWewEjMH+mf3a9Q1hdGd7JEIwAHD06daekbi3STK/NUq5+a3v56MIBxAuNbF45iyrwtX/5U7UsCXIsnApcaGviMeyY63dUA6ko0ABAAA9CdeB0bi/SXF/3D1C2PwWW1wsVriOF6IIBxAuNZERn2BVuIa5vmL5g5wfinZC0PpmcnCMsP50AAAAqgdhGdKESLHgEd6ve6lBvGyxh+IXv0URDiBcaqGpqYn8e7taFa7J4W9b/jAXhqOdEDy2WyRT2M0EAACABhYdYw+mI/ZvGYuj7BOuO3+hCAcQLrVw49o16vb8i1aFa0tGb8sf5KJIhdIJ0U6oCQ5lQ7YAAECP7YS7R+AeJ0m7/WiBC4/DxctWUSwSCgGES00cO/KjVdli/Dh9gJWEQvkXjCKCViuyNZaTYxQmAACAZcfAWnJvsnKBGRXpZGxqQhEOIFxqYdu69TYTCm+uDXBYQiFrUcNFWgM7RSqGoygBAADs3wJqCcyomoQCHEC41MTUD8ZbFS6vfz9rPaFQ7j046BnXxgDw7gRpY8KLY+jMugg6sjCE9s0YTGVT/Fqwf+ZgOrIohM5tiKS6klju96AgAgAACJfaYXUN79e9LMau+S3TkSUowAGES00MCwy2KlxJ/V+1/EHOC1HgAp+MC7SqyeX2stjzM240y9LJNeFUMtmPZiW705jg3hTt7kIR/bvxIsbDhcaG96EFoz1p7/QAurI1CsURAACgpVCdrfdCEnxLou0Trt/zUIADCJdaaGxspL6vdbEqXNMN71j+IBeEyd9OWIV2QlXL1t5EUT/XhrJY+mVZKC3LGkijAnpRlFs33oLVFgazgE0w9KVSs8Bd3x6NQgkAALD0WB2YaxphCYWR9gnX2UoU4ADCpRYunD1Hb3XsZFW48se6OiYSnmsnRDqhXgZ/GbcLDFQ8yY+ywlwpUkLJssZQr+60IN2Ta09EwQQAAPYmBuPeZ19CYbrAhMII+yLhrxxDAQ4gXGqhau8+mwmFR2cNtPxhljkS3rQX7YSqvWlUjhIsWpsmeNMIn56yS5bFtkNPF5qb6kmXNqPdEAAARHedHMZDUCXvnayTyC7hun0BBTiAcKmFlQsWWJWt155sR7WbAq1EwstbvJqqMnCBVuMNY3+qoNZB1to3wtcxovU4QwZ0p+0f+1BdaSyKJwAAEHpfPoj7sl33z71Jwl5vexIKWZ3WcA8FOIBwqYUJo9OtCteAV/9h/YNcapCxdWEonqRpfGHjidXh9H5UX1WI1uN8EN0XbYYAAIAgK2XvoQJDpuya3yqMRvENIFxqItxzoPCEQpl3cLEwBlyc1dh7HsfrVCvvE1/uNEmNstXMMK8eXLw8iigAABAwW42HoeIj4YXsq2Q7uOwRrvJEFN8AwqUmuj3/ovCEQpl3cJkOpuPirCbZOjiGV5Qtm9WaluCmatF6FBbcsflDby6aHsUUAACgrVA9O7gM9rUT7s5C8Q0gXGrh7OnTNgMztmf1trGDSybhMhf2fx/OwcVZNTG2Gbxk68LGSMoKddWMbD3KkowB3MkciikAAEA8vGzCJWQHV6mdO7gOfIziG0C41MLusjKrstX5iSfpx+kDLH+Q80NxMXeWnSE8bhAnV4dTSkAvTcpWM1+leFBdCaQLAABsE0d/V2fh/ihGuIS8ziVR9p1wHfocxTeAcKmFJbO+sipc7zzVga6v9ld86TELZsCFWQVthJxsDW3z53VqTTgl+vXUtGw1w9oh7xXHoKACAACbD0YxZy2YwznCXuNi+4TL9N1cFN8AwqUWxo5MtCpcbi93spF+I9/SY7QTqoDqLF6ydWlLlMNPtiLdXCh3WDAtnpJFK74cR/M+TafsuECK9ugh6utNGd4f0gUAAG2dclVl4l4phENjhQlXUaR9wnVkCYpvAOFSA01NTRTS392qcA3v84r1D3KRPJHapt0JuChrRLZqCmMoJ6KPQ2VrqHcf+n73WvpvzTH6f3d/acHtc1W0c+NsivftJ/jrfjnSDe2FQPQ1zLQ/7X7LVXU2V5Ryy06FDMsDoAVwv5ZZuCLsayn8eRWKbwDhUgM1d+5Q95detipck8PfsiFckfIUK/tTcVF26A0hm5dsNZbHcjNPjj7ZqixY1Eq0Hufc0XIaHeUj+OvPHuWBIA0gIC473nZ62+FcMu1LwesE9PWAASMA8glXoX3CZfp1E4pvAOFSA6dPnrSZULgxvZf1D3JxlDzthOyJMC7MjpMtnk/hd30ewEWqO1K4kkMGkPHmT20KF+PmmYP0YVKk4D9jefZAakJkPOAzz8KzFZpbHi4kqQwANbNzKCcSuIeqULh+24biG0C41EBFSYlN4fp6qof1o+qSaOkv3BXxuCBrQLYub4mi4d49HB5w8fnYBF6y1Uzdle+43yP0zymc6IuiClgvivYlmz9DwhbBctKF1w4gJh7CBeECQP/CtWjGTKuy9Wb79vTXcl/rwlUaLUPhkoILssplizEjyV0ViYILJo4RJFwM062faOGkDEF/TrS7C1V9FYjCCliRLZEpoJVoLwR6ai1Mw71UZcJlPFGC4htAuNRA9gjrCYV9X3yG6jYF2hAug/QXbCQeOeYGIEC2ji0NpUiVRLjPeD9RsHAx/u/OUVo/5yNuBox3OIdXd/pjZRgKK/BYLHauHZ+/XC50AK8l0EdrIXZzSR4Lb69wnSxH8Q0gXGogxM3DqnBFdnvJ9ge5TOLYbHPRz4bKcVFWWLYq4nn/jBrLh9AnQ/qpZmdWzrBgUcJ1X7qOUcGKaRTl3p33n5ca2JuubYtGYQXMn5vh0qyvqM7m4rXxmgJ9fC7icR9v6yELhAsA5xIullDY+1//tipcH/i/rqhwmfZiiaKaZYvx6/IwhwdlPMoQr9509+Jh0dLFouR3bPxKkHR9GvcekgsREiBpuA+SCwEWIjsPQgJz7N3DBeECEC6VJBR2adfBqnAtGeFi+4NcLm3RaTqQjouxom2E8YJ/Ro6OgbdEdcky0cLVzN7tCwQtSV47bhAKK6eeVUmXvs0IO7qAnj4jlaNwn7UmXAI+66ZiOxcf/56H4htAuBzNvp07bSYUVnz0nnLCxXq/pWjPATwDMoTL1vXt0dwck9qEa9KYOLuFq1m6DJ49ef2ZUe4udHhuEAorPL2X7pRrfxpeX4D9XM4gXBXDBQhXFFIKAdC6cK2YN9+mcJ2cP8j6hzgvRFrhwrZ6VaYRPkrFFwGqk63m5cd/HimWTLqiPfmddI307Ul/bY5CYeVUi41l3Dd0OBenXEB/IRpVGbjvPv5wZc9I/q9hSbSdwrUVxTeAcDmaCaPTrcrWux07UM36wYoJl6kyFRdiFcsW48uRbqoULsbUrHgueVAq6eI70/XZUMxz4Ym9lKdcqXidgQ7nHZFc2OJzvjeJ/+tXarBvhuvn1Si+AYTL0UR7+1gVLu8uz1Lj1iDbwiXhRRkXZHXLVl1JLCX49FCtcLEgjwNFSyQRLkbF5rm8pSvvEx8UVc4gW7tHKBMZbS5Q8XoDfZ0MD+PuQbgXN+/fE/BgpSzGPuH6aQWKbwDhciSNjY02EwqT3V61/UGWUrjYxRgXYfkwy6y9rUonV4erKp3QEsP9+9P5Yzukka6aX6hw1Re89nQZPFzot+XYz6VvlNsvxBYp4/UGuoyLl6sdV2vCdTCd/+tWHmtfS+H381F8AwiXI7l47jy91bGTVeGaFvm2YsLFjtdxEVavbDH2fBmgatlqJsPgR9dP7ZdEuv575xhtmPsxL+lKD+pNtwsMKKr0erq1L0XZ02i85gC76/R9XxZy/bHnhOvwdBTfAMLlSL6trqbOT7SzKlwb03vZ/iDnhyIO3klki7FmnJcmhIuTnyhfuvjrLkmk6+/bR2n+xHRef+7CdE8UVLpsh1J+kStrX8RrDyBdOoVrHRawi8tcb4mWrqrPUHwDCJcj2bhipc2EwkNT3JURLpZihDYD6Qu2qkxJZ0FmJbtrRrgYw3z60s6Ns8l06ye7pYt9jc9Gx7b5Z0a7u9CRhSEoqPR2uuWAlDX2EAqvPYB06XkXF//VLKaCMPHCtTcXxTeAcDmSqeMn2BSuSyv8lBEuduGFIKlathiZoa6aEq5msuMG05G9G+yWrrsXD1NWbNttlex1qi2OQUGlm1bCZAc9Ac9FeAbQv3Q58cNWIdHwpqII8cK1MxXFN4BwOZLEiEibkfDGbcGKCJepMgWSJOkwboagVgU+3MwzqD4ww/aS4u607PMcarj6vV3SxQI5Evz7t/nnFU70RTGllyF/Bz6FFxQdDQCkS2NJhaP4v072LD8uGoLiG0C4HInXf1ysClfg28+3/SGWSLiwFFFK2RojuWwxvl8QrFnZepTxI8Pp2slKu6Tr252rKdrDdjz+cO8edAcBGtpPJazKdOxn2nxtxM8BOMWMpBNKl6CkQrt2cYWQsbEBBTiAcDmC+ro66tL+KavClT6gszLCxRYiIrFIwpmPOFluiIWf+epCuBjJIQPo5PdFdsXFs+TCtv6czRO8UUhpuZVwvxoWsedKFnoDgOr3dFU72Z4uIWmkdkbDG+9eQQEOIFyO4MRvv9mc35ph6KqMcCmxSNQpZGu0rDfDFdkDdSNcjDjvPvTjvg12hGj8TBMSI2z+GSN8eiImXquytWekej7b2MkFnAX2AFahXXfqSCoUNqfJVvGIlq5rv6MABxAuR7CzqNimcG3L7K2IcLFt6xAmOwuy/amy3whnp3joSrgYsQN7UVXJMtHSxWLnh5rFzdafUTLZD0UU5rbsbCvMxM8EOJV0mRzdyqvo+ocERZIKjeerUYADCJcjWDLrK5vC9c00D0WE6+/qTEiTXU+/UxS5Cc5IctedcDEMnj1pX95C0dJVvHq6za+fFeZK9aWxKKLwhB1thQAI+Rw6iXQJuYebiiLFC9fxIhTgAMLlCManjbYqW2+2b0/nlvi0/SHOC7H/oqrwMlH9kKtogplehYvbneXRg8rXzxIlXMabP9K44SFWv3akmZ+XYC+XVkIyWMKnOosytBUCSJd+Z6/5BmdEixeun1aiAAcQLkdg8PG1KlzdOj1FdZsDZRcuE+a3RPd9C9nfAeFqm0g3FypdN5P+W3NMsHQdq9pKke4uVr/2vDRPFE9amNs6MFrFe/WQVghw4ozgDPHBGcZDX6AABxAupamrrSW3N9+2Klw+XZ7j9yG2V7gqR0GeBF+cc8gooOdbLPWPLe5dMNpT18LVvKurdO0MwdL1f3eO0uSMoVa/boJPD7pbhEXIqpYt1V+LcmVZ9wAA0gtVEJwhoGWYjXKIEq7dWeb6rwlFOIBwKcmNa9fojac6WhWuEf3+xV+4ysXPp2D/lognYRXxitzkrq5vOZ+3/v1Buhcue6Tr2MEtNr/udwuCUThBtuw75dqTiJ8XcF7p0vGeLiEdK6bCcHGnXCXm2qGhFkU4gHApyc8//GAzMOOjwDeUES7MbwlLKhMQH2svZ5cEtPj3HdP8nUK4mtsLty6eJEi4mKClR1nfVbY0cwCKJjXK1r4UrH4AQBPpocN1u7OTpTXzfh1KosQvP753DUU4gHApSfHWbTaFa0F8N/7H1GKFi108IVL8t9Er2U5UPoT+XOhHtYXRD37t6NJQpxGuR6VLyEnXhnnWlyGnB/dGwYSTLTtPuMfKttgcAE18Ztnctx4f1ApZ/VAWI36O6/LPKMIBhEtJ5n3+hU3hyh/rKrtwsdQtyBTfHVvKF1lnFvvT9Y1hD/6dLfCNdOvmdNK19qsJ9H+3j/ISrp/3b7KZVnh1WzSKJrWkEe5P0+T1wFiRgJ8fcG7p2puozzkuAfd5U57IOa4TpSjCAYRLSXKSkm0K1+Ep7vw/wGXiwgDUnAjmjLHvj3N+2WCOR39tTHBvpxKuZulaPCWLTLd+alO4rpzYSwbPHla/VvXsQBRMDk89i+NOjLXbejQKP0MA6apM0d09X0gYlug5riNLUIQDCJdaIuE7P/EknVwwSHbh0n3Uq11Pu3K41glH3tAurQ6mE3N9qPGRpb2LxgxwOuFq5vOxCVR/9XubwnXrbBXFDuxl9Wuse38QiiWHp51lOU/rEQBY46DLBcjGEpH7uPZ/iCIcQLiUoqG+3mYkfNenO9DVVf4ChMsg6ikzAjOsYC4IjbviHX4zY+2Ef8z2pltbIh78GjuhcVbhYryfEMqdYlkTrrM/l9ncxzUtwQ2FkkNnP3L00XqkYHgOAKo+rdZR0jFbui77Pq7S4UgqBBAupbh+9Sp1e/5Fq8Ll+kJHurtxMH/hKhUhXAjMsHLBHaOaYqomL4oTrgvLA1vMcQ3z6uHU0pUY5EHf7FxtMUxjx4avbP7ejBBXaiyLRaGkdFFWmcq16DpjhDQA+j61HsqtS9FLZ4uQcCxTfphw4coLI+OdiyjEAYRLCU78/jt1fqKdVeHy6vyssCHMEuFBALocetXZbAZrJWTCxdoK60seto1OT3R3auFq3tU19+M0unpy3wPxqr38LY2O9LH5++IH9aB7xViArGiMdHWmDoN00vCzBUCHcfFC5riMxZHiTrnOH0IhDiBcSnBg9x6bgRlRLi8JFK4o/ccxyz2vpdIn1qcX+XPSdW3DwyXI38wLcnrhasbg2ZMmjo7l5GtUmBev33MjD0mFypxqjdLVqVarBej4OQPwsKYw30Od7sGryHh449G1KMQBhEsJtqxeY1O40jz/LewDXBwpYtg1HaLVPK9VEa/amxgLzmDCxXZyNZXf/7XaklgaHdQbwiWSs+siUCDJXXhVZ+v82pGrijlPALBXz7GhOKLi4Q98jEIcQLiUYM6UqTaF66PAN4R9eIuECxe7qDh9C+EBhZcZi+D21ghOuBi3tz0UhYKJvpAnkRxfFY7iSKa2IjYD6TTXDweujABAtdKl9WuAwFAcU1GEcOEqNtcdjXUoxgGES27Gp422KVwzY7oK+/AWCn9ir/8n0LYvqGzpsxZuXg2lMXR8rg8nXGeXBDz49TsFBkr06wmBEsFPi0NQGEktWtyJea6TPbAZjZ89AK3aibUfoiFoxKDUICI4I5SM10+iGAcQLrkZERZhU7hWJHUX9uEtEPrEPs58QRzrpC2E2VyBqKUb2NmlAQ9OuWryHp5m5n+KUy4x/LgIwiXdiZYTtyabr6F4HwBgLUQj12lCcUx5IcLnuE6WoRgHEC65CXDtY1O4tme7ChSuMBE7uHLQQqgRrm8IfSBc7JSreZarriSWUgMxyyWU31eEoSCyJwxjTyJakpsTzTDHBYCVJOQkpwnFEdNWaPx6BopxAOGSG9dXO9sUrooP3xP24c0PFX7k70zCxVIINTxvUVdkoONzvB/Ocm192EJ6aE4QRbpBooRwei1CM4Tv2om/PxDvrCfjmOMCQLh07U/T7sMUIWFaZSLaCstGohgHEC45uXXzJnX9x3M2hevrqR4C+4FDIFy2Eod08BT6zGL/B8LFEgubl/ey064ZSdjLJYRr2xALz/c6wT2l5k6zciFY1k7N8V4BwHo3TXWWNj/b+1KEyWW+8LRC461zKMgBhEsuzp4+TW8+/YxN4frlq4HChas8FsL1WGyz2hYZS9VWyLiy9qFkX9seTckBvSBTPBjq1Z3uFmHxsW3JSryfNHYYksWv9SgO7xsAbJyOa7HeMFVlCGwrjMQcFwBqEq5jP/5Erz3Z3qZwnVnkLfyDK0i4dB6awe3WStDVTau+OIaOz/F5IFzsn+8VPFx4zYIgDB4ukKo2yAhxfXA6CCBZmOMCQIndfIna/GwLiIcXswTZWD0NBTmAcMnFgd17bMoW48Yaf+Ef3DJhT+21Httq/VQrVZPBGHw4t2xwi1Ou04v8qekReSjEbq42+XKkGwog7qnzMK5dEJKFOS4AMM9lLR4+UWBbYZjAfVxmoau/i6IcQLjkoGjLVpuy9Ua7dnRrXYBw4SoVNpeiu5Sx6iwy7U7Q9Q3r1paIFsLFuLQ6+MH/z+a5FmcMgFjZYOtHPk4/k8VaZSBZ2McFAOa5JJ7RLI4SXrtdOYqiHEC45GDNosU2hevdjh3ozvrBwj+0xVHCnsSYiwTdLDFms1o79T9H0VQeSyfm+bSSrptbHu5hayiLpZnJCNGwxtEloU5X5LCntDjJUk+ENADOu58rXlvXocM5wmoL8z1a6E4u48+rUZQDCJcczJv2uU3h6vXc03RvY6DwiNGiSGHCtS9FBwmEGcKiW3XA5TXBrYTrxFwfupv/ULjZfq7ZozwgWBYCM+pLnWR+iy0lZi08TrhvzxGtzKxFEwU1APrbz2XaPULY368wXFjtVmGuY5oaUZgDCJfUTHn/A5vC1efFjlS7SYRwFQrcLbQ7QcNPlMc67dxEbWF0i51czZyc70u1RYaHIRtmsViRPRA7uh5h8ZgBOn9/sNOskVhKrIFZDwCcWroOpGvns70/Tdjfr1TgTq78MDLeOovCHEC4pOb9Uak2hcv9lU5Uv1mEcBWECe+n1tzT71zzxS9VWHKQHsMzlga0Ei7GqQV+VF9saDHTVTLJj2I8kV4Y7eFCp9aE61e09ibS39XZkB+tFGUAOHkyqmaCuw6NFTyyIHgn1x/5KMwBhEtq0obE2RQur87PUsOWIOHClS98NoWb69BKQWP+Xp2tfdAat7dGWBSu5qXIdY+cdDF+WRZKo4N6O7VwfaHTdEIubhmipY5VFLg2AaDLLhuj0EAuoeEZ+95HYQ4gXFITNzhQHuHKCxFRrI3UQCGTKbiH2hnCM5hYWZOuU/N96V5By9TKO4UGWpY1kDvpcTbZih3Qnf5cG6Gv90HFcG6GEbKjnvAeZz95B0BwDVI5SiMn2KnC/m5CwzPyzfenOxdRnAMIl5SEew6UR7iELj9W+z6u6myuTYq1S+HG1JprG0KtCldzkAY7CXv89x1fGUZfpXhwEuIswrVmnJe+UgdZkYLEQRXOcY3EtQkAge3Qmpg5FZFEyubqBdVwxwtRnAMIl5QE9OlrU7j8Xn+OmraJFK4yg/Y3wB/Kvh+IsROiZYvG0hguKMOWdLFwjSvrQrgTscd//4WNkbQm14sSvHvoWrbGhvehu0Ux+vi574pHIIaahasyFdcmAMRc1zQwTy64rbAsRlgNtycHxTmAcEmJx9tdbQpX0NsviJItTrhKosUd66thlostLsaJliBubAqzKVzNnF0S0Gquq5mawhjaMc2fExO9ydawQT3o7Hp9tBJy7b+IeFf5mopMXJcA0GlUvOC2Qvb3KggTUMOFkPH2eRToAMIlFX06vyafcBVHimxTclxiEJM9zGhJn1hoqcXw2vpQaiqz3HbaWH4/XGNuqge3r0rrsjVkQHc6sihEH8XIvmQuoRNSo4E5LjwwAkDkg9903bUVGkujhdVwxzagQAcQLqlweeElm8IV+NbzZBQpXIJ3cT1+rK+UdLE9WuxpEVIH7YbFwLM4eD7S1ZxiyGa7mmzM+93Ii6byqf70QXRfinZ30eSC46/nBmGoHCjfdlSRgOsSAKIf/I5V+ed7uPBruJCI+J3muqixHkU6gHBJwX+ee0G20AzBu7haSddQMsmVfHY49/5pFhssx3yWpLBEwhPzfHlLF+PMYn+61YZ4sT1ebHfV+vcHUXpQb00sUU4J6EW/Lg/Vh2ztT4XEaG2Oa18KrkkA2NM6rbc5zRJhEfHGyz+jSAcQLimwJVt2C1eeNC1UXD+1FKddh3O4jfLcbBYik2WXrrZCNCyeeC3wo6vrQ1ssTLbYclgWS78tD6NVOV6cfKlNtCL/t2vr+vZonGwBx+4LxPUIAPHXvgNpKm8rFPjAWGhE/DdfoUgHEC7VCxd7OiJhXCt72mQ6MJqffLGYahblzgRrX7Koo3dgf3shO7kSKl3NiYYsXOP6xjCqLWpDvsqHcHuttn3kQx/G9KNYT8e2HWaGutLhOUHUpJeCg5vZgrxokkNjMccFgJ2rL9S8zF1U23BxJP86jqXq3ruGQh1AuOQWLs9X/2GfcJXJEYEdx7UbsgsNJ2F7E+/D/plFpe6KxwmWWpYil8XSlbUhZoHyESVezfLFTr4urQri5r3qS2Jsth2yU6Xq2YG0NHMgJz+xnvKHbrDZsgmGvrR/ZiDVlcTqqKUmEQEZWp/j2oXZVADsug6a6wq1XgfFpBUKPeUy/lGAQh1AuOQWrj4vdqTaTYGKR8MD/bUY8k0wbFvAfOj0In+6tCb4gYAx0bImYFe3RtF384Np8wRvmpbgxs1VxXi6cG1/olsG3e4nD7ITtW0fm7+fdRFWvwftytYILDTWQ1sht94C1yAAdDnDKqatkP19igQsQq4YQ8amRhTrAMIlp3C5vmAWro3ihcskNhoe6JKa7ZFm8RosiXg9nnZ4cWUgtwuMyZ2t8A3GzTwD/b4ijA7MDKS8T3xoWdZAmpnsThOHvkfvR/Xl9oA1w/79s2Hv0VcpHrR23CCq+DyAmx+r0csCY8iWvoVrfxquPQBI0Fmj1tZCwUuQm0+5hMzj//UDinUA4ZJTuN7t2IHurB8sXrgKw3GhBq2oLYymy2uC6ZSIYA2+p2BnFvnTX6uCuDmwmrwobqaM7ykU+++accpkLsiWfqjOwjUHACmoGK7Ka6OotkKhp1zVU1GsAwiXnML1Zvv2dHtdgHjhyg/DRRrYEJtYswxFcvLF2gTtmfXiI2En5/nSmcUBdHFlEF1dF0o3N4dzp25MAFlrYmNpDJeAyL6vR2G/1oyuZYslgmJmS38LkHdhptVZaDBfo+4WxdCdAgO3w9ASdwoN3H9TXxqL10wPia1iliA/OOXiOcuVZ67lbp9HwQ4gXHIJF+PGGjuES6JoeOA8yYa3t0VwQRvnlg3mTsDklDBLQnZ6oR9dWB7ISSBrUWRCVldkMMuYzmULaYT6bSvcPQLXFz11CJTE0rkNkXRodhBt/9iHFo0ZQJPj+3Mt0KmDe9FI354UP6gHxQ7ozoUGPcD872z2dLh3D+6/GRXQiwsWYrOobI3FYvPXYbOuO6f503cLgrnZ1NtmcWNi1oTX/ZHUwix9tBUKPeX6cSkKdgDhklO4zizyFi9cLDijHE/RgB1PbEtjuLksJmKsPZDJGGsVvLB8MBfEwVoH2enYqQV+FmECxf4bFjN/3ixxF1cE0qXVwXRlXQj39W5tieBaDmuLork/CwPhQHfCVTkK1xKNn1odWxZKG8d708S49zhhUmrNRZS7CyX596Tx0X25OVYmZPtnDqYTq8K5UzK0Fmp8VrM8hvcpl7HQ/POuvYmiHUC45BKuY7MG2idcpQbcNAFQ6dNa08F0SInehasqA+91DUrWT4tDaGG6J43w6aHK5e5sHUZaYG8u/ZUFClXOGEyn1oRTTaH+RcxUmaLCnXtD5D/l+nUTinYA4RJDl/ZPtSlch6a42ydcxVG4gQKgNnYNU2VrDJBjjiuHk2u87zWQ5GqWlR3T/Ckr1JVbP6E20eKzMmOYV3euvXFemicVfeZHPy8JoWvbonU2A6u+1kKxbYWC9nKVDidT/R0U7gDCJRSXF15qU7h2TOhnl3CZCiNwIwVATbBFnofGQkScaQFyxXC871V+olXxRQA3g6U1yeID232YHtSbvkx0o60f+dC384PpytYobQd3qKy10J4VEIJOuY4XonAHEC7BwvXiP9sUrs1jetknXPmhuKECoKZwDMS+O19bofnnjve/Ojm9NoImGPrqUrTaOg1ji+iXZg6k46u0mWisqtRCkUuQhZ9yJZCx/i6KdwDhEoLH213bFK7FCd3sEy6WVIjgDAAcP691APNaTitc5p89PgdqW4sxhMqn+HPJgc4mW5bka7xZOlkgR11JrKauq2pqLRTdVsgojuQ/KvJHAYp3AOESwiCXHm0K19SIt+0TLvbhLIvBDRYAR7a+YF7LubFjqB7I00K4OGOAJue05GZ0UG/aMdWf7hXHaOf6qpKuAbFLkAWfcpXE45QLQLiEENSvf5vCNdani/3CVRKNmywAjlpmfDgHwgG4oBR8JhxPXWkszUp2h1y1wZjg3lzyYYMGwjZU01poT1shd8oVxb+2wykXgHDxZ4h/QJvCFd/nFbuFy1QUiRstAIq2ugxF5Dto+fR7TyI+Fw6GJfUtGO0JoRIAW8z8x0q1z3ix1sJsXQTksLl7fqdcw8hUdxtFPIBw8SE5KrpN4fJ7/Tn7hasgDDdbAJR62rpnBFIIgaQpZkAatnzoDYkSuYB55VgvulOo4r2eFQnmz5njWwvtXnReGs2/e+noWhTxAMLFh5zEpDaFq+9Lz1Dd5kD7gzNwswVA/lMtc1ENuQAWqc7EZ8SB/Lg4hAweLpJJyJBBrpQU7Ek5w4JoSuYwmvtJGi3/Mpc2zP2Y8pdPpYKVn9OuzXMswv4/9t9sXzqF1s7+kNZ+NYEWTc6khZMyaMYHSTTj/USaNCaOJqbF0viR4ZQbH0zp0b40KsyLEoM8KMG/P8V59yGDZ09l2wxDXOnoEvUmH7MZKsd/zrPs/3sUhPHsXoohY80lFPIAwtUWn+XktilcXTt2oKur/O2f4ypHcAYAst3oud1a2ZAKYGMBci4n5fi8KA8LgEgL7G2XXH2YFElrZo2nA4VL6PSPJXT7XDWZbv1E/+/uL4pivPEj1V/5jmouHKLrf+6ni7/uot8Ob6dvdq6i8g2zaN2cD2nW+GROBJmURbq5SL7Ta/MEb3XOdu1UR2uhsSLevr9HWQz/+u67uSjkAYSrLeZMmdqmcHV+4kk6OX+Q/cJViuAMAGSJe8epFuDbbmRPbDQQzcbxwlsJ4/36cadO3+9eS7WXv1VcrKSg8doP9OeREipfP4umZsVLeiI2ZXh/upmvwhZD9vDL4Xv3Uux/iFfIcxlyfjiZrv+BYh5AuGyxeuGiNoWLUTXJDcEZAKhuVmskZrWAsvMdQDBXt0XTUC/+u7bYydC+vIXUeP2IJiXLFnfOV9PWxZNoqI80i56zw1zpxnb1Pcx1+EOwKgnah4XExFeOJ2NTEwp6AOGyRvHWbbyEa3NGLwRnAKAWdg1DAiEQJ1wHM/D5UZi14wbxFois2ACuXU9vovU4F37Zyc2DSSFdH8f2U9/OLtZa6OCHYZK0DwuJiT9biYIeQLiscahyPy/hmhHT1X7hQnAGAPa3D+5LwV4tYN8C5J1x+CwpxJ3CGBrp25NnEl93Onpgs+5lq5kf922QbL5rbqoHNZWrsAPBkQ9X9kqzBoJ3THx5Ipnq76CoBxAuS/x29Bh1adehTeHK8Opsv3CxOa4yBGcAIC4UYwSXPgVpAI7e0wP4c2BWIG9pmJQ+hP5bc8xphKvpxhHJWgsZJZP91HfdPjDagafZ6dL8PUoN/Gu8n1aiqAcQLktcunCB3n6mU5vCFdr1BWmEqwTBGQAI2+0Sb75xjoEoAAkH6pPxuVKIL0a68RaGg0VLnUa2GH/f/pmG+faTNL3wtxUqG13YOdRxrYWHcyQ7zTYVhvMcHYkk040TKOwBhOtx6mprqdvzL7YpXD2ffZoatwTZL12FEbgJAyBkp9bhXEgCkFa4DqTj86UAd4tiKH5QD16yEO3Rneo0mkQolku/76Zozx6SRsZnhblSTZG6OmlMexIdd5otVSqpkACNfe+TsbEBxT2AcD3OgK7/aVO43mzfns4v9bFfuPJDcSPWHJj3wJwW0N0cFz5rsvPT4hDeopAbH+JUssXYtOBTWZYjr871Ul9roYNCjkyVqdL9PXgHaISQ8XgRinsA4Xocg48vr+CMQ1PcpWkrLI/FzVjlgsWGfdlTcG6BI2uHOJTNtbWZKlMw/yHnTXlvMmLegQLkckmX+MzJy6YJ/HdvffVhilPJ1pmfSil2YG9ZhMvg4ULHV6mstdD8eXPIQ7TqLGnvUQVhPLuZDGSsuYQCH0C4HiUnMYmXcG0Y3VMa4So14Gas6mCGbF4XcdPeJKSdSXWiZX4tmdRCBIDWEsyAdT4b+h5vSVgyNdtpZOuPb/IpMchDFtlqZoKhn/pSC9l1XusPV8piuBMsXvXewYlkbEJrIYBwPWDWpMm8hOvTkDclES5TMRYgq1K2KlNEtSZxp15S7PuAaAGgnHDtT8NnUEZYsc93fosx+6NU3YtWw9XvaduSyTTEq7essvUghGRWoOreF39XZWj/4Yq5huPdWniyDEU+gHA1s2X1Gl7CFdPjn9IIFxYgq0+2WDiDnTMhbO4IJ158Z7SSIVrAsUjcagRacmlzlCA5yIzx161o1ZtFq2LLXEqL9FZEtJrJCHGluhKVjTBUxCsehMSi6SWvGXju5jIWmV//W+dQ6AMIF6N6XyUv4erx7NPSCBdbgIw5Lv3IVgvxykarkq3UwcpRmNEC6tnHhZNp2fhufrBgQTh3tFxXonX+2A5aO/tD2dsHbbHnywD13XP3pWg/JEfAbi5T5XgyNtaj2AcQrjOnTvFafsy4sNQXC5B1JVupsj09Z/NgeI2HcCEjiHcHqmwr3DMSn0+ZKJzoK1gOpmUPp/+7c1SzgsW+9zM/ldH2pVMoZ1iwwyTrUcaG96H6UrU94I2jv6sytb3snMXEC6n7ftmIYh9AuG7fukU9X/4XL+Ha9WE/aYSrOAo3ZYc/ZUtWYNP9GDLuinfOtkGW9Mj160O0gFrnuFJxLZSJZVkDRQkCm3H6751jmpGsmguH6Ifd62j5Fzk0OsqHojy6q0K0mok0892CYFU+iFPy3iDHsnNhK4HCyHjlGAp+4NzCxQhw7cNLuL6KfVeatsLCcNyUHZ1GqNSJi/nP4Qo7Z2hf2jXsf22DmM8CGqAqE9dDmfhihJsoQYhyd6EVX47jAibUJlf/rfmF6q98R79Wb6PNCyfSR8lRFOfdR1WCZYmpCf1VGlSVqpxwsYefUn//fBchN7PDLH21N1H0A+cWrrQhcbyEa2S/f0k3x4WbsoOkIN4x+0AO5cjylE0daYOJ5hsaTrOAxjicizkumWCx5HYFPhj86FDpcvr79s8Olay7Fw/Tkb3ruSXFH4+KpqEaEKzHifF04UJM1Hjv4LWGRZLPeo7DgjNadDcd+pyMTY0o/IHzChffaHi3lztR3eZAzHFpWA7YfJWj09E0PzvCtQyO4NKfMJsFNN1WiFlLyWksH0KZoa6SyMKoMC/aMO9jbneV8caPsolV3ZXv6NyxHfTNzlW0bfEkmvF+IqWGD6JINxfNCZYlCib6qrfbRKEHdSwh0SFLkB/n9+0o/IHzClfRlq28hKvzE0/S2cU+mOPSaishEwS1FHpVGdIP8sqdMsjmsjjJykGxDvQhXJWjcG2UGBbSkBoo7a4pJj7D/fvTxNGxtGrmB7Rr81z6cd8GLtnw+p/76fa5aqq9/G0r2K/fOH2ALv2+m058W0Df715Hu7fOo61mqVo0OZMmjYnj4tpZa2CUe3ddyJUlxkX2cY6kYAXnuNhoiKj6Lz+CjH/9gOIfOKdw/Xb0GC/hYpSM64M5Li3KlkO23LdF7v3e8t0J6p3J2pvMfY+QLIA5LsAHtvsp0a+nYjLBRCl2YG8a7vdeK2K9elO0Rw/dihR/Ye1GV7ZGqfZhnhLrQkwH0qWtKYoixNd/JfFkrLkMAQDOJ1x3bt+m/zz3Ai/h+iz0LcxxaS6aPF79rW+s1ZA9gTNLjmMFK/H+KVY1gi+AM8xx5WCOS+PCBfixc5q/eh+I7hmpwBx1NhdJL9n3XRxpXw24N5eMDfcgAcC5hKuxsZEC+77HS7iC33mBjNuCMceFuS1Zn7qzVicTO/mSqxhkcrV7BLeE0nQwHQuJAea4AIRLx8xIcld5y3+6/HNcUj7QLImyvw785iuEaADnEi5GTmISL+F6t2MHurrKX6I5rkjcoJ1obktskhp3+mW+GXESxk6gmIixAWB282AwKXsU7tfjyVSRcH/uam/S/d/Lbmhs4STXHoiwCwAwxyU9DaWxlCbxDBeQIIAkoJcKlyC3fAgo94M/055E6b7f0mgJ6sAQMv22FSIAnEu4Vi5YwHuOa//E/tK0FRaE4QYta5tColNEW3MC9YBcyBQAmONyaEphlkQphUDaOa6Lm9T9kJc9UNTMsvNSgzR1YH44mc5VQQaA8wjXt9XVvIVruqGrdHNc5bG4Scv1tAxBDwAA7ONSnA9j+kFyVEjVV4Hqf1DKQpq08HClLEaaOpALUTPL2/XjEALgHMJVU1NDXdp14CVc4f95UbIPGntKghu01MTdb51DMQkAwByX4rB5IQiO+tg43tu5H5ZyITkSBWeUx0onXIzSBDLeuQgpAPoXLkZAn768hOudp6Sb42LRorhBS73XIxVFJABAwBxXKq6dErIqxwuCo0JmJbtr4x6+N1nGBcjDJRSuEEmly3h6L6QAOIdwjU8bzbutcNeH/STq3w3FDVrSuS3lNtcDADDHBVpTNsUPgqNC3o/qq517eVWGPA9X9iZJ9z3mSShcO0eRsaEWUgCcQ7i2rF7DW7g+DXlTuqca5YiH10rKEQBAn0jWagTox8UhEBwVkhLQixrKNDI3vkue/Zmm/WmqFC7jiVIIAXAe4fr92DHq0v4pXsI14NV/SPdBK4nCTVrFT8QAAE7QVrhnJK6jEnEr3wDBUSHDvXvQnULtzI2b9iWr+jSbdShJNr/VWAchAM4jXPV1deT6amfep1ynFnhLlFATjpu03RfmFBSNAABVPPkGQyg1sBckR2XEDuhO17ZHaywAS+IHqSw4Y0ecRMIVJk0N+Ec+ZAA4l3AxUqINvIVrVUoP6eLhcYMWz+4EWVoPAABORHUWrqUS8lWKByRHZUS7u9CVLRrrqKkYLvn93VgRL41wFUggXMVxZKq7DRkAzidcy+fO4y1cw/u8gnh4R7NzKP19KBvFIgDA/kJs1zBcUyVi5zR/SI4KUfvyY4tiU5kicftwojTfV2G4/bXfTyshAsA5hevnH36gzk+04yVcXZ/uQNdXIx7esUsS01EoAgBUl2Dm7JzfGEnRHi6QHAiXJPxdLd1uTVPlKImEK8LOcZJo7N4Czitcd2vuUt/XuvA+5SoZ1wfx8HoaqAUAOK9wHUjHtdUOGh9JwGsykx3eB5KjIgxmAb6yVaMhXRK2FpoOjpGmBimyT7iMh6dDAoDzChcjNXYIb+HK9HpNurbCMsTDO7KvGwDg5Bwai3h4kdzYFE5nFvtTU/nDX9s4fhBER0UMGdCdrmsqNEOmcKxD2RIJV6QdNV8IGa8cgwQA5xau9cuW8xauXs93pDvrB0sjXMWIh+c9t1WNuS0AgAxzXBXDcY0VQFNZLP21Koj+mO1Nx+d4U13Rw3nkP9dGcEENkB11kODdg2oKtfxgN46LdZfkcy5FUmGxeOEy7jZLX1MDJAA4t3CdPnmSXnuyPW/p2vPxe9KcchWE4QbO56nSAcxtAQBkaivcl4LrLE8aSmPo7JIATraaub7x4X2MnXaNN/SF7KiEUYN7tWj71CQSLUSW5MFKcZR44TpZDgEAEK6G+nry69Wbt3Dl+naRrq2wPBY3csxtAQAcRVUGrrU8ZYu1ED4qWwwmYI/+d7s+D4DsqIQPY/qhDpAyqbBEpHAVxZCxvgYCACBcjM9ycvm3FT73NN3dIFFbYQnaCjG3BQBwGOZrDGtbxjXXRhtheWyrk61mjs/xofrih22FrIVtpG9PCI8KmJPqoZ+Hr3YuRJYkqbAkWlyt9908FP8AwtXM/ooK3sLV2czOCf0kaisMxw0d+7YAAI5sK9wzEtdcG1xaHWRRtiy1FTLWf4DwDDWQ94mvft6Hu4bR34dzHJtIKka48hCWASBcLai9d4/effZ53tKVPrCzNMLFPoxoK7Swb2sMCkEAgELx8KNx3bXC7W0RNmWL8edCv5YJhtujuYQ8SI9j+WFhsL7qgr2J4j/n1Zn2fw+lBuE13i6z6DU1ovgHEC6x8fDvPN1BurTCkmjc2OWIggUAAL7x8Lj2WtyzxWSqLeFi3M1r2R6/ZpwXpMfBO7hu5BkQotXiMx6nvHD9thWFP4BwPU7ehg28hYuxLau3NKdchWgrfMDuBMxtAQAQD6+SXVt8ZItxYUVgy9+bF00jfDDL5ShyIvpQY7lexw3GivuM2zurWRYjrLbLjyDj7fMo/AGE63GuXLpE73R6lrdwDe39Mhm3oa1Q0h5tkRdSAABw+FC9zrCUSmiNx3dyMYon+UF+HMSaXC99P5h1xEMVocJVOd5cWzah8AcQLksMHRzEW7heb9eOTi/ylqatsBRthX/bmUIEAADiZzyyIFmPUFds4CSKr3Ax2ELkFl+jJJZyI/tAgBzAsaWh+h49qBylfDS8QOEyHi9G0Q8gXNbYsHyFoLbCuUP/g7ZCB108AQBA0rbCXcMgWwLCMixFxD9+yvXLslBunggSpBxJfj312U7YgjjBUfF2LzkvjxHWTnj3Cop+AOGyxoWz5wS1FXp1fpbqNgdK01borLK1Z4T5Yoi5LQCAg9sK9yVDtv4Hi3oXKlyMiyuDWn2t1TkI0FCSlWO9MIZg6fO9P9VO4YoV0E44gYxNaCcEEC6bxA0O5L+T64kn6eBnbkgrxNwWAEDrwlWVAdn6H9c2hIoSLtaGeC+/ZWJhbUkMZYe5QoYUINrdhU6tcZ6OGdNu/g9s7d7FJUC4jH8UouAHEK622LpmraC2wjFS7eRywrZC7NsCAKiGw7loK/wfNzeHixIuBgvbePzrnV4bQUO9sJtLbiYOfc8JV8kk8xMuc72hjHCFkLHmEgp+AOFqi6uXLwtagtz16Q7013JfpBXKdJEEAADFTrn2JkG4zNzNjxItXIwbm8Jafc19MwZTlDvmueQi0q0bfb8g2DlHEw6Mlv8Em6dwGSsyUewDCBdfRsXECjrlWjS8G9oKBbUSxmPfFgAAbYUqpakslk7O8xUtXOz31he3DNBoKh9Cq3MxzyUXH8b045ZVO+V7dmfbIRqSCFdeSNt13NF1KPYBhIsv5fkFgoTL/ZVO1LQ1yH7pKnCOtkJEwAMA0FaobljMuz2nXOeXDeYk69GvWV8aS9MT3SFIMpxu/bQ4xLnfs2wpcnWWY4WLdSpdOYZiH0C4+FJfV0c9/vmKIOmq+PA9CU659N9WyFp2UNgBAJBWqG7uFUZzUe/2SNf1Da33Qd0rjqGPYvtBlCRkZpJ7K7l1SlgQlxXpYm2HsgtXyTAyNtah2AcQLiF8mjVWkHDF93mFjNskaCssjtL3xfBwDoo6AACWIDvBKRcTtrv5re9pt/INNN7QF7IkAcO8etCVrVF4v7YhXXY/SOEhXMZDX6DQBxAuoRz55hvq0q4Db+Hq8mQ7+n2Ol/2nXPlhTj3YCgAADl+CXBGPwtVMQ2kMnZrva5d0sd9fXxLTOgkxD9IlRSvhzmn+eK9amuni6o3/zYofzrG/VZiPcJ0sR6EPIFxCaWxspMC+7wk65fo46A1pwjPKYvR3AdydgAXHAABttBVWpqJo/R81eVHcfi17pOvskgCLgQ7spGtCDNoLxcLm4RrRSmidiuH3T7bM/2v312pLuPLCyHjrLAp9AOESw+qFiwQJV7dOT9HllX72S1dRpA6DMjJRyAEAtMGhsdxTchSt9u/laubC8kBqsjCjzGa6piW4QaAEkhnqygkr3p8KdunYEq7yJDI21qPQBxAuMVy5dIm6Pf+iIOlaKEVEfF6ovi5Se0aigAMAaOuUy3zdQpH5kGsbQu2WrosrgyyGO7D0wmVZA7kWOchU2yT49KAz6yLwvlSTcH0zE0U+gHDZQ05SsiDh6v/PZ+juhsH2txWW6ufJla2oVgAAUKVwHRyDIvMx2EJje5MLL62yLF3s18qn+tP/Z++8v6I627b9H0RA7MZoEhG7AqJYQJDeexPFgmKvpNhiTyyx994RpIMNu2ASE01ixd6jUhTpjM/7rXV9c2+CEWmzp+zZe8/5w7Hed6kh8wScfR5z3fd5hTtYQqoaYKjyv8+1rX74eRSZcFXeSUfIBxAuTfj90iXq+JkRL+mKm9pX8ylXcqBMplujEN4AANjJJRPexgfRnbWaSdezHXUfL2Tc3OFP472sIVd1wGT0t3Xe+DkUo3Dl3UPIBxAuTSgrKyM/O3tewuXSqbXmFfEJ8tjJhSXHAADplmeMQ9Csg+KUUHqwyV0j6Xq81YNrQazr679JCqXV4wbjiOHH9e9OVnRloy9+/sQoXKnDqLKsCCEfQLg05fDuPbyEi3F81gDNjxWmhUi+IQjNhAAAlGfID9Y6+GK3j0YNhvc3ulFxct3POXbE8PzPnhTl1sfgZWucpzXl7PLHz51Yhev8PAR8AOHSBoWFhWT1RQdewhVs0Y7K47w1k64kab/BKs6NR2ADAEh7ynU6CmGzoSOGR4Lo/gY3taWLHU9kLYj1ff3cIyG0boI9hdhZGKRszQ4bgMXGYqCBWvjKv3Yh4AMIl7b4ac5cXsLV8bMmdHGhrUHv5GKfDiOwAQAkTdY0hE0Vpl0v9/pqVKjBGgzrO2LI+HuLH30XYjiLkplg7olxpJK0cPyMiVy4FI/PI+ADCJe2eHjvHnVr3oKXdA3r254q4g10Jxe36BhhDQAggylX5igEThUoSQnl9m2pK1331rtSweH6C6PKlaH33EpPmuzbT9ayNcWvH/2NJkLpTLjePkPABxAubTJ5eCQv4erUxIh+WTJY8/IMKR4nPDsOQQ0AIJOK+CkInDwoTAimR1s8NCjU8KSipPrvMLO9XaeXe3LLf2VVjOFoSbGznbll0Pg5kohwpSi/V5UVCPgAwqVNLmdnUycjE17SNcKmg8aNhVIsz0A7IQBATrASIARP1WGlF6xC/uFm9doM2fFEdsyQNSLWO1FLC6fsNd7cPScp3/GKGGJJmyY70ItY3NWSnHCd+RbhHkC4tE15eTmFubrxnnJdWWavYXlGgPSE6xLaCQEAWIQMqoo1WA28euLlTE93eNG7xOAG5S5nVwBtnzaERjpbSUKygtjRQd9+lDDPhV7Fh+DnRKrC9cdGhHsA4dIFJ9PSeFfEjxn0leblGVLayXViOAIaAEBmxHB3UxE+1YcdE2RLj9Ut12C7v3IP+lNZWv1H7krSq6Zeq6IH0wgRyhereN85w5Fb8MxEET8XEhKuurJZTgrCPYBw6YKS4mLysOnPu7Hwtx81u8tVKaHyDAUKMwAAcpxyXcRdLm1QmhpKr/b50r0NrmofN3y8zZPylPLFijrqExd2F+rqJl9OcGYE2FCYvfDHDocNseSOPLK7WWwKx+6f4WdARsL1/HeEewDh0hVxe/bynnKN6N+BKuK9DaI8Q3FqNMIZAACNhaDROvk3cYGcPKk79WJHDtkC5ee7vCn/UAC3SJl93doNh0O5o3u/rvOmA9850ZIRgyjaw5qGOlhSkK0WjgjaVt3Fmujdl5ZH2dGRuS7052ZfKkgMxfdarsKV6E+Vb54g3AMIl64oLiqiQeZdeAmX2WdGmk+5JFKeoTgVhWAGAMBeLqB6pXxqKL0+4McdG1S33fDjZcrs67C7X2ySVqCUurpEjE3G2GLlO7sCKGu1F6UtdON2X22YaM9J06LIQTQrbAC3/4sxJ3wA92srlL+3cZID7fvWidIXudGltd50b08A5dcjVxXKsN5Q+QeQqHCxhsKyYoR7AOHSJTvXr+c95Rpq3Z4q4jSYciX5Q7gAAEDfU67TYxFAdQiTo5dKUdKGfNXa9bXBlR5t9eAmYq/2+1HB4QB6lxDMHU0s1+JxP/a12J01dnySySS+r1IXrrDamez4BAR7AOHSNW8KCmigeWfeU65z8wdpNuXKCJPAHa5RCGUAAPlyaSZVHh+GECrQMmVWlMF2c91Z56J1Afv4aCI71nh3nSt3RJFJGZuQMTH7Z68vvVbKWe4BP8o75F8L9nsvlX+G/dkn2z2rjjfGBiilC/u0ZENGHcJ1cQGCPYBwCcHG5St4T7kCen2u2ZQrJVD8b0wnRyCQAQDkPeU6PxEhVOg7X+nhVHgkiJMbtliZHR3UlYDxOsKoFMEn1SUemGYZjnD9sQnBHkC4hCDv9Wvq91VHnlOuJnT0+wGalWeIvSL+eAQCGQBA9jXxKNDQf+lGUVIwN2ViUyW2ZFkICWPHEp9u9+TunLHjiHWVdAADEK6bhxHsAYRLKDYsW857yuVs1orKNZhyVaaKfxv9++zpCGQAAHmjfJ/D0UJx1s4XJgRxx/pYaQZ31G+bJydk7LjgvfWu3FSKydmnsN9jf4b9WfbPcHe9lF8jn931SgymMhwTNEzSQ2tnsQenEOwBhEuwKVduLu8pF+PwFGv1p1yJfuK/x3V+IsIYAABHC4HIyg+q2glZc2DdDMVCYqCacL24gmAPIFxin3IN/rIFvd3vqf6UK13c58SxiwsAYDithVEIpADImbSQ2jks/z6CPYBwCUlBfj5ZfdGBt3RtGWUh34r448O4Ji+EMQCAQbQWnoxEKAXAUIQrMZAq371EsAcQLqHZvPJn3sJl3dqUXu50k21FvOL8JAQxAICBLETGfS4A5CtcwTXzV0o4KUreINgDCJcU9nIxFgd0U3/KlSzyivjMkQhhAADDOVp4YbLyvS8C4RQAuZFaU7gU6SOpsrwEwR5AuPTBro0beQtXd1MTurfBWbYV8e+zpiGIAQAMR7rOTUA4BUB2whVUM38dG4dQDyBc+uLtmzdk370nb+ma4thRg0XIQSIvz4hCCAMAGJZ0nYlGQAVARrCsVeNIYeY0hHoA4dIncXv38Raujp81oSvL7WU65YrAlAsAYIDNhWMQVAGQjXAF1sxe5+Yg1AMIlz4pLioiD5v+vKUr1PILtZchi30RMqZcAADDI4Z770NYBUAGwpX8iXBlLUaoBxAufXMsOYX/lEtJxnf9ZbsI+X3WVAQwAICB1cXHcOVBCKwASF24Amp+0J39E0I9gHDpm/Lycgp0cOQtXc5mrejdQfWWIbMdEaJ+s8ochfAFADA8smdQ5YnhCK0ASFm4kvxr5q7LaxHqAYRLDFw6d546GZnwlq6to9VchpzoL/43rAvYywUAMNS6eIRWACQrXImfCNfv6xHqAYRLDFRUVNDY4BDewmXVypT+2aHeMuTK9FBxv2mdiKT3l2YigAEADE+6To1GcAVAssLlB+ECEC6xcu3qn9SteQve0jXPp4t6U64kCUy5zo5D+AIAGJ5wXZyC4AqAVIUrwbdm3rq6FaEeQLjExKxJk3kLl7mREd1e66TelCsjTNxvXMcj6H32dAQwAIDhFWjgLhcAshCuyr92IdQDCJeYeProMfVu8zlv6RrZvwNVxKtRE58UIP43rlOjEb4AAAZ4rHAUwisAUuNoeO0Pt//ciVAPIFxiY+2SpWotQ86cO1CeUy6uQGMyAhgAAMuQAQAiFy5lplJmq9e73envlUMoeaYNnd21AKEeQLjERuHbtzSgkzlv6XLr3JqKDnrxl65k8U+5qgo0YhDCAACGI1xnohFeAZAAJWnhdH9PAB1d4k7LRg4gl06tqWczE25nKstnsyZOQqgHEC4xcnj3Hur4mRFv6do11lK+Uy4UaAAADEq4xiLMAiBS3iSF0rmVnrQ6ejBFe1hTkG1vChzUm1x7d66VzSBcAMIlUkpLSshnoC1v4erT2pRe7VSjJj45UPxvcKxAIwsFGgAAQzlSGIVgC4CIKE4NowurvOjHUbY01MGSE6xPcephViubfTtuPEI9gHCJlfOZp9RahqxuTTx37hgFGgAAIA7hykRpBpAuFUfDZfO/5cnBINoT40ijXfvUKVkfY9/l61q5bMLQCIR6AOESK+Xl5RQdEqpWTfyttY78pSslUBJvfCjQAAAYAqiFB1KkPCOcnmzzpLvrXemfPT5Ulh4mUWEcSnd2B9DPY+0o3N6yUdGqxrZTh1q5bGxwCEI9gHCJmZwbN9RahjxqwJdUEcezJj7BVxJTrsqTkcowggINAICc93DN5I5RI8ADqfFitzfdXu38gXtK8XqXGCyp/w1PDwbRqujBFGJnobJoVdP/q3a1MlmEpxdCPYBwiZ2FMd/wr4lXkjlnoDzvcrEp17kJCGQAAPlycSrCO5BekUR8YA3ZqubhZndJHDEsTAmjvd84Urg9f9GqxvqLtrUyme8gO4R6AOESO3m5uWTd4Sv+NfHm6tXES2LKdWIY9wkwghkAQJb3t86NR4AHkjpGmHfIn+6sc6klW0+2e3G/L+rjg0our/ehCV591RataizatKqVxxx7WSDUAwiXFNizabNaNfE71amJl8qU62w0ghkAQJ7CdQoNhUA6ssUmWHVNtu6sdRH9Ha7C5DDaPMVBreODddGjRfNaWYztVi0pLkaeBRAusVP07h259+3HW7isW5vSSzVq4qWwl4uric+egXAGAEBhBgAiO0bIeL7LW9Sv/dH+QJoeYKMV0aqmq6lprSxm2a495eflIc8CCJcUOHX0KJk1MeYtXT+oUxMvlSnXmbEIZwAAeZE1DUEeSIbcA/71CtfbI0Gifd2/rPWm4Y5WWpUtRl3rfFj52YunT5FlAYRLKjXxUYFBvIWrE6uJX+Mo4ykXliEDAOR0f2sCgjyQDGVpYXXe3bq3wVWURRnsvlbaIjcKHWyhddli1Hf9g7VOI8sCCJdEuPn3NeFq4pMDpDHlOj0GIQ0AIKP7W6MR5IG0FgNv86wpXGucqSBOfCdl2G6t2FnOFGyrG9li1JfDss+eQ44FEC4psWBmDP+a+M+a0Ol5g+Q55TqGu1wAALkQg/1bQHK83u9XQ7gebHQTpWwdnuOiM9Fi+PXvWW8OS46NRYYFEC5J1cS/fq1WTbxHlzZUfIhnTXxSAO5yAQCAUNOti1MQ4IH0mgrTw+nZTi/KWePyoZ2wNDVUVK8x8QdXncpWY8K1ZdVqZFgA4ZIaezdvUasmfs84K/5TrvRQCdzlwl4uAIAMhOtMNAI8kCTFySF0Z53rhynX/Y1uVJomjlMyp5d7ULCdhV6Fa/70mcivAMIlNYqLisjDpj9v4bJp24xyd7vznHL5S2Qv13gENgCAtOvgT45AeAfS4CibbIVxUpV7wK/O4ozHWz30/jqvb/OjoQ6WOpetxoRrbHAI8iuAcEmR08eO1Vk/2hg/BXdXY8oVIv43/xPD6f2lGIQ2AIA0yZ6OEA8kw8u9vtzRwZw1zvXWwjMKDuvvakLukRAa62EtiGw1Jlwe/WyQXQGES6o18ewTE77C1a2pMT3a7MJPuhL9pDHlujAJoQ0AINE6+PEI8kCU5B0KoBe7fWrs1WL/f0Oi9eFo4QY3vdTDl2eE05IRgwSTrcZaCi3atqOS4mLkVwDhkiK3r1+n7s1b8pauqU5mVBnPc8qVJv4plyJzJIIbAECaxwmV718I90B0hRhKcWGTrGqBerTVgyvEYBJ1TylTqkhX3iHhryakL3ITXLYaEq7OTZvRo/v3kV0BhEuqLP72O/7LkJsY0e8/2fOfcolwieGnvM+ahvAGAJDYccIZqIMHoiU/NqCGdD3d7kUlSumqbiVsjHvrXbkFyYLtBTsQRMOdrPQiXJ2MjOvNXllnziK3AgiXZGvic3OpT/sveUtXhHV7Kue5DLkyNVgCFfHRCG8AAGkdJzw/EcEeiJq38f8dIXy42Z0rxFBFtj5I2g4vbheWzvdtKVk60lYvssXo0rRpvbmLNUwjtwIIl4TZs2mzWsuQj88awG/KleAr/inXiWEIcAAAaQnXqdEI9UDUcEcI17vykqxPeb7LmyoydJshflnrTUG2vfUmXN2bN6s3d82bNh2ZFUC4DLEm3r1LGyqJ5bkMOSVQAuUZkxHiAADS4NJMHCcEor2/xSZb+YerSjMaLMfY6EZ5B/3pwSb3Rv9ciY6WIpcpX+9Uv356ky1Gr1Yt6s1cYa5uyKwAwiV1MjMyeNfEd1RyaLI1/5r4jDBxC9fpKIQ4AIA0plsXJiHcA1EuMla1FOPuOlcqSQn9IGlPtnnW+efYPbCCw7r70JYtONanbDGsPm9db+aybNceeRVAuORQEz/S15/3lGvgF82p+BDPKVdygLgfFseHYScXAEAawnU6CgEfiG6yxSZR1aLESjPqk6iqXVuBtf75T//83fWuVJSku7ZjNt2aEWCjd+Hq1+HzBjPXk4ePkFkBhEvqXLtylbqYNuctXVtGWaixDDkUxwoBAECj44QxOE4IRMfrA34fROnZTm/u10rTwrhJVo32wQ1u3J+tT9rYMUT2Z7hWwxTdZoanB4P0enermkFmHRrMW8eSU5BXAYRL6lRUVNDsyVN4C5d1a1N6vdudn3Ql+YtbuE7hWCEAQOzHCScj4APRwfZsvYkP5CZbH5dcFCYEf5Au1lSo0l2so8K85sxl+j9OyHDo2rHBvLVi/gLkVQDhkgMvnj2jXq3b8pauFWE9+E+5xLwMGccKAQA4TgiAdo/upYdRUXII11oopte1eYqDKITLtXfnBrNWpLcvsiqAcMmFtUuW8hYui5ZN6fl2V1ktQ1ZcnIJQBwAQ8XHCYQjxAGiB70L6i0K4vKy7UcfPjOrNWjYdzajo3TtkVQDhkgMF+fk00Lwzb+la4NeV/5QrNUjES5DHItQBAHCcEAA5NyqmhtFo1z6iEC7/AT3JrIlxg1nr9vXryKoAwiUXYnft5i1cPUxN6MkWF/ksQz4RiWAHAMCyYwBkzD+HgynEzkIUwsXoamraYNY6uGMnciqAcMkFNrJWZxnyLM/OvKdcimSxLkOOoPfZ0xHuAADiInsG2gkB0BI5uwJEI1sMy7atGsxZM6PGIKcCCJecOJ6S2uBZ4rrobGxMjza7qLEMWZw18YrzExHuAADimm6dm4CgDICWuLzBR1TC1f+rLxrMWY69LKistBQ5FUC45EJZWRmFu7kLM+USaU284vQYBDwAgKioPDkCQRkALXFxlZeohMuh69cNZixzE1O6c+sWciqAcMmJ37KyeE+5ujU1pvsbneVRE39iOAIeAEA8ZE1FSAZAi5z40V1UwuVu2aXRnHVo5y5kVADhkhtjg0N4T7m+9zTnP+USaYEGuy+BoAcAEMfurTEIyQCouwcsLazWr538yUNUwuVr04M6GTXcVDhp2HDkUwDhkhvXrlylzk2b8RKuns1M6PEW/ne5FClBIrzHNQlBDwAggt1bM1GWAYAGvIkLFP2RQkb35g1nrr5ffk3FRUXIqADCJTemj4riPeWar8ZerqoCjTDs4wIAgE+nW2fHIzQDoAEvdvvU+rWrm3xFJ1zWX7RtMF+xXV2Xs7ORTwGES27cuXmTurdoxUu4ejdvSi+2u0m/QCNzJMIeAEDP060Y7k4pQjMA6nN/oxtVfHJ14eG+QNEJ1+DOXzWasVbMX4B8CiBccmTWpMm8p1wrw3qoN+USU4HG8WFc2EHoAwDobbp1fiICMwCa3N9KD6Pbq52pJLXmGpqCxFAa5mgpueIMtisV2RRAuGTI/Tt3qHvzlryEy6JFU3q735O/dCX6iapA430WFiADAPQ43ToZidAMgAYUJ4dwwpV3KKDGr1ccHUrTA2xEJVz+A3o2WpzBGqQfPXiAfAogXHJk3rTpvKdc26Is1JpyialAA8UZAABMtwCQLoVHgjjherzNs9bvbZ7iILpjhb1atWg0X+1Ytx7ZFEC45MiLp095T7lsO7Sg4oNeki7QUJyJRvADAODuFgASbihkwpWzxqXWscLf1vuITrgGfN2+0XwV4uxCFRUVyKcAwiVHFsyM4T3lSpzRT70pl0gKNBSnRiP4AQCEn26dQzMhANogPzaAEy7Gy72+NX6vKDWMxrpbi0q4XHqZN5qtupg2p8cPHyKbAgiXHHlw9y7vKZdfj7ZUdthbugUaJyIR/gAAeti7NQxhGQAtkPeRcN1Z60KlnyxBjp3tLLJ7XL24e1o4VgggXGgsVBmzz5pQ1iI79aZcCb76L9DgmgpnIgACAISbbp0eg6AMgA6Ei/F8p3eN33+bHEqjXPqISrp6tmz8HleggyOVl5cjmwIIlxy5e/s2dWvegpd0Rdt+pZ5wMZID0VQIADAcLk5FSAZAm0cKD9cULsbb+JrlXOdWelKwrXiEa2DHxu9xdW7ajG5fv45sCiBccmVm1BhewtXFxJjubXBWW7oq00P1e4/rwmSEQACAQDXwIxCSAdAiTK4+Fa6761ypJCW0RkX8zhmOohEuN4vOKuWr1YsWI5cCCJdcuf7nX2RuYspLun4M7q7+lIvt5tKncJ2bgCAIAND9UcIz0QjIAGiZosTgWsLFeLDJnco+us9Vmh5O26YNoSARTLoCBvYic2OTRrPVkJ69qbSkBNkUQLjkCKsijQ4J5SVcVq1MqfiQl/pTrlT97eZSnBmLMAgA0K1sXZiMcAyADmBSVZdwVUvXxyUabNJ1erknRTpZ6V26+rRr0/g9+SbGdD7zFLIpgHDJlcvZ2bwr4uOn9lV/yqXH3VyohgcA6JTsGWglBECH3FnnUq903dvgRkVJNVuR8xNC6dAsZ5rg1VdvwjWkW0eVstWUyJHIpQDCJWeCHZ14CVeQRTuqiPNWX7qSAvTzZn1yBAIhAEB397YyRyIUA6BDHm/zrFe4quvicw/6U8UnzcglaeF0Y7sfbZzkIHiToU+/HtwEq7Fs1bVZC3r98iVyKYBwyZWjSckq7Yr4b/RtRNdXDdFsyqWP3VwnhiMUAgB0QAwpTkchEAOgY14f8GtQuKp5tMWDipKC6/wahclhlLXai34eayfYkcNerVTbfbptzVrkUgDhkislxcXk2NuS15Rrvm8XjYRLL7u5jkdgFxcAQAclGWMRhgEQgOLkEMpZ46ySdDGebveqdcywRhFHahhd2eRLu2Y6UkyQDQXbWehEuOzMv1QpWzlZWHGZDNkUQLhkyq6NG3kJV982zejNPg/NpCtZ6KOFSuHKxi4uAAAaCQGQKg83u6ssXNU83OxBeYf8axRrfAor2ihIDKVf13nTge+caFHkIIr2sKYQLUiYd9/uKp0k6mpiTFknjyKXAgiXXMl7/Zr6tP+Sl3SlxNhoJlzcbi5hjxayZaQIiQAArRwjxGQLAMEpOBzIW7iqyVnjQo+3enBHE98lBlN5esMnbdjdr9dHQujaVj/KXObBidi6Cfa0cPggmhFgQ2Pdrbk7YcMdrShiiCWFDbaoQbi9JQ1ztOSOLtp3bEt2HVqQT/e2NKJ/B5rh0omWh3SnPeOsKHPOQLq5xpHy9nhQ2ZnZVFlRjmwKIFxyZcHMGF7CNcKmg8bCJfTRQsX5SQiKAACNCzIUp3BnCwB9wAox1Jly1VeywaZfL3b7UN6hAE7CytLDapVuNDQVK04N4yZjeQkh9M/h4Bq8ig/hfo/dGytJDKz7g+c4byqL9aJ3e90pd6szPVvvSIX3fkMuBRAuuZJz4wavRchdTIzp8RYXzaUrJVDA5cfjERYBABpUv0/nGk8RfAHQ4xLkpGBuWqUN6aqzYn69K1e88WynF73c68s1H7LJWuGRIO5OWHFKKJUqRYvJWXlGeC3Y0UX2++zOGZO4t8p/riDWn/7ZOISerrGnByts6c7SAXRjgQ39Ncea/vjOqgZ3d09FLgUQLjkvQh7p689ryrV1tIXmwsUdLQzF8mMAgLjva52fiD1bAIgEJkG6Ei5erKmDev7sn/NsaslVXVyZ3Y8Kn9xENgUQLrlyLDmFl3B5dm2jFeFSJPoJcrQQy48BAOpMtdh7B0IuAOLin70+4pAuFbm+1E4l4WI8ODwPuRRAuORKWWkpDTTvrLJwdVRye62jdqQrJQjLjwEAIrqrNZMUZ6O5lRIItwCIdzeXLo8XapNbPzvRle/7qDjlsqGS10+QTQGES678vHARrynXqqE9tSNcQhwtPD4MIRIA0MhEi4nWOBwfBEAisHtSDza5S0K6/prfX+Up1+PkZcilAMIlV+7fuUNdTJurLFxunVtT+WFv7R0t1HU1/KUYBEoAQO2a94tTSHE6ChMtACTZXjiUaxp8sMlN1MJ1Y5l949Ot763ozznWdGupPZW/+QfZFEC45MpwLx/VjxV+1oRurHbU2pRL10cLsfwYAFBd7/6eSRbbp3ViOEIrADKpjS9MCOaq3u9vcKOcNbqXqJy1LnR3nSvdU/77WGX9422eXMMhew0v9/nS6/1+lHfQn1u+zP7vyy3O9HKTI71Swqrgc7c5U8FOFyrc40bF+z24mviKw95UGa/MRFe3IZcCCJdcSY6N1duxQl0fLWQBC2ETAMO8k8UJ1tnxpDg1CkcGATCAqVdJSii9iQukV0rxebbDi6t7v7/Rje6sc+H2cLH7XzVYW/XrTKDYn+MEaqsn988ygXrF5EkpTm/iA7mjjOzrl6VV1cOrXOCVGqR6JkpW5qG3z5FNAYRLjuTn5VGf9l+qLFxeXdtQRZy39qRLh62FrNoZ4RMAmU+usqaR4sIk7i4Wt6T4ZKTy7z+OCgIAak7DPt2hVZGh+8bkyqNh/DLR7+uRTQGES658P2GiysJlbmREt9Y4anXKpauFyCyAIZQCIN27Vu+zZ/wrVJNJcW4CKc5EV929yhyJqRUAQBIokgJUz0NJQVSZfx/ZFEC45Milc+d5HStcN7yXdoVLR0cLWTBDaAVAxELFjv59EKrx3B0rbg/WyRFVQqXHUouilDB6diiILm/wofRFbrRrpiOtih5M84cNpJggG5rk05ei3PrQSBcrjtGufbhfmxloQ/OGDqSVY+xo54whlLLAjX5Z601PDgRRofJrIoACYGAo8w2vPJS1FNkUQLjkSHFREdl376mycHl0aUMV8doVLl0cLVRkjkSoBUA0d6qmkuL8hCqpyhxVVV4hkpZAdv8j90gIZa/25sRqTvgATqCCbXtT4CDtEKT8WkzMvgvpT9unDaHzP3vRq7gQKj+KQAqA7KdcCX48MpEvVb68hnwKIFxyZMn3s1QWrk5NjOjaz0O0PuXS+tFCZaDjPkVH4AVAWNjUih0BZMf/2LRKhHeqmGTl7PSng98707fB/SlksIXW5EpVgu0sKCbQhvZ/60S3la+lAvIFgDxJDeaXh07HUGVFGfIpgHDJjT9//53XscKlQd20L1zc0cIQLb7JRVR9so4ADICOBWt6lWCx44Aiv1v1aH8gJ1kTvPpSkMCC1eAETAl7TQe+c+JeI0IqADLiaDgpEnz55aH7J5FPAYRLblRUVNDgbj1UFq4B7ZprbwnyxyRo92gh+6QdgRgAXe61ihR92ClND6dLa7xpwbCBFKqHSRZf2GtcFDmI/t7ihyOHAMjlWGFKIL88lDGaFCVvkFEBhEtuLJ01m9eU6/S8QTqZcimSA7T3BndhEsIxANqC3cOS0PLgkrRwOr3ck6b59xO9ZNV55NDWghYMH0jXt/nhuCEAUicjjP+pn6vbkU8BhEtu/PHLL2TWxFhl4Zpg/7VuhIu9yaRp52ghW3yKoAyABmTP4P4eVe23ksjOHSXnVnrSFF9pilZdhRs/j7Wj57HBCK0ASHnKlRzALw+xmvjcu8ioAMIlJ0pLSsi2SzeVhatbU2N6utVVN9KV4KuVo4WohgdAPRRsmsUWCUtsifCtnf40K2yA4FIU5tCHpkd40Rgfe539O4Y6WFLcHBcqTkO9PADSnHKF8s9DZ76jyooK5FQA4ZITC2O+4XWscENkb51NuRRJ/pq/uZ0cgfAMAI+7WYrzk/5tFpRWkHmXEka7YxwpzF74O1oRTv3o9q+J9H+F16gi9wr9cWofzRzmrbN/34wAG7q1wx/hFQBJLkL253/q5+5RZFQA4ZITv168SB0/M1JZuIZ83ZKKD3np7mhhqoZHaI4Pq7rgjzANQIN7srhjgxK5m/UpObsCaKqf/o4P7lrxLf2/d9drwMQrdfcyinQbqJuJmlIsWdticVo4QiwAMl6EzJEaQZWF/yCnAgiXXCgpLibHXha8plzHZw3Q3ZSLLQDM0Oz4zPvs6QjUANR3P+tMtOir3BvapZW+yI3C7S31esfqyun9tYSrmvwH52nDgskUZKubyRs7PvnsUBBCLABSmnIl+vH/ADr7RxwtBBAuObHih/m8hCvM6gsdCpcP98akyX0uxYXJCNYA1BKtsUrRipBsYGH3mNZPsNf7Lq1gO0t6ev14vcJVTc5vSTQrKlAnr2G4kxX9ss4bQRYAqZAWot4H0A9OI6cCCJdcuHXtGnUyMlFZuMyNjOjqCgfdSleK+otAFWfHIWADIBPRYhQkhtK8iIHi2Jnl0Idy759rVLgYioI/6fSRDTop1gixs6DY2c5UloEjhgDIdcqlSBtOlYUvkFUBhEsOlJWVUaCDI68p13RnM90KFxunp6tXFa84NRpBG6AM4+w4yR4d/JhX8SH0TVB/8Swptu9Dr+6cUUm4qil8eol2LPuGazbUan38oKr6eFYggkALgBynXEouLsTRQgDhkgv7t27jJVxsyvV4i4tupUvdqvgTwxG4geHWu1+YrPw7ECmLgJJ7JISmB9iIazmxikcK6+LB1TSaEx2s/Xtdof0pPyEUgRYA0U+5/NX7ADonFVkVQLjkQH5eHvVo2ZqXdM3z6aLzKZd6VfERKM4Ahnl8kNujJY9g8jY5lL4L6S/KxcS3f0lQS7gY/3v7N51J3Eijvey0+pqm+PVDmQYAcmwsZCSHYCEygHDJhW+ix/ESrl7Nm9Lz7a66P1qYyj9EsN1CCOHAsKZaw2UTSsrSw2nJiEGilC3GhdStagtXNW+eZNGmRVMpxN5Ka69rondferAvEKEWAJnt5eKyUOY0qix5i7wKIFxS53J2Nq/yDMbSoG66n3KxN5oMfsdlFKfHIIgDw5AtdlfrWIRswkiFErbQWKyyxTiydbHGwsVgi5OvX4yj6UM9tfbaxrpb00NIFwDym3Ix/tiozGu4zwUgXJKmoqKCfAfZ8RKu3i2EmXLxrorHPS4ge2K4DxbkFkayVntRsG1vUQvXmrnjtSJcH5Ym512h2A3ztVaqMcatDz3H8UIARDzlClDzbrsfKR6iKh5AuCTPkf37eQkXY0mgMFMuRXIAvwXIWbjHBWQ82ZKhbD2PDaaRzlaili3G9AgvrQpXNY/+OkqzxwRp5TVO8OpLLw8HI9wCIEYywjTIQqFUmX8fmRVAuKTMm4ICGmTehZdw9WhmQo82uwhztDBV9QChODcewRzIU7bOTZBdACk/OpQWi/jeVo0dWIMtqTz3ik6kqzL/KiXt+JGGOvXT+HXODLSh/ES0FwIgyilXcqD6eejkJFKUvEFuBRAuKbNm8RLeU65Znp2FmXKxqvgMFXfOZI5EOAfyI2u65BcZ18XZFZ4UZNtbEsLFNRX+mqgT4fpv2pVB348O0Ph1Lhw+iIrTsBwZANFxNJzLNGp/AJ39E1WWlyG3AgiXVHnx7Bn1bNWG916unHVOwkgXj/tcqIcHsptunRotu+BRlBpGY9ytJSNbjNQ9y3UqXNy0K+8qxW5cQCGDNTtmuWmyA8ItAGKccqUGaZaHbhxCbgUQLikzf/pM3lOusbZfUUW8j6jucynORCOkAxnt2pouq0bCamJnO0tKthjLYkbpXLiqufNbEk0KcdXo9aYtckPABUB0hHMfIqt/6sefFI/PI7cCCJdUeXT/PpmbmPISLrMmRnRhga0wwsXG6Wkq3OdibYWXYhDUgYwq4OUVOPISQmiEBIoyPiXKezDXLiiUdBW/+JXW/zCJguws1Hq94fYW9PdWPwRcAMRGWoiGH0CHkiI3B9kVQLikSszYaN5TLp/ubankkJeo7nOxggGEdSAH2L1EuYWN+DkukpOtah5cSRNMuBj/e3uNTh/ZQMOcbdR6veM9rSn3SAgCLgAyWYb8gaNRVFn4AtkVQLikyJ2bN6lrsxa8pWvfhD6CTblUus+FKReQA8qfYbmVZbC7W+M8rSUrXMk7fxJUuKp5fO0YTQ1zV+8o5GhbqjiKgAuAbGriq0/9ZE4jRelb5FcA4ZIi30SP4y1c1q1N6eVON+GkS4X7XOwoFkI7kHY74TTZhYyLq7wkK1uMBRPD9SJcjJKXl2nV7HG8X3OQkmNL3RFwARAbKUGa56ELP1BlWTHyK4BwSY2cGzeoe/OWvKXrO3dz4YRLlf1cxyPQWAikfX/r/CTZBYwlEtm7VR/saN/bJ9l6k67/vfmb29kVas/vDtwwR0t6EYulyACIriZekwKNan79mSorypFhAYRLasyaOIm3cLECjd9+HCysdGWENr6XC0cLAQozVFtEnBFOeYf8qShJN3d+XseH0FAHS0kLF+OXY7v0JlzV/J65l4a59Of1utmSafY9RtAFQESkh2onD13dDukCEC7JNRY+eMB7LxfDo0sbKhaqQIMr0Wj8PpfizFiEdyDR/VtRgj74H2/zpNurnenOWhcqSQ3V+tc/vdxD8rLFWPfDRL0LF+Phn+k0zt+R12s/t9ITARcAsRVoJAdoIRP5kuI629FVgRwL4QJSYvm8H3gLF2PtsJ6CTrlY00/jrYXjEeCB9BoKT0QK9sAvTg7hZKuaB5vc6U1coFbLFlaMsZOFcI3ytKPy3D9EIV25989RTKSvyq892sOa3iSFIuQCILajhQm+WmlyVtyMQ4aFcAEpkZ+XR32//Jq3cPUwNaEbq4cIK10pQaiKB/JrKBTwgc/k6mPhqubhZnd6l6j53R8mbiNdrGQhXIG2vemvc4dEIVyMd88u0Q8TwlR+/fu/dULABUBuu7k+WoxcmZOKHAvhAlJi7+Ytak25Anu3o9JYL2Hvc6U3fu9EcRaTLiARLk4V9GFflhZGOWtc6pQu9uu5B/01+vqP9gfKQ7b+ZevS6aIRLkbpy8u0dFqkagUaQyzpOQo0ABDhbq4A7V23uJOO44UQLiAViouKyMOmv1rStXlkb2GnXGwp8lEVliKfHoMiDSD++1vnxgv+sH+517dO4apGE+k6tcxDVsI10n0QKQr+FJV0ledeoR9njFTp9W+a7ICAC4BcjxZWT7o46UKWhXABSXD+ZCZ1Mm7KW7g6GxvR9VUCHy1UZSky4+QIep+Fyngg5sKM0YI/7MvTw+nuetf6pWuNMxUmBKn1tXfNdJSVcDGunN4vKuFiVORdoYWTIxp97SF2FvTsUBACLgByPVr476RLcTsRky4IF5ACFRUVNCVypFpTLs+ubejdAU9hpUuFpcjVe7qq7nVh2gVEeH/r+DC9POxzD/g3OOViZRoVR/lXiy+W+P6tulgzZ7zohItbkPzPbzQrqvEjnFunDkG4BUCUrYWB2pWuG7FUWQHpgnABSdTEW7Rtp5Z0LfLvSpXxPuJaivzxG1vmKEy7gLimWxcm6+1Bz/Y03dvg1qB0vY0P4v01p/j2k51wDXcdQEXPfxWldL15nEUTgpwbXYaceyQEARcAUR4t9NNiLvKlyr92UWV5GTIthAuInR3r1qslXOZGRpQ5Z6CwUy6uRINH9TGbdp2Jxt0uIA7hOj1Grw/7gsOBDQrX853evL5eUWoYjXS2kp1wMU4nbBClcDEe/XW00eXICfNcEG4BkPFC5Br8vl4pXaXItBAuIGbKysrIZ6CtWtLVt00zerrVVZQlGjU4MZwU5yfimCHQ43HCmXo7Tvjfp6tDuTr4+oTr3gZXXl/vbVIoBdv2lqVwzY0Oof8rvCZa6cpK20bBdpb1vv5JPn2pJC0c4RYAMZIapP1slLWIKkveItdCuICYuXr5MnVr3kIt6Qrv8wWVHfYWZ4lGHaUa7FgXBAAIPt1SCr8YHvQvdvvUK1ysJp7VyKv6tZ4fCpalbHHlE/ZW9OTaMdEKF5PBrUtnNPi/4eomXwRbAERbFe+v/Wx0OoYqi14j10K4gJhZNneeWsLFWBHagyoFPlqocolGffe7Lk6FCADBYLKv7wd8cUoo3WuorVBJcbLqd3/u7g6QrXAx9q6eJVrhqi7RmBTsWu/rXz/BHsEWAEOoiv+Y4+OoMu8eci2EC4iVt2/ekHvffmrf5zqpj/tcqZrVH7OK7vdZ0yAEQLfTrYtT9PpgZ+2DbLKVs9alQdliFCaoXkxzY7u/rIUrynswlb3+XdTS9cep/fW+/lEufbh7dgi3ABjQfS5GivJrP/sN2RbCBcTK75cuUddm6h0ttGplSnfWOwkvXWmat3EpTkeh0RDobrqVOVJvD/Sy9DB6tMWjUdH6T7hU/xCDHVmTs3AxziRsFLVwMRZPHV7v6/9jow9CLQCivs8VrKOrF/6kuJ2EXV0QLiBWVi1arPbRQrafq2Cvh/AlGhla+BSXNRqeHkPvsyFeQB7TLXY88P5GN5VlC8JVm29H+oleuHJ+TaTgwXUXaOyYjp1cAIh/P1eAjjKSLykur6PK0nfItxAuIDZKiovJz85ebemaYP81VcRJpESj3ir5sUrxmgFhABoSo7fpVn5sAN1R4QghhKtxbv2SIGrhYgUac8eF1Pnap/n3Q6AFQAr3uRL9dJeRWJnG22fIuBAuIDZuX79OvVq3VVu6Vg/tKXyJRpK/dt8Aq3d4QbyA2s2EkwR/cL9LDKbH2zx5i1Y1b+IDVf533drhbxDCteLbKFFXxDPY0ce6XnuQbW8qSAxFoAVA9NIVppsSjWrShlPls8vIuBAuIDZid+0msybGagmXWRMjSpjeT/D7XIrkQO2/CTLxOhvN7VGCRABee7dODNepWL3e70cv9/pyPN/lzfv4YF0UxKn+d+jB3kCDEC5WEf/0+nFRC1fBo4s01Klfna//9w24xwWAJMgI1f0VjGv7sCQZwgXERHl5OU0bOVrtKVcPUxO6tMROeOnSsLmwfvEaphSv8RAvoNp060y0Tn4OyzPCObm6vcZZY7mqC3YUUdXX8jo+xCCEi7Fx4RTR3+X6ZkTdRzyPzHVBkAVAKqSF6D4nnZtDlW+fI+tCuIBYyMvNJWfLPmpLV7+2zShnnR6aC9NDdPdmeGK48s1qglK8YiAWoG4uTlX+rERo/WevNC2MHm5214loVfP6gJ/qU7aUMIoYYmkQwhXu2Jde3M4UtXCt+2Fina99zbjBCLEAoLmw1hFDxeMLaDGEcAGxcO3KVerWvIXa0jXk65b0aqebNJsLGxSvSO6ODgQDCLHkmO3S0rVsMdjxRJUr5zPCaaJ3X4OZcm0S+ZRr35o5db7u70P7I8ACILXmwpRAQbKS4vf1VFnyFnkXwgXEQNyevWrf52L49/yc3uzTQ128tpoLG0IZrhUXpkA0QNVRwrPjdfJzVnA4UOeyxXi+05vX61owfKDBCFeYgzU9u3lCtMK1f+3cOl/3eE9rKk0PR4gFAHXxdXMsmipfXEXehXABfVNRUUFzpkxVW7gYowZ8Se8Oekq3Lr6xN8bMUfQ+ayqkw5DJnsHd9dPFzxebPAkhXI+3evJ6XbtmOhqMcDFWfjdGtMK1Y1lMna95uJMVFaWGIcACAOlqIC8p/z1Xt1JlaSFyL4QL6JPCwkIKdXHVSLqmOppRaazAO7qSAgR8c2TLk6NQJY+iDK2Te9BfEOFiTYd8Xtf5nz0NSriCbC3oZvYRUQrXoinD6nzNwXYW9DYZ1fAAQLpU4PgEqnz+B+52QbiAPnn66DENMu+itnB1VDLbszNVxgvcXJgSKOwbJKrkDbMGXkfTLUZxcoggwpWzhl+j3cu4YIMSLkZMpC9V5l/lJUMv75yms4mb6PCmBXRg3Vw6euBnuv1LAikK/tKKbJW+vEyjPG3rfc1vkiBcAEhaupIElK4Ef1JcXkeVxfnIvhAuoC+uXr5M3Vu00mjStSSwG1XECzvpqtRVXXxjVfKs0fAXNBrKfrql/D7r8mep4uhQerDJXRDpKk3lF84n+/Q1OOk6snVxoxL0v7d/0y/HdtH3owO4yVhdXyfSbQBt/2km5T04r5Fw/XZid4OvF8IFACZd/NfsDKPK+yepsqIc+RfCBfRBcuxhMjcxVX/S9VkT+jG4O1XECSxdaSH6eaNEsYb8mwkzR+r854gtOhZCuN7E85sIG9o9LsZQx76U81tSvQL09MYJ+mF8WL2i9SkTg1y4KZi6wrVkWiSECwC0F+oAX1Kc/Z4UubeRfyFcQB+sXbJUKU5GGknX8tAeAh8v9KXKdP0FD8Wp0fQ+azoERZZlGRE6//kpSQnV2cLjj/mHRzU848Z2P6VY9DY46ZoY7EL5Dy/Ukp/sjB0U6TZQraOKxS9+5S1bT68fp1D7PvXLoYMlFaagNAMA+ezpChJ8v6kiUSl6f2ykyqJcZGAIFxCSsrIy+nbceI2OFpophW1lWA/57ehq7H7XmWgsTpbTccILkwX7+Xm0xUPnwsWOLrIjjKq+pvKMcIM8Vsj4dqQfFTyqkq7/K7xGaXuWU7Bd3cugQwdb0LfB/Wnr1CH081g7CqrjzyyLGc19HT7CtXHhlAZf4xi3PlSShlp4AGRFWkjVHi2hxStVmWFuJ1JlWTGyMIQLCEVxURGN9PXXSLoY3PFCIe90CbWjq8HFycNJcX4ihEUWu7fGCfZzI1RbYVESv+O3iT+4GqRwMVhZxb41s2ndDxNrHSEMsbOgRZGD6OxKT3r70bE+JrQZi904Cfv06x1YN09l6Xpy7RiFDLZq8PXNDLDhJdAAAImQEcatvxFcurjdXWOpMv8BsjCECwhFfl4e+Qy01Ui4uDtdQd2pXMg7XQLu6Gp4f9dIep81DeIiZeE6FSXYz0tZWpggxwqf7+K3ADn3SAhFOlkZrHR9Sri9JW2cZE+P9gc2KDt/bPSp9d+NSdvxQ6sblS1FwZ80f2J4o69l2WhbBFMA5IoyxwhepsG4MJ8qy0uRgyFcQEiePX5Cjr0tNZauOV6dqeywgNKV5C8K6eL2d50Zixp5qQqXAIUZH/N4m6fOhevOWhcq4dlWuNsAyzNq7+nqTYsjB9GDvaoXj9zdHUDjPK1rfJ0wB2s6Fb++3kkX+3XWlKjKazr0vTNCKQA4Yqg9TkxAZTyEC+iLu7dvU3+zTppJ17/LkYWVrgDxvGHimKE0GwpPRgr6c5IfGyDIsUK+U65X8SE0zNHSYGWLTapOLfNQ6/je89hgmh5g88nCYkvat3o2Veb/WUu22F2xxo4SVvPbeh+EUQAMZdql4xbDypRwqsy7j9wL4QL65Pqff1Gf9l9qfKdr9MAv6c0+D+GkKzlQVG+aisxROGYoJeFSirKQPx9l6WHcBEr3S5D53+U6NMvZIGVrVugATpo0+b4WJIbSvKG12w0nhbhS8s4f6eqZA3Q+ebNKxwj/kzYLVMIDgLtdWluIXPnsMvIuhAuIgT9//516t/lcY+kKsWhHL3e6CSddKUHiesNkbYZn0WYojQnXCMF/Pp5u9xJkyvV4qwev11WUGkbjPzkeJ3c2TLSn4lTtNJ+yr7M8yk5rr2122ACETwAMddqlzSOG7GvlJCPnQriAmMg6c1Yr0uVm3poebHIWbjFyapD43jRPRGJpsujvcI0S/OfiTVygIMLFKIjjNwH+Za03BRvIXi5W716u5XugpenhXHW8NnabsfZIhE8ADPhel7YyEtvBVVGBjAvhAnKVrv7tmtPfKx0ElK5gUb5xKk5HcQt2ITgiFK7TYwT/eWC7r+6udxVEuO5tcOP+fXxe39rxg2UvW3PCB9C7VN3s9Cs/OpTi57pwRwLVfX1hgy00PuYIAJA22phy3dwSRHkvXyDbQriAWLl07rxWpKtnMxM6OXugcNKVFiLON8/jw1CqIco9XOP18vNQcDhAsCnXy32+vO8jTZLxMuQZATaUn6j7u1Hnf/akcHv1pGvJSNTBA2DwwpXkr1EeurXWkaxamVKwoxOVlZUh20K4gNylq4uxMe0YY0kV8QYuXR9KNaZDdsQiXBen6OXnoOJoOD3Y5C6IcLGSjlKeNfE3d/hTuIOlLGXrdbxw7w/Xt/nRWHdr3vX0bMcXAicAEC51cxC7R+/wVUuyaNuOrl25ikwL4QJSOF7I/sJqKl1mnxnRXO8uVBrrJYB0+VJlunilq6pUY7wy8KNUQ+9cmsl9P/Txc/Bqv59gU64Xu/kH+GNL3ClIRrI1zb+foLL1cW08K8BQ+bij8s/yPQYKAJChcCWqJ1yFBzwpxLIddTJuShkJiciyEC4gFf745RetVMYzIm06UO5ud91LVwKTLpFXKp8cgQp5MTQVCrz8uJrChGDBhIubcqXxv7O0ZaqDLGTru5D+3K4xff1dL1b+t985w7HRMg32+1c2+SJsAgDUusNVftib24nK8taaxUuoAmUZEC4gLa5d/ZMGdDLXinQN+bolXV81RKBJl9j32KBC3lDvcZWkhAomXIzX+/3Uat3jM50RI0tH2tLb5DBR/H1nRwUnetd/P+6nUbZqLV8GAMhwHxff6xRKlgZ143LWxIhhkC0IF5Aq93JyyKFHL61IV+/mTSn1GxthJl0ZElgeyqZdF6dCgPRB1nROfAWfeiSHCCpc9ze6qfU6X8QG876HJAbYtIhNlZg0iunv+ruUMEqY51LrvynbgfYyDs2EAICh3H5RvnlnV7QVd33Dz86e3hQUILdCuICUefroMXkPGKQV6erUxIiWh/agEl3f65KKdLFp1xlMu/Szj0v4Y4VlaWGCChejJFW9vwfXtvlRxBDplGgMc7SkzJ88qELEf9+ZeLGJV8oCV8pc5sG1QyJoAgDUOU54fNYAMjcyokHmXejB3bvIqxAuIAdyX72iCE8vrUhX9b2uf3a4Qbo+TLsiMe0SWrjOT9TL9/r+BjdBhYvV0av7WtlS5BANdksJxcxAG7q3JwChDQBgEEuPL/9kT72amVD3Fq3ocnY2ciqEC8iJonfvaPqoKK1J18AvmlP2YjsBpCtMOp9wnRmLaZdgbYUxVHliuODf4zdxgZSzRsV9Wnt96dU+X8HbCj8ma7UXDRVpXTyTwb3fOHEFFQhtAADpthP6qZxrctY5Ub+2zaiTkQmlxsUjn0K4gBxhi/R+mjOX+4uuDenqbGxMW0ZZUNlhb8NuL/yYE2zaNQVCJEh5xjj9tBUeCaLHWz24JsG6JIkJ2T97fKrKFI5qNhVju78qNSxluLrZl0a59hFdCyHbHYawBgCQNKnBKueZZ9tcuV1bHT8zonVLf0QuhXABOcNacPZv207dmrfQ2rRr9MAv6YUujxhKTbq4u12Ydsl5Jxd3pys9jN4lBlPeQX9OsNg0iu3qKkqqWWfOyi80useVovnP/uMDQfRNcH+9ixYrnji21J1K0rG3CgAgcY6Gq3x3680+D/Lq1obLTN9Ej+M+AEcmhXABA+DsiRNk2a69Vo8Ynl9gq2PpCpHWm/EJ3O3S+ZTrTLSofwaYLOWscRG8Hr6+3VLsCF/oYOHvdY1ysaLDs53pbTKKJgAAMjlKmBygUn4pOuhFw/pW5S12n76wsBA5FMIFDIk7t26Rk4WV1qSL1Zv+FNydig/prsWQXU6V3Jsypl26I5tNuYaJ9nvPJl7aqIevOKq9iRArqFg8YlCjS321wWSfvpS60I0Kk3FPCwAgI9JVK8oojfWiiQ4duYzkZt2XKzFD/oRwAQNtMBwdEKQ16WL49mhLN1c76lC6JLj7Bk2GsrvLpQrPdnjpva2wLtj9suvb/GjZaFsKt9duqcZIFytaFT2Yq1Avy8DRQQCAYR4lrIjzptlenblc1O9rM9S/Q7iAoVNcVETL5s6jTsZNtSZdvZo3pZ1jLXVWqFGZGiTBN2rs7dLZXS49NBaqQn5sgNaWeYTz9AAAKalJREFUIJfrSF5eHA7mdkv9EDGQ24fFV7DCHSxpql8/2jLVgX5d541jgwAAeR8lTGr8KGFlvA+3t7TjZ02od5vPUf8O4QLgvzINVlHao2VrrU67RvTvQI82u+hm2pUSKM037JMj6H0Wpl1y2Mul0sLcxGCuIv6ehju82NfQ9Wt9mxRKN7b70bEl7rR7piP9HD2YFkcOojnhA2je0AG0SPn/rx43mHbHOFLGYjf6a4svvY4PQQgDABiGbKUGqZRPtkVZUEdlBupi2pyOJacgZ0K4AKjJ9T//Ihcra61Kl0WLphQ72Zoq4nUw7UqW6sLUCFKcjVbKAqZdWpOuzJGi/p6zY3x5h/zrrZNXBVZJj9ADAAD6uLcVqlIuOTjRmrvTbtbEmPZt2YpsCeECoG7ycnNp8vBIbleEtqSLjdVH9u9AD3Ux7Ury585US3faNQ3CpA2U/x2l8D0vTg5Re9p1d50r988j/AAAgIBkhKl0bytpRj9uRynLPasXLeZODyFXQrgAaHBJ8s7166lrsxZanXZZtTKlAxP7aP9uV6If94YoyTfy4xFc8QPudmmjJn6sNKQrJZTurndVT7qU/xw7pogQBAAAApVkKDNGYznk2PcDqFtTY+7D6u8nTKTy8nLkSQgXAKrxW1YW2XfvqVXpYgy1bk8565wMfEHyJ2SOpPdZ0yFOMi3QqHW3KyGYctaod7SQHUtkxxMRhgAAQNclGf6N5o+LC22ph6kJl2/GBodwZWTIkBAuAPR+xJDR1cSY1g3vpfW9XZWpEv70n027zo3H3S5NplwXJkvm+5170F+jIo3HWz0anHax/V3s7hhCEwAAqLPcOLDRzHH5x8HUo1mVbIU4u9CbggJkRwgXAOofMYzdtZt6tW6r9WmXm3lr7tMhrZdpHJXuDiBF5ih6n41pl9rSdSpKMt/r57u8Na6Nf7TFg5t4FSYEU8HhQO5rsir5nLUu3DTsyXZP3P0CAAA+z+GUxhsJf1PKllVLUy7LePYfgMXGEC4AtMONv/4m/8EOWpcucyMjmunaiV7scMO9rg/TrmFc3TkESg2yZ3D//aTwfWZTqBe7fej2Gmet7Oyqi5w1Lmg4BAAAlevfgxvNGNdXDSHr1lWyxa5ePH30GDkRwgWA9nhX+I6Wz/uBzE1MtS5efZRvXnvGWVGptko12L2uVGkXDChOjeYEAiLFdzfXBEl9n9nRQCZej7d5cm2E2pMtZyo4HIAQBQAAqpAW0mi2uLnGkfq1bcbllv5mnej29evIhxAuAHTDLxcu0pCevbUuXQzvbm3p0mI7LVbHS/uIYdW0axJEivdurlGS/H5XZITTs53eWhEudk8MIQoAALQjW2yyVS1bVl90oD9//x2ZEMIFgG7Jz8ujedOmUyfjplqXLrMmRjTNyYweaWt3F5t2pUn7HovidBTXxAeZUvVo4XSuiESK3+vStDCNZevVPl8EKAAA0JJs3VnvRP0/b85llN5tPqdfzl9AFoRwASAMbLHf6WPHaHC3HjqZdlm0aEprh/Wit/s9UajBODGca+KDUKk45To3XrLf6/tqLkhmvNjtjQAFAACqkN64bN1VypZdh6rdpN2at+ByDzIghAsAvUy75kyZqpNpF4O90SXN7Eflcd6YdrFp15mxWJasEjHcjjMpfo/z1KyNf7rDC3XwAACgJdl6sNGZbNtXyVYX0+aUGheP3AfhAkC/XDh1mpwt++hEuhj+PT/nauQrMe2iyhOR9P7iVEhVY2RNU/73kt7RQiZNrNKd726u8oxwhCgAANDCMcJ7G/6TLVYWFrd3H7IehAsAcVD49i0tmzuPG7vrQrrY/a6oQV9yl1fRZBhBirPRmHY1drTw7DhJfn+ZPLGJlSqy9XCzO5WnhyFEAQCAFmTr2s9DaNC/stXJyIQO7tjJXaNAzoNwASAq/vrjDwp2dKKOnxnpRLy6mBjTt27m9HCTsxaaDP2lvbfr5AhukgO5qgelkLKJoCRbC48OpZf7fBvc1cUWHbOiDQQpAABoTLaCVZItm8+b/fshrzFtW7MWsgXhAkC8lBQX074tW8myXXudHTPs0cyEFgV0pZc7tbA4OSVQuscMj0dwJREQrHqmXBenSDoksH1abInxp0uNn+/ypjJMtgAAQCtLjW+udqS+bf6TrU0rViLPQbgAkAYvnj2jGaOjuLG8rsSrV/OmtCq8J73e7a6FUg3pHjNk+6dYJTokqw7pOj1G0mGhJCWUChOC6W18EBUeCYJoAQCAqs/GlKBGn/+//2T/QbbY6ZyVCxZisgXhAkB6FfKXzp0nn4G2OpMubhlhK1PaENmL8vd4aOGYYaiElyVPhGTV2s01g/tvg/ABAAAGJFvJgY0+839bOpgsW5p+mGytWrSYysvLkd8gXABIk6J372j3xk3Up/2XOhUvtg1+44jelLdHw4lXsnSPGSpOjeYkA7L18W6uCQggAABgCCif3YqkgEaf82fnD+L2flZPtn5euAiyBeECQD7HDGdPnkKdmzbTuXitj+xFBXs9NDpmqEgNkqZ4YVly7d1cJ0cgiAAAgOxly7/R5/upuQOph6nJh8nWih/m4xghhAsA+XHtylWK9PbVqXQx2KdXP4f3oFealGtI+H4Xu7/0/tJMCBfj4lSEEQAAkCsZYaRI9Gv0mZ76jQ3XeFydExbGfAPZgnABIF/Y6P54Siq5WffVuXixco3Fgd3o8RYX9cVL+UZemS7B+10nIrm2PkjXN6Q4FYVQAgAAspOt0KpTKY08xw9OsqbOxka4swUgXMDweFf4jvZs2kz9zTrpXLx6NjOh79zN6dYaR6qM16BYQ3LiFUGKM1iWzJocWZU+AgoAAMhooXEjssWe91tHW1CnJkYf7mxBtgCECxgkebm5tGL+AurVuq3OxauLsTFF233F1cFWqCteyQHSW5yMZclK8RyLgAIAAHIgtfHa94o4b1o1tCd1/Pf5z93ZUmYNHCMEEC5g0Dx7/ITmTp1GXUyb61y82BtwiGU7yviuP5Ud9jYM8WLLks+O44okUBMPAABArrXv7Lk+z6fLf8/8f9sIIVsAwgXAv9y9fZumjhglmHg5fNWSdo+zUr9SnlXJS0m8To6k91mGuSyZCScCCwAAyLeJsOigJ00Z0vHDc76TkQltXvkzjhECCBcAdS1OZo2G0SGhZG5iqnPxYli3NqXFAd3o3gZnNcTLlxQpEtrhxaZd5yYY3rTr0kxMuQAAQKZNhGwlTKRNhw/PdXaMcPvadZhsAQgXAI2J19XLl2lscAh1Mm4qiHix2thxdl/RxYW2VB7nzX+Hl4TES5E5yuCWJbMSEQQYAACQTzkG458dbuTX4/MPz3L2YS0r5kKWAhAuAHhw5ddfq8TLyEQQ8WK4mbemPeOs1FukLJWjhseHkeL8JMO6y3UMjYUAACD6DwVVKMdgsJMpjh1b/ffBqWlzit21G9kJQLgAUHfi9dcff3DiJdRRw+pFynO9O9PfK4fwr5WXSLmG4tRog5l2scXQCDMAACDm+1oBKj1jWetwv7bNPjyvuzVvQWnxR5CZAIQLAG0dNZw8fIQg5RofjigYGVGQRTtKnN6P3uzzUEO8RL7H68RwUlwwgGlX1lQEGgAAkPB9LUbmnIHcns3qZ3T3Fq3o9LFjyEkAwgWAtrl17RrFjI3mPtUSSrwY7BO1BX5d6cZqnsuUkwJEv0BZcTqKK5iQs3SxtkaEGwAAkN59LfbMPTCxD3fn+sNJlLbtKPvsOeQiAOECQJc8evCAFn3zLfVu87mg4tXxsyYU1LsdxU62pnw+d70S/bmHi7inXZPle6zw/ESEGwAAEMsHfSmBKj07K+K9aUVoDzJrYvTfB6BfdaQ/f/8dWQhAuAAQitxXr2j9T8tokHkXQcWL0bt5U4px7US/LBms+kLlRD+leAWLttmQ3XeS5bSLq4hHeQYAAEhhv1bVji0vmuZkxu3QrH7uDu7Wg3Ju3ED+ARAuAPTBm4ICOrRzF3nY9Oe2zAspXmafNSFns1a0blgverDRWbUjhwm+VJkSJE7xOhFJigtT5DflOjUaYQcAAPRFeqhKRwgZL3e60VDr9jWbhK370uOHD5F5AIQLAH1TVlpKp44epeFePoLt8vqYzsbGFKF8SMRP7avakUP28BFppbzizFhZTbtYHT5CDwAA6OMIYZDKR/DvrHMil06tazxbAx0c6Z/nz5FzAIQLALFx/c+/aPbkKdSzVRvBxYvRo5kJTXHsSKfmDqSSQ17SLNhgd7suTsGxQgAAADo9QsjIXmxH1m2a1XiWRgUGcadYkGsAhAsAEfP65Uvasmo1Ofa21It4dfy35XCeTxf6dakK971EeM9LLtMuRSbaCgEAQGxHCNlR/LipfamLsXGN5ydrJS569w5ZBkC4AJAK7E37RGoaRXr7CrrP69OWwyFft6SfgrvT3ysdGpYv9qBKEdFxQxk0GSrOjkMIAgAAER0hLI314p6JnT5qIuxkZEJLZ82msrIy5BcA4QJAqouU2T6vxd9+R9YdvtKLeFXLl0unVrQmoifdWuNIFXHekjhuKOkmw4tTEIYAAECni4xVP0JYsM+Dou1qPoc7N21GO9atp/LycmQWAOECQA4Uvn1L8fv2U7CTM5k1MdarfLl1bk2rhvakm0r5qmzouGGqCI4bSnXadSkGgQgAAPS4yLiah5tcyKNLzTvWPVq2ptS4eOQTAOECQI6wT9Ju/PU3LZgZQ32//Fpv4sXVzDcxIqeOrWh5aA+6uqKeY4cf2g31O/VSnIqi99kzJCVdrPYe4QgAALRYjJEcoLJoMc4vsCXr1qY1nn192n9Jv1y4iEwCIFwAGAIF+fmUHBtLER6eervr9bF8OXzVkhYFdOUKN9giyNpTL3/9lmwcH0aK8xMltI8rCgEJAAC0Vozhp7JosaPzu8ZaUleTmidKWKnVzb+vIYMACBcAhnjX686tW7RywUKy69pd8IXKdTHwi+Y0x7sznZs/iIo/rZrXc8mGInMUvc+ejuIMAACQPeHc84bPVIt9YPiNmzl3hP7THVvPnzxF7gAQLgCwULmUzp/MpBmjo/S21+tT2K6Sb93N6eScgbUnX0l6mnodj1AKzXil2MSIeAHyRIQlAABQuxgjlLtPzEe2Hm9xoYBen9d6jk2MGMbdpUbOABAuAEAN8vPyKG7PXlEcOazGsqUpTXc2oxOzB9Db/Z51TL0Evut1cgTXCChK4bowGYEJAADUgUfd+8f3tWw+r7nMmNW+/zh7DmrfAYQLANB40caDu3dp04qV5NHPhjoZNxXH5Kt1lXydnD2Q3uzz0GPDYURVhXy2yCrks6YhNAEAAO+6d35TrfI4b9oyyqLWfa3uzVvS/q3bUPsOIFwAAJ5HDsvK6O8/rnCLGtl9L31WzNdofVLK1wwXM+7Y4buDnh81HLK9XiECl2qI5Jhh1nSEJwAA0OFUK3+vB00e0rH2M6n9l3Tu5EnkBgDhAgBoft+LVdvOmzadbDqaiUK8qidf37qZ05kfBlFprNdHRw6DhCnaODmS3l+cqn/hyoZwAQCALqZajOurhpBLp9a1nkFOFlaUc+MGcgKAcAEAtEtpSQlXtvHd+Amika+OSvq1bUazvTpT1iK7/+RLoCOHVccMZ0C4AABArHu11JhqVSo5PMWaejQzqfXcGeHjR7mvXiEXAAgXAEC3sCYmdpSiWr7EUDPP6nltO7SgxYHd6MoyeyplS5bZ1CspgCrTQnQnX+yYIWszvBSDO1wAACCmvVpqTLVYWdP3HuZk9slzjR2vXzAzhorevUMOABAuAIDA8lVYSBdPn6G5U6fRgE7morjzxeTL2awVrRrak3LWOXELKqvuewVyD2GdPNxPRJLi/CRhheviFIQqAAD4dKqVHMBbtBg3Vg8hz66116WwFt8D23egHANAuAAA4rnzteT7WTSkZ29xHDtUypdP97Zcw9TTra46X6ysODmCFBemYA8XAAAITWpw1fu7GrJ1cJI19azjCCE7xfHL+Qt4xgMIFwBAnG2H165cpRXzF5CHTX9uV4m+5auzkRGF9/mCYidb06udbh/ue+mkbCNzJCl0vL+L3SFDyAIAoBSDHR/0V0u0cne7cy2E7MO5T58ZQUOc6PHDh3imAwgXAEAak6+bf1+j1YsWk2f/AdS5aTO9yxf7JHOC/dd0fNZHC5a5sg3typcic5SOxCuGuz+GsAUAMOzjg4FqiRYje7EdOXzVso6TEUb0/YSJ9PbNGzzDAYQLACDNJcu3r1+njctXkFf/gaJYsmzzb9Ph7z/ZUxkr29CBfCnYxOvCZK3t8GL3xRC4AAA4PshftEpjvWlFWA/qYlz7znG35i1o98ZNVFFRgWc2gHABAOTBnZs3OfnyGWgrirZDp46taPXQnnR3vdN/D2htyhcr1zjHWg1nqi9cyn+28sRwBC4AgAG2D4ao1T5Yze21TuTf8/M63/8HmXfh7iHj2QwgXAAA2U6+7uXk0NolS0Vx58usiREFW7TjLlK/2uVeQ760c+crghSnRldNvfjIV/YMblqG4AUAMLjlxUn+aosWO72wY4xlnbu1GBGeXvTi6VM8jwGECwBgWHe+Vi5YSC5W1nqXr17Nm9JEh450et4gKjro+Yl8VVfNa7Dni+3yYvJ1bgK3W6tKwD46esh2fGVP5/Z94d4WAMDgREvNmvdq7m90pqHW7aljHe/v5iam9OPsOVRSXIznL4BwAQAMV77++uMP7oFo372n3vd82bZvQUsCu9HN1Y5UEe/930Od2/OlpSXLxyOqjgyejKwCxwcBAAZXiBHGfaCliWiVHvam3dFW1LtF3XeF+7T/ko4lp+C+FoBwAQDAx/L168WLNH/6TOpv1knv+73YPYA946zo9cdHDjl8uaMv7FI3Cw0ITwAAIJxoMW6ucaRQyy/qfQ8PdHCkB3fv4tkKIFwAAFAf7PjHuZMnaeaYsdynlPqUr25NTWiiw9fckcOSQ161H/7V9764o4cIVAAAUPfRQc1Fq3C/J62O6EldTOo+DcGacRd98y2OEAIIFwAA8KEgP58yEhIpOiSUerVuq9epl12HFrQ8tDvXhFUZX0cg+HD0MFjzo4cAACD51sFQjcowqmFHvE/NHUjOZq3qXwHS0YyOp6TiCCGAcAEAgCb88/w5Hdyxk8Ld3LnL0PqSL3MjIwrv8wUdmdaX3uzzqD8ofDz9goABAAxlYXFqkEb17h/D1niMtf2KzBpYLTLM05seP3yI5ySAcAEAgDZ5eO8ebVqxkquZ1+eRQ4uWTel7D3O6ssy+7qnXx9Mv7u4Xq53H8UMAgLyODHLLirUwzaqGrexY6N+VujWtv0ypa7MW3HOgrKwMz0UA4QIAAF3u+Lp25Sp3bt+2c1e9Hjl079yGdkVb0j873BoPFJyABVSVb2SgfAMAIP7JFfdexSb27Nh0SlBVpTt7L9OSZDFe7nSjlWE9uJUdDb3nuvftR1d++w3PQQDhAgAAIXlX+I7OHD9OU0eMot5tPtebfLHlm1OdzOjiQlsqjfVSLWh8KmA4gggA0KdcMbFK/Veq2PFALYvVpxXvf65woHk+XciiRcOixYoxWJvtm4ICPPcAhAsAAPRJ7qtXFLdnL3ffq3PTZnqberl0ak2bRvamF9vd+IWQf48g4g4YAED3chXCvdewD30UCX46EytGJWsbPOBJvy4dTJuV740T7L8m+69aklkTo8Z3JXbpRqeOHsUzDkC4AABAbNy/c4fWLf2RHHtb6m3q1dXEmAsW5+YPovI4b/XCCvuUOTmw6jgPjiECANScXCmqJ1c6lqtqig95UfZiO1o1tCeF9fmCOwXA5/3TrIkxfRM9jvsgDc80AOECAAARwy5Ws+XKsyZOIqsvOuht6mX/ZUtu6vVsm6uGQcZXKWH+H0kYJmEAgE/KLNJCqnZgJQojV4yig150+Sd72jiiN0X0bU89TE2oo5rvmXZdu3NTLdS9AwgXAABIjPy8PEo8eJAiPL24piu93PVShpBJDh3pwkJbKjvsrZ2ww44icpOwAO5TbBa2cCcMAAO7d5UUoNM7V5/ClsLfXO3IlQaNGfQVWbc25T5c0uT9sYtpc+6uVl5uLp5ZAMIFAAByOHK4ZvEScuxlwR1dEXzqxRq3Orem7WMs6fUud92EohoiFox7YQDIQbDY9ColsGrSLaBgsWPRT7a4UNzUvjTNyYxs27fQWLA+xmegLXcaAc8nAOECAAC5HTksLaWLp8/QjNFR1L1FK71MvXo2M6EY1050Zbk9d7lc5+HpXwlDPT0AUjgeGPxfa6BAclVN7m53Ovr9AJrn3YUrA2poEbG6WLZrTzvWrafSkhI8kwCECwAADOHI4f5t2ynQwZE6GZno5a6XT/e2FDvFmt7s8xAuWFW3I6aiHREAQzweWA1737m4yI5WhPYgv56fU2dj3U3/2fHB2ZOn0Itnz/D8ARAuAAAwxKINtlh5wcwYsuloppepl3WbZrQksBvlrHOiynhhQxcWNAMgYHsgV83urxfBYk2Cf/88hLaOtqDIfh0a3YelDcxNTGlMUDBdu/onSjEAhAv/EQAAoJJbtJlyOI6Ge/lwQUFo8epibEyjBnxJmXMGaq9kQ50jiCmBVZ++IygDoIX7V356+bvM7mE93ORMhyZZc+U9A9o11+o9LFVE63J2NkQLAAgXAADUzZ1bt2jF/AU00LyzXqZeTh1b0bYoC8rb464f8aqefrH7X6wJESEaABXuX+lPsBivdrlTxnf9abZXZ3JUvocIJVjVDOhkzp0WuH39Op4jAEC4AABANUqKi+l4SipFBQbppV6elWyw8HRj9RBhSjYak690yBcAnGCl/ltwoYfjgdXk7/Wg8wts6afg7uTdrS2ZGxkJ9t7UvXlL8uo/kOZNm05H9u+nW9euccVEeG4AAOECAAC1YMdiHt67R6sXLSb77j0FF6/OyiA1rG97Oj5rALcTR6Fv+WLHDjNw7BAYWsGFv14F690BT7q63IE2RPaiodbtqbcA97A+CFaLVlyd+5LvvqfMjAx69c8/VF5ejucDABAuAADQPkXv3tGJ1DRu6sXatwQ/bmjWinaOtaS8PR76Fa9/73xxhRtoOwQouNA67C7n3fVOtGecFY2z+4ps2jYT7kOeps3ItY81/TBtBh1LTqHnT57iPhYAEC4AABAetlT554WLuLsLQouXZcumtMCvK93f6Kx/8TpSfeQQUy8g8QXDev679GybKyVM78ft6xv8ZQtucbpQ7yl2XbtTzNhoSjx4kB4/fIj3eAAgXAAAIB6Ki4ooIyHx/7d3929ez/kewP8Dmm6mdEs1TWW6vy+jMkXTndIdTizJbSKKs8VKtW7DrpRFo1KhkFN2EeK4PZLs5uZwHWcRQkW1ZO2Pr+P9ybTWcRxL853vTI8fHr90dXXVNN/P9XnO+/16vuKU4SNz3nCY5jbO7t8qnp3bP75aPTI/Tr3WOfUinwsuJlR7wUWljyrKs6vCV4z6ZuHwobmbw0qrMM4+8aS463e3ZUVBrgiCwAWQ99ILS2romjPjkujdqiinwSu9qI3u2DQenN4n/rJyRPUHr2zWa9zXwct+L/KhQTAVXFR/wEpFF8/MOTquO7HD15/XZtGhfu4Wr3dt2jwmDh8Ri66fH5s3bozdu3d7boPABVBz7dyxI+5dsjRGHT0giuvUzWn4GtiqUdx+Rtf8mPNK0nVDi5XJScA6cV+D4JrqbRD89sLhl64ZuL/oomsOiy5Ss2oqurjmssvj6cefiB3bt3s2g8AFUDsbDtMC0IvPmJxVKed2zqt+zBtbEltvG5IfwWvNCea8qJUFF5XStd5XbyyLxWd2izNLW0X3w3J3xbjokDoxqHPXuPzCafGHB9bEtg8+8AwGgQvg4JKqlG+df0POq+Xb1y2I6ccVx59uKMuP4PXACXZ68TMLLkbnxffyX1eNjDdvHhwrpvSI88uKoneTBjlbOJwCVirsmXrqaXF3xZ3xzttvm8MCgQuAymr5VLWc5ilyWbLRrqBOnN73iHh+Xv/sRTE/CjYEL37E/FUeBaw/LzouaxKcnjUJNoriHC4c7tqsRZw+6oS47abfxJ82vRx7du/xTAWBC4Afum645eXNMXPK+dGlSbPcFWwccmiM79o8Hp3VL9v1I3hR/U7Ou/mr7Irg1wFr2+Ly+LcZfWLWiHZZk2DbHAasNIc1ZmBZXH/F7Hh2w5PZbKhnJwhcAPzE64bpp9a5vm44rH2TuG9ab8GLg37+qtL2JUOzqvbZo4/MPh/FOaxqT9LC4dkXTc9OwdNzwfMRBC4ADqAv9+7NBt5PLh+a03bDdDVq+Xk9YveK4YIXtX7/1Xd3YT12+VFx1diSGH5kbgNWmsNKC4cvmjQ5Vi27K95/973s5NuzEAQuAKpYGn5/5aWXYvqZZ0XHRo1z9gJ4VIvCqDirW3x21zDlGvys06u/rR2XV9cDK31y59B48orSuGpcSYzq0DSnu7BSwOrVsnWcNX5C3LlwYbyxZUu2ON0zDwQuAKrRe39+J+ZfOSd6t26TsxfDvs0LY+FpXeLTZYIX/0x7YH5dD/zb6n3LhlPAunZChxjbuVl0apDbgNXpsCYxcdjwuOXa67IVEbt37fJcA4ELgHz02aefxoo7Fsex3Xrk7IWxV5MGsej0Lk68+N/LhVN74P35dT0w2bV8+N8DVpfmUVKvIKczWMUF9WJ0/4HZwuGn1q+PT3fu9PwCgcsXAaBGzXl9+WWsX7cu+6l5m0Nz8zLZs3H97MRrZ16ceI0WvHJ2enXSP55e5Vm4qiy52PBNwBrTuVm2/iCXASutdhjWu8/+oosd27ebwwIELoDaMuf18osvxtRTfxElhQ1z8nLZu2mDuGNyvsx4Kdc4mGavKq8IZiUXlx0Vvx5bEqM7No2OOZzBqjzBKuvUJS45+5x4YOXK2PrOu1nZjWcSIHAB1GJvvfFGzL54Rs72eZUe3jCWnds9/rIyX1oNx+8LDILTP7H3qnKx8DfNgXkYsNIerBSwHp7ZL+accGQcn+OSiyxg1akb/YrbZj/YWLm4It56/XUBCxC4AA5W2z74IG6aOy96HtEqJy+jx7RqFPdf1Dv+uioP9nilwLB2nOD1Q7XseVhs8V0f3D4kWzT8q+PbV8serKR7iyOyJsElCxfFls2vZNd4PV8AgQuAfyjYqLjllpwtUh7arnE8OqtffLV6ZH68uD84Zt/1uIM9XK3J73CVgvpbCwbHqgt6xaVD22YBvuiQQ6slYE0aPSZ+d+NN2ToGAQsQuAD4Ufbs3pMtVC3v2SurqK7Kl9Y2X//5J3ZvES9dMzCbtcmLl/p03XBtLb1u+IdvXQusAeEq2bNyeGy5oSy7jjq1rChKWxRG2zq5P8Hq1vzwrHRmwTXXxqYXXohdn33meQEIXAD8dGm56kP33R+jSvtXefBKL9AXDCqKtxcemz8v+ymIrBmzr2SjJoav/YUW39Sx5+nM1XcLLlJF+4tXDchWC0zq1zL6NGuQ8xOsyl1YJx43JG6cOy9eePqZ2Lljh+cCIHABUDXNho+uXRdjBpZVefBK7XHXjO+QH42G3xe+spOvk/IzWNWgU6tv27F0aNYgmCraJ3RrHp0L6+b89CppX78wxpUNjhvmzI1nNzyZXbH1+QcELgByJu0JevrxJ+Lk8qFVHrz6NiuMVRf2ii/vHZmfQSEt731w7L6mw3RF7+GTc3QVcMK+CvYHa16w2j9/dfPgWD2tV8wc3i6OK25cLQUXSTrBGj9ocFx/xez49/WPxe5du3zOAYELgOqXygHSC+pJQ8qz+uuqu9Z1aIzt0jw2XTsw/8NECj7pyl66updaD1MwSqdOKSSlsPT/Sb8vO6WasO8KYDqpqiHXAH/Ip8uGZfN5t53RNc4d0Dr6Nq+e+askrT/4dsCybBgQuACoEcErzbm0ObSgyl6U2xUUZHXf6epZTQ0eWWj6PjX13/M90mnk+7cPiUdm9ssWDI/7Oix3a1SvWsJV5QzWtwPW9o8/9rkFBC4AauZVww2PPBKj+w+s0pfoo1oUxtoZffKnzfAgt/eeEbH5umPizrO7xwVlRVHWutHXwbt6Tq+SksKG2alrKrkwgwUIXADUynKN9evWxch+pVV6zXByacvYetsQoSeHvlo1Mv574bHx0KV9959eldQrqLZwVbkH69QRx8fNV10d//HMM1mrps8hIHABUOvt/eKLWHP33XFstx5V9rLdo3H9WH1hrywICEQHvpr944ryeGbO0XHr6V3inP6tol/zwmhXUH2nV+nKap+iNjF57Lhs0bA9WIDABcBBb/fu3bF00a3Rt01xlS1NnnJM6/j4zqGC0s8IV3tWDM+uBt51Xo+YUV4c5W0bR4f6dav19Kq4oF4c1bZdTJl4SixZuCi2vLw5W8jtcwUIXADwHWlh7Pwr50THRo2r5OW89PCG8dy8/gLUjyy2eO2msrj3gl5x+cj2Mbpjs+jcoHrDVWXJxaDOXeOSs8+Je5csjbdefz0rZfH5AQQuAPiR3n/3vfjXc8+LdvUaHPgmwzp1YtHpXbI9T4LVPunkassNZdk+s9TyeEKnZlFSr/rDVdKhsFGMOnpAXDl9Rjx03/3x4fvvq2gHELgA+LnSS/UfN22KicOGH/Aq+VSoccGgoti1fPhBdy3wkyVDs31ly8/rEbNGtItRHZpGl4b1smuX+XB61ePwljFx+IisQfCp9etjxyefZCUrPhMAAhcAVeDLvXtj7arVMaCk4wF/wU8Nep/U0rmuz+8eke26euJXpdmJ3tSyohjStnF0apAfJ1dJ27r1o7Rt+2z+qmLBgti8caOKdgCBC4DqkF7E03zXkQ0aHtCX/vJ2jePDO8prdLj6dNmw2Hj1gFgxpUfMHtU+Tu7RIvo2K8xO8vIlXFUWXKRVAFdMuzgevOee+K8333R6BSBwAZBP3nzttWynUtEBvAI3tF2TvD/pSjNn6cTqhV/vC1ZzxxwZp/Y+Iqthz7dgVXk9MNWzTzphbNxy7XXx9ONPqGcHELgAqCnXDFfftTx6tWx9wAJCmmV64zeDqjVUfXH3iNi2uDz+OP+YWHtJn1jwi84xfUhxjO3cLHo2rh9H1i3Iu2BVqdNhTWJYn74xa+oFsWrpsqw9UD07gMAFQA324datcd6/TDxgpRol9Qpi2rFt4vHLj4qdS4cd0GXJe+8dmbUBflSxL1A9OqtfLD2ne1w1riSmDGwdozo2jb7NC7O/Q76Gqm/PXqWdaWeNnxCLrp8fzzyxIT7etk17IIDABUBtk17y0zxQ9xZHHNBQkYLPsPZNYsoxRXH1uA6x+Mxucd+0XvHQpX3jydml8fSco/d7+Jf9sl+/Z2rPqDirW/z2lM7Zlb+LjyuOSf1aZqdnA1o2zNoA8z1MfW81e8PDYvzgY2PuJZdm1exp9sruKwCBC4CDyNZ33s1mu2pioMm3cJWKLX553pRYubgitmx+JbvC6XsMQOACwGxX3DR3XpUsTK6N0tzV0F69Y/rkM6Pillti43PPxc4dOzQHAghcAPB/e+z3v88W6ApVf28MTCdXQ3r03B+uXnz2WXNXAAIXAPw0qT5+UJduB+e1wMJGMeroATFzyvmx/PY74qXnn48d27f7vgAQuADgwPnoww9jVGn/WhusiuvUjQElHWPS6DFxzWWXZ+Uh//nqq2auAAQuAMiNdG2upoeuVMPeu3WbGD9ocMw8f2osWbgont3wZBYov/j8c//PAAIXAFSf1GCYyiHyfc6qpLBhFqxOGlKeLRCuWLAgnlq/Pt55+21LhAEQuADI75OuNNOUTouqO1x1a354duo29dTT4sa58+L+FSti0wsvZIucNQQCIHABAAAIXAAAAAIXAAAAAhcAAIDABQAAIHABAAAgcAEAAAhcAAAAAhcAAAACFwAAgMAFAAAgcAEAACBwAQAACFwAAAACFwAAAAIXAACAwAUAACBwAQAAIHABAAAIXAAAAAIXAAAAAhcAAIDABQAAIHABAAAgcAEAAAhcAAAAAhcAAAACFwAAgMAFAAAgcAEAACBwAQAACFwAAAACFwAAAAIXAACAwAUAACBwAQAAIHABAAAIXAAAAAKXLwQAAIDABQAAIHABAAAIXL4IAAAAAhcAAIDABQAAgMAFAAAgcAEAAAhcAAAACFwAAAACFwAAgMAFAACAwAUAACBwAQAACFwAAAAIXAAAAAIXAACAwAUAAIDABQAAIHABAAAIXAAAAAhcAAAAAhcAAIDABQAAgMAFAAAgcAEAANR8/wPGBED84XDbFgAAAABJRU5ErkJggg==;" vertex="1" parent="7">
                    <mxGeometry x="110" y="140" width="380" height="422.87" as="geometry"/>
                </mxCell>
            </root>
        </mxGraphModel>
    </diagram>
</mxfile>